{
.appVersion = "3133";
classes = (
{
automatic = 1;
code = "A Aacute Acircumflex Adieresis Agrave Aring Atilde AE B C Ccedilla D Eth E Eacute Ecircumflex Edieresis Egrave F G H I Iacute Icircumflex Idieresis Igrave J K L M N Ntilde O Oacute Ocircumflex Odieresis Ograve Oslash Otilde OE P Thorn Q R S Scaron T U Uacute Ucircumflex Udieresis Ugrave V W X Y Yacute Ydieresis Z Zcaron";
name = Uppercase;
}
);
copyright = "Copyright 2022 The Kalnia Project Authors (https://github.com/fridamedrano/Kalnia-Typeface.git)";
customParameters = (
{
name = "EditView Line Height";
value = 1100;
},
{
name = "Axis Mappings";
value = {
wdth = {
100 = 100;
125 = 125;
};
wght = {
100 = 100;
300 = 300;
400 = 550;
700 = 900;
};
};
},
{
name = "Use Line Breaks";
value = 1;
},
{
name = "Use Typo Metrics";
value = 1;
},
{
name = fsType;
value = (
);
},
{
name = "Make morx table";
value = 1;
},
{
name = description;
value = "Kalnia is a display typeface with high contrast and delicate terminals for poster headlines. During the Victorian era, machines made mass production possible, changing design forever. Classical text typefaces didn’t satisfy the necessities of the time, and typography with bold and impactful letters appeared. Kalnia was born by this concept, inspired by the ‘fat faces’ of that time. Kalnia is a family with a total of eight styles. It includes four weights: Thin, Light, Regular, and Bold. Each one also has its normal and extended width adding: Thin Extended, Light Extended, Regular Extended, and Bold Extended. The typeface also has a variable font with weight and width axes. ";
},
{
name = license;
value = "This Font Software is licensed under the SIL Open Font License, Version 1.1. This license is available with a FAQ at: https://scripts.sil.org/OFL";
},
{
name = licenseURL;
value = "https://scripts.sil.org/OFL";
},
{
name = Axes;
value = (
{
Name = Weight;
Tag = wght;
},
{
Name = Width;
Tag = wdth;
}
);
}
);
date = "2022-03-23 12:33:01 +0000";

glyphs = (
{
color = 4;
glyphname = A;
lastChange = "2022-08-05 06:04:53 +0000";
layers = (
{
layerId = "2660E96A-9963-4076-AFCB-E451BC6EE103";
paths = (
{
closed = 1;
nodes = (
"378 0 LINE",
"378 10 LINE",
"262 23 OFFCURVE",
"212 105 OFFCURVE",
"212 222 CURVE SMOOTH",
"212 300 OFFCURVE",
"235 407 OFFCURVE",
"281 521 CURVE SMOOTH",
"285 531 LINE",
"298 531 LINE",
"502 19 LINE",
"432 5 LINE",
"432 0 LINE",
"815 0 LINE",
"815 10 LINE",
"767 20 LINE",
"493 708 LINE",
"341 708 LINE",
"56 20 LINE",
"5 10 LINE",
"5 0 LINE"
);
},
{
closed = 1;
nodes = (
"201 320 LINE",
"195 284 OFFCURVE",
"192 251 OFFCURVE",
"192 222 CURVE SMOOTH",
"192 128 OFFCURVE",
"223 53 OFFCURVE",
"284 20 CURVE",
"77 20 LINE"
);
},
{
closed = 1;
nodes = (
"402 285 LINE",
"402 315 LINE",
"205 298 LINE",
"204 285 LINE"
);
},
{
closed = 1;
nodes = (
"387 303 LINE",
"387 296 LINE",
"295 296 LINE"
);
},
{
closed = 1;
nodes = (
"312 551 LINE",
"297 551 LINE",
"354 688 LINE",
"479 688 LINE",
"746 20 LINE",
"523 20 LINE"
);
}
);
width = 820;
},
{
layerId = "DF54607F-DD82-41E6-B2E3-81CA6D0E5C47";
paths = (
{
closed = 1;
nodes = (
"574 0 LINE",
"574 10 LINE",
"423 19 OFFCURVE",
"301 83 OFFCURVE",
"301 235 CURVE SMOOTH",
"301 317 OFFCURVE",
"333 428 OFFCURVE",
"412 533 CURVE SMOOTH",
"418 541 LINE",
"439 541 LINE",
"773 19 LINE",
"703 5 LINE",
"703 0 LINE",
"1246 0 LINE",
"1246 10 LINE",
"1198 20 LINE",
"758 708 LINE",
"514 708 LINE",
"57 20 LINE",
"5 10 LINE",
"5 0 LINE"
);
},
{
closed = 1;
nodes = (
"296 343 LINE",
"286 304 OFFCURVE",
"281 268 OFFCURVE",
"281 235 CURVE SMOOTH",
"281 120 OFFCURVE",
"321 61 OFFCURVE",
"427 20 CURVE",
"81 20 LINE"
);
},
{
closed = 1;
nodes = (
"612 285 LINE",
"597 315 LINE",
"295 298 LINE",
"295 285 LINE"
);
},
{
closed = 1;
nodes = (
"581 303 LINE",
"581 296 LINE",
"489 296 LINE"
);
},
{
closed = 1;
nodes = (
"450 561 LINE",
"441 561 LINE",
"525 688 LINE",
"747 688 LINE",
"1175 20 LINE",
"796 20 LINE"
);
}
);
width = 1251;
},
{
background = {
paths = (
{
closed = 1;
nodes = (
"222 -5 LINE",
"222 15 LINE",
"148 15 OFFCURVE",
"127 24 OFFCURVE",
"127 54 CURVE SMOOTH",
"127 65 OFFCURVE",
"132 82 OFFCURVE",
"139 101 CURVE SMOOTH",
"353 675 LINE",
"356 675 LINE",
"597 28 LINE",
"528 14 LINE",
"528 -5 LINE",
"694 -5 LINE",
"694 14 LINE",
"623 29 LINE",
"366 713 LINE",
"342 713 LINE",
"86 29 LINE",
"15 14 LINE",
"15 -5 LINE"
);
},
{
closed = 1;
nodes = (
"25 6 LINE",
"94 21 LINE",
"348 703 LINE",
"360 703 LINE",
"615 21 LINE",
"684 6 LINE",
"684 5 LINE",
"538 5 LINE",
"538 6 LINE",
"611 20 LINE",
"362 685 LINE",
"347 685 LINE",
"129 105 LINE SMOOTH",
"122 86 OFFCURVE",
"117 67 OFFCURVE",
"117 54 CURVE SMOOTH",
"117 18 OFFCURVE",
"281 5 OFFCURVE",
"212 5 CURVE SMOOTH",
"25 5 LINE"
);
},
{
closed = 1;
nodes = (
"516 285 LINE",
"516 310 LINE",
"190 305 LINE",
"190 285 LINE"
);
},
{
closed = 1;
nodes = (
"506 300 LINE",
"506 295 LINE",
"200 295 LINE"
);
},
{
closed = 1;
nodes = (
"25 6 LINE",
"94 21 LINE",
"348 703 LINE",
"360 703 LINE",
"615 21 LINE",
"684 6 LINE",
"684 5 LINE",
"538 5 LINE",
"538 6 LINE",
"611 20 LINE",
"362 685 LINE",
"347 685 LINE",
"129 105 LINE SMOOTH",
"122 86 OFFCURVE",
"117 67 OFFCURVE",
"117 54 CURVE SMOOTH",
"117 18 OFFCURVE",
"281 5 OFFCURVE",
"212 5 CURVE SMOOTH",
"25 5 LINE"
);
},
{
closed = 1;
nodes = (
"516 285 LINE",
"516 310 LINE",
"190 305 LINE",
"190 285 LINE"
);
},
{
closed = 1;
nodes = (
"506 300 LINE",
"506 295 LINE",
"200 295 LINE"
);
},
{
closed = 1;
nodes = (
"348 703 LINE",
"360 703 LINE",
"621 7 LINE",
"616 7 LINE",
"362 689 LINE",
"343 689 LINE"
);
}
);
};
layerId = "A5088515-37FF-452F-BD44-18A7A5EF88F0";
paths = (
{
closed = 1;
nodes = (
"217 0 LINE",
"217 10 LINE",
"146 10 OFFCURVE",
"122 21 OFFCURVE",
"122 54 CURVE SMOOTH",
"122 66 OFFCURVE",
"126 84 OFFCURVE",
"134 103 CURVE",
"350 680 LINE",
"359 680 LINE",
"604 24 LINE",
"533 10 LINE",
"533 0 LINE",
"689 0 LINE",
"689 10 LINE",
"619 25 LINE",
"363 708 LINE",
"345 708 LINE",
"90 25 LINE",
"20 10 LINE",
"20 0 LINE"
);
},
{
closed = 1;
nodes = (
"126 103 LINE",
"117 80 OFFCURVE",
"113 65 OFFCURVE",
"113 50 CURVE SMOOTH",
"113 24 OFFCURVE",
"128 11 OFFCURVE",
"160 5 CURVE",
"89 5 LINE"
);
},
{
closed = 1;
nodes = (
"507 290 LINE",
"501 305 LINE",
"195 300 LINE",
"195 290 LINE"
);
},
{
closed = 1;
nodes = (
"494 300 LINE",
"494 295 LINE",
"200 295 LINE"
);
},
{
closed = 1;
nodes = (
"362 686 LINE",
"342 686 LINE",
"348 703 LINE",
"360 703 LINE",
"621 7 LINE",
"616 7 LINE"
);
}
);
width = 709;
},
{
background = {
paths = (
{
closed = 1;
nodes = (
"332 0 LINE",
"332 10 LINE",
"223 10 OFFCURVE",
"187 21 OFFCURVE",
"187 53 CURVE SMOOTH",
"187 65 OFFCURVE",
"193 83 OFFCURVE",
"205 103 CURVE SMOOTH",
"534 680 LINE",
"549 680 LINE",
"922 24 LINE",
"814 10 LINE",
"814 0 LINE",
"1044 0 LINE",
"1044 10 LINE",
"937 25 LINE",
"547 708 LINE",
"535 708 LINE",
"147 25 LINE",
"40 10 LINE",
"40 0 LINE"
);
},
{
closed = 1;
nodes = (
"773 290 LINE",
"773 305 LINE",
"307 300 LINE",
"307 290 LINE"
);
},
{
closed = 1;
nodes = (
"44 7 LINE",
"150 21 LINE",
"537 704 LINE",
"545 704 LINE",
"935 21 LINE",
"1040 7 LINE",
"1040 4 LINE",
"818 4 LINE",
"818 6 LINE",
"928 21 LINE",
"551 684 LINE",
"532 684 LINE",
"202 105 LINE",
"189 85 OFFCURVE",
"183 66 OFFCURVE",
"183 53 CURVE SMOOTH",
"183 18 OFFCURVE",
"221 6 OFFCURVE",
"328 6 CURVE",
"328 4 LINE",
"44 4 LINE"
);
},
{
closed = 1;
nodes = (
"777 286 LINE",
"777 309 LINE",
"303 304 LINE",
"303 286 LINE"
);
},
{
closed = 1;
nodes = (
"311 296 LINE",
"769 301 LINE",
"769 294 LINE",
"311 294 LINE"
);
}
);
};
layerId = "35A90D60-3AD4-435C-9F8B-D1CA483F6F66";
paths = (
{
closed = 1;
nodes = (
"332 0 LINE",
"332 10 LINE",
"223 10 OFFCURVE",
"187 21 OFFCURVE",
"187 53 CURVE SMOOTH",
"187 65 OFFCURVE",
"193 83 OFFCURVE",
"205 103 CURVE SMOOTH",
"534 680 LINE",
"549 680 LINE",
"922 24 LINE",
"814 10 LINE",
"814 0 LINE",
"1044 0 LINE",
"1044 10 LINE",
"937 25 LINE",
"547 708 LINE",
"535 708 LINE",
"147 25 LINE",
"40 10 LINE",
"40 0 LINE"
);
},
{
closed = 1;
nodes = (
"198 103 LINE",
"184 80 OFFCURVE",
"179 66 OFFCURVE",
"179 50 CURVE SMOOTH",
"179 24 OFFCURVE",
"201 11 OFFCURVE",
"248 5 CURVE",
"142 5 LINE"
);
},
{
closed = 1;
nodes = (
"773 290 LINE",
"765 305 LINE",
"307 300 LINE",
"307 290 LINE"
);
},
{
closed = 1;
nodes = (
"763 300 LINE",
"763 294 LINE",
"316 295 LINE"
);
},
{
closed = 1;
nodes = (
"552 684 LINE",
"526 684 LINE",
"537 703 LINE",
"545 703 LINE",
"942 7 LINE",
"937 7 LINE"
);
}
);
width = 1084;
}
);
leftKerningGroup = A;
rightKerningGroup = AA;
unicode = 0041;
},
{
color = 4;
glyphname = AE;
lastChange = "2022-08-05 06:04:53 +0000";
layers = (
{
background = {
paths = (
{
closed = 1;
nodes = (
"278 410 LINE",
"244 313 OFFCURVE",
"227 233 OFFCURVE",
"227 167 CURVE SMOOTH",
"227 106 OFFCURVE",
"247 54 OFFCURVE",
"290 20 CURVE",
"78 20 LINE"
);
}
);
};
layerId = "2660E96A-9963-4076-AFCB-E451BC6EE103";
paths = (
{
closed = 1;
nodes = (
"348 0 LINE",
"348 10 LINE",
"279 36 OFFCURVE",
"247 93 OFFCURVE",
"247 167 CURVE SMOOTH",
"247 282 OFFCURVE",
"302 447 OFFCURVE",
"414 667 CURVE",
"420 678 LINE",
"465 666 LINE",
"465 708 LINE",
"347 708 LINE",
"347 698 LINE",
"397 684 LINE",
"58 25 LINE",
"5 10 LINE",
"5 0 LINE"
);
},
{
closed = 1;
nodes = (
"455 315 LINE",
"455 345 LINE",
"261 325 LINE",
"261 315 LINE"
);
},
{
closed = 1;
nodes = (
"797 692 OFFCURVE",
"847 659 OFFCURVE",
"880 598 CURVE SMOOTH",
"975 424 LINE",
"985 424 LINE",
"1020 708 LINE",
"388 708 LINE",
"388 698 LINE",
"438 683 LINE",
"438 25 LINE",
"388 10 LINE",
"388 0 LINE",
"1020 0 LINE",
"985 284 LINE",
"975 284 LINE",
"906 138 LINE SMOOTH",
"870 62 OFFCURVE",
"810 17 OFFCURVE",
"765 16 CURVE SMOOTH",
"683 15 LINE",
"683 356 LINE",
"693 356 LINE",
"839 246 LINE",
"849 246 LINE",
"849 506 LINE",
"839 506 LINE",
"833 486 OFFCURVE",
"811 439 OFFCURVE",
"777 405 CURVE SMOOTH",
"757 384 OFFCURVE",
"731 368 OFFCURVE",
"703 366 CURVE",
"683 366 LINE",
"683 693 LINE",
"765 692 LINE SMOOTH"
);
},
{
closed = 1;
nodes = (
"458 688 LINE",
"663 688 LINE",
"663 20 LINE",
"458 20 LINE"
);
},
{
closed = 1;
nodes = (
"771 362 OFFCURVE",
"796 384 OFFCURVE",
"827 433 CURVE",
"827 282 LINE",
"736 351 LINE"
);
},
{
closed = 1;
nodes = (
"874 43 OFFCURVE",
"901 76 OFFCURVE",
"926 129 CURVE SMOOTH",
"971 223 LINE",
"995 20 LINE",
"841 20 LINE"
);
},
{
closed = 1;
nodes = (
"899 609 LINE SMOOTH",
"878 648 OFFCURVE",
"860 669 OFFCURVE",
"835 688 CURVE",
"995 688 LINE",
"970 479 LINE"
);
},
{
closed = 1;
nodes = (
"278 410 LINE",
"281 410 LINE",
"248 315 OFFCURVE",
"227 232 OFFCURVE",
"227 167 CURVE SMOOTH",
"227 106 OFFCURVE",
"247 54 OFFCURVE",
"290 20 CURVE",
"78 20 LINE"
);
}
);
width = 1070;
},
{
background = {
paths = (
{
closed = 1;
nodes = (
"550 573 LINE",
"442 421 OFFCURVE",
"345 273 OFFCURVE",
"345 164 CURVE SMOOTH",
"344 91 OFFCURVE",
"386 46 OFFCURVE",
"445 20 CURVE",
"88 20 LINE"
);
}
);
};
layerId = "DF54607F-DD82-41E6-B2E3-81CA6D0E5C47";
paths = (
{
closed = 1;
nodes = (
"578 0 LINE",
"578 10 LINE",
"471 17 OFFCURVE",
"363 57 OFFCURVE",
"365 164 CURVE SMOOTH",
"365 292 OFFCURVE",
"509 482 OFFCURVE",
"643 670 CURVE",
"649 678 LINE",
"675 673 LINE",
"675 708 LINE",
"543 708 LINE",
"543 698 LINE",
"616 684 LINE",
"61 20 LINE",
"5 10 LINE",
"5 0 LINE"
);
},
{
closed = 1;
nodes = (
"384 285 LINE",
"686 285 LINE",
"686 315 LINE",
"388 297 LINE"
);
},
{
closed = 1;
nodes = (
"1431 691 OFFCURVE",
"1533 657 OFFCURVE",
"1623 579 CURVE SMOOTH",
"1800 424 LINE",
"1810 424 LINE",
"1884 708 LINE",
"618 708 LINE",
"618 698 LINE",
"668 688 LINE",
"668 20 LINE",
"618 10 LINE",
"618 0 LINE",
"1884 0 LINE",
"1810 284 LINE",
"1800 284 LINE",
"1652 140 LINE SMOOTH",
"1565 55 OFFCURVE",
"1451 17 OFFCURVE",
"1343 16 CURVE SMOOTH",
"1188 15 LINE",
"1188 356 LINE",
"1200 356 LINE",
"1511 246 LINE",
"1521 246 LINE",
"1521 506 LINE",
"1511 506 LINE",
"1499 488 OFFCURVE",
"1454 449 OFFCURVE",
"1393 416 CURVE SMOOTH",
"1343 390 OFFCURVE",
"1282 368 OFFCURVE",
"1221 366 CURVE",
"1188 366 LINE",
"1188 693 LINE",
"1343 692 LINE SMOOTH"
);
},
{
closed = 1;
nodes = (
"688 688 LINE",
"1168 688 LINE",
"1168 20 LINE",
"688 20 LINE"
);
},
{
closed = 1;
nodes = (
"1371 372 OFFCURVE",
"1426 399 OFFCURVE",
"1499 462 CURVE",
"1499 274 LINE",
"1279 351 LINE"
);
},
{
closed = 1;
nodes = (
"1555 39 OFFCURVE",
"1615 73 OFFCURVE",
"1667 124 CURVE SMOOTH",
"1796 250 LINE",
"1856 20 LINE",
"1484 20 LINE"
);
},
{
closed = 1;
nodes = (
"1637 596 LINE SMOOTH",
"1585 642 OFFCURVE",
"1529 672 OFFCURVE",
"1469 688 CURVE",
"1856 688 LINE",
"1796 457 LINE"
);
},
{
closed = 1;
nodes = (
"469 468 LINE",
"471 468 LINE",
"380 330 OFFCURVE",
"345 246 OFFCURVE",
"345 164 CURVE SMOOTH",
"344 91 OFFCURVE",
"386 46 OFFCURVE",
"445 20 CURVE",
"88 20 LINE"
);
}
);
width = 1934;
},
{
background = {
paths = (
{
closed = 1;
nodes = (
"624 285 LINE",
"624 310 LINE",
"332 305 LINE",
"332 285 LINE"
);
},
{
closed = 1;
nodes = (
"614 300 LINE",
"614 295 LINE",
"342 295 LINE"
);
}
);
};
layerId = "35A90D60-3AD4-435C-9F8B-D1CA483F6F66";
name = "Thin Extended";
paths = (
{
closed = 1;
nodes = (
"328 0 LINE",
"328 10 LINE",
"224 10 OFFCURVE",
"189 20 OFFCURVE",
"188 51 CURVE SMOOTH",
"188 64 OFFCURVE",
"195 81 OFFCURVE",
"210 103 CURVE",
"603 680 LINE",
"613 678 LINE",
"613 708 LINE",
"516 708 LINE",
"516 698 LINE",
"591 687 LINE",
"140 25 LINE",
"40 10 LINE",
"40 0 LINE"
);
},
{
closed = 1;
nodes = (
"612 290 LINE",
"612 305 LINE",
"341 300 LINE",
"335 290 LINE"
);
},
{
closed = 1;
nodes = (
"1300 693 OFFCURVE",
"1316 676 OFFCURVE",
"1310 625 CURVE",
"1293 484 LINE",
"1308 484 LINE",
"1342 708 LINE",
"506 708 LINE",
"506 698 LINE",
"610 683 LINE",
"610 25 LINE",
"501 10 LINE",
"501 0 LINE",
"1342 0 LINE",
"1308 243 LINE",
"1293 243 LINE",
"1314 91 LINE",
"1322 34 OFFCURVE",
"1310 15 OFFCURVE",
"1265 15 CURVE SMOOTH",
"625 15 LINE",
"625 353 LINE",
"995 353 LINE",
"1001 256 LINE",
"1011 256 LINE",
"1011 498 LINE",
"1001 498 LINE",
"1001 434 OFFCURVE",
"997 392 OFFCURVE",
"990 381 CURVE SMOOTH",
"985 372 OFFCURVE",
"976 368 OFFCURVE",
"964 368 CURVE SMOOTH",
"625 368 LINE",
"625 693 LINE",
"1248 693 LINE SMOOTH"
);
},
{
closed = 1;
nodes = (
"615 703 LINE",
"620 703 LINE",
"620 5 LINE",
"615 5 LINE"
);
},
{
closed = 1;
nodes = (
"1001 369 OFFCURVE",
"1003 379 OFFCURVE",
"1004 388 CURVE",
"1004 288 LINE",
"1000 360 LINE"
);
},
{
closed = 1;
nodes = (
"1315 8 OFFCURVE",
"1329 31 OFFCURVE",
"1321 92 CURVE SMOOTH",
"1302 236 LINE",
"1334 7 LINE",
"1265 7 LINE"
);
},
{
closed = 1;
nodes = (
"1317 624 LINE SMOOTH",
"1323 679 OFFCURVE",
"1304 700 OFFCURVE",
"1248 701 CURVE",
"1334 701 LINE",
"1302 491 LINE"
);
},
{
closed = 1;
nodes = (
"233 153 LINE",
"236 153 LINE",
"195 92 OFFCURVE",
"181 66 OFFCURVE",
"181 50 CURVE SMOOTH",
"181 24 OFFCURVE",
"203 11 OFFCURVE",
"250 5 CURVE",
"136 5 LINE"
);
}
);
width = 1457;
},
{
background = {
paths = (
{
closed = 1;
nodes = (
"423 703 LINE",
"139 105 LINE",
"128 85 OFFCURVE",
"123 66 OFFCURVE",
"123 52 CURVE SMOOTH",
"123 18 OFFCURVE",
"150 6 OFFCURVE",
"221 5 CURVE",
"86 5 LINE",
"419 703 LINE"
);
},
{
closed = 1;
nodes = (
"232 295 LINE",
"425 300 LINE",
"425 295 LINE",
"232 295 LINE"
);
}
);
};
layerId = "A5088515-37FF-452F-BD44-18A7A5EF88F0";
name = Thin;
paths = (
{
closed = 1;
nodes = (
"226 0 LINE",
"226 10 LINE",
"153 10 OFFCURVE",
"128 21 OFFCURVE",
"128 52 CURVE SMOOTH",
"128 65 OFFCURVE",
"133 83 OFFCURVE",
"143 103 CURVE SMOOTH",
"419 680 LINE",
"426 678 LINE",
"426 708 LINE",
"354 708 LINE",
"354 698 LINE",
"407 687 LINE",
"90 25 LINE",
"20 10 LINE",
"20 0 LINE"
);
},
{
closed = 1;
nodes = (
"427 290 LINE",
"427 305 LINE",
"227 300 LINE",
"227 290 LINE"
);
},
{
closed = 1;
nodes = (
"822 693 OFFCURVE",
"838 679 OFFCURVE",
"833 635 CURVE",
"817 484 LINE",
"832 484 LINE",
"866 708 LINE",
"354 708 LINE",
"354 698 LINE",
"424 683 LINE",
"424 25 LINE",
"354 10 LINE",
"354 0 LINE",
"866 0 LINE",
"832 243 LINE",
"817 243 LINE",
"839 83 LINE",
"846 32 OFFCURVE",
"834 15 OFFCURVE",
"789 15 CURVE SMOOTH",
"439 15 LINE",
"439 353 LINE",
"659 353 LINE",
"665 256 LINE",
"675 256 LINE",
"675 498 LINE",
"665 498 LINE",
"665 436 OFFCURVE",
"662 399 OFFCURVE",
"656 385 CURVE SMOOTH",
"651 374 OFFCURVE",
"641 368 OFFCURVE",
"628 368 CURVE",
"439 368 LINE",
"439 693 LINE",
"772 693 LINE SMOOTH"
);
},
{
closed = 1;
nodes = (
"429 703 LINE",
"434 703 LINE",
"434 5 LINE",
"429 5 LINE"
);
},
{
closed = 1;
nodes = (
"665 369 OFFCURVE",
"667 379 OFFCURVE",
"668 388 CURVE",
"668 288 LINE",
"664 360 LINE"
);
},
{
closed = 1;
nodes = (
"839 8 OFFCURVE",
"854 29 OFFCURVE",
"846 84 CURVE SMOOTH",
"825 236 LINE",
"858 7 LINE",
"789 7 LINE"
);
},
{
closed = 1;
nodes = (
"840 634 LINE SMOOTH",
"845 683 OFFCURVE",
"826 700 OFFCURVE",
"772 701 CURVE",
"858 701 LINE",
"826 491 LINE"
);
},
{
closed = 1;
nodes = (
"157 153 LINE",
"160 153 LINE",
"131 88 OFFCURVE",
"121 62 OFFCURVE",
"121 50 CURVE SMOOTH",
"121 24 OFFCURVE",
"136 11 OFFCURVE",
"168 5 CURVE",
"90 5 LINE"
);
}
);
width = 941;
}
);
leftKerningGroup = A;
leftMetricsKey = A;
rightKerningGroup = E;
rightMetricsKey = E;
unicode = 00C6;
},
{
color = 4;
glyphname = B;
lastChange = "2022-08-05 06:04:53 +0000";
layers = (
{
layerId = "2660E96A-9963-4076-AFCB-E451BC6EE103";
paths = (
{
closed = 1;
nodes = (
"441 0 LINE SMOOTH",
"638 0 OFFCURVE",
"746 58 OFFCURVE",
"746 192 CURVE SMOOTH",
"746 326 OFFCURVE",
"584 370 OFFCURVE",
"438 370 CURVE",
"438 380 LINE",
"553 380 OFFCURVE",
"720 423 OFFCURVE",
"720 554 CURVE SMOOTH",
"720 655 OFFCURVE",
"625 708 OFFCURVE",
"463 708 CURVE SMOOTH",
"20 708 LINE",
"20 698 LINE",
"70 683 LINE",
"70 25 LINE",
"20 10 LINE",
"20 0 LINE"
);
},
{
closed = 1;
nodes = (
"90 688 LINE",
"295 688 LINE",
"295 20 LINE",
"90 20 LINE"
);
},
{
closed = 1;
nodes = (
"383 14 OFFCURVE",
"329 15 OFFCURVE",
"315 20 CURVE",
"315 686 LINE",
"322 690 OFFCURVE",
"379 692 OFFCURVE",
"405 692 CURVE SMOOTH",
"465 691 OFFCURVE",
"505 638 OFFCURVE",
"505 554 CURVE SMOOTH",
"505 427 OFFCURVE",
"449 384 OFFCURVE",
"379 382 CURVE SMOOTH",
"309 380 LINE",
"309 370 LINE",
"379 367 LINE SMOOTH",
"467 363 OFFCURVE",
"515 324 OFFCURVE",
"515 208 CURVE SMOOTH",
"515 59 OFFCURVE",
"452 16 OFFCURVE",
"394 14 CURVE SMOOTH"
);
},
{
closed = 1;
nodes = (
"518 59 OFFCURVE",
"535 112 OFFCURVE",
"535 208 CURVE SMOOTH",
"535 276 OFFCURVE",
"520 319 OFFCURVE",
"488 350 CURVE",
"615 341 OFFCURVE",
"726 297 OFFCURVE",
"726 192 CURVE SMOOTH",
"726 76 OFFCURVE",
"642 24 OFFCURVE",
"472 19 CURVE"
);
},
{
closed = 1;
nodes = (
"508 431 OFFCURVE",
"525 482 OFFCURVE",
"525 554 CURVE SMOOTH",
"525 615 OFFCURVE",
"508 660 OFFCURVE",
"473 688 CURVE",
"623 686 OFFCURVE",
"700 641 OFFCURVE",
"700 554 CURVE SMOOTH",
"700 453 OFFCURVE",
"583 407 OFFCURVE",
"476 399 CURVE"
);
}
);
width = 776;
},
{
layerId = "DF54607F-DD82-41E6-B2E3-81CA6D0E5C47";
paths = (
{
closed = 1;
nodes = (
"716 0 LINE SMOOTH",
"1073 0 OFFCURVE",
"1335 80 OFFCURVE",
"1335 192 CURVE SMOOTH",
"1335 296 OFFCURVE",
"1092 370 OFFCURVE",
"783 370 CURVE",
"783 380 LINE",
"1100 380 OFFCURVE",
"1309 445 OFFCURVE",
"1309 554 CURVE SMOOTH",
"1309 651 OFFCURVE",
"1091 708 OFFCURVE",
"738 708 CURVE SMOOTH",
"20 708 LINE",
"20 698 LINE",
"70 683 LINE",
"70 25 LINE",
"20 10 LINE",
"20 0 LINE"
);
},
{
closed = 1;
nodes = (
"90 688 LINE",
"570 688 LINE",
"570 20 LINE",
"90 20 LINE"
);
},
{
closed = 1;
nodes = (
"658 14 OFFCURVE",
"604 15 OFFCURVE",
"590 20 CURVE",
"590 686 LINE",
"597 690 OFFCURVE",
"654 692 OFFCURVE",
"680 692 CURVE SMOOTH",
"740 691 OFFCURVE",
"780 638 OFFCURVE",
"780 554 CURVE SMOOTH",
"780 427 OFFCURVE",
"724 384 OFFCURVE",
"654 382 CURVE SMOOTH",
"584 380 LINE",
"584 370 LINE",
"654 367 LINE SMOOTH",
"742 363 OFFCURVE",
"790 324 OFFCURVE",
"790 208 CURVE SMOOTH",
"790 59 OFFCURVE",
"727 16 OFFCURVE",
"669 14 CURVE SMOOTH"
);
},
{
closed = 1;
nodes = (
"789 50 OFFCURVE",
"810 113 OFFCURVE",
"810 208 CURVE SMOOTH",
"810 270 OFFCURVE",
"795 318 OFFCURVE",
"769 350 CURVE",
"1089 350 OFFCURVE",
"1315 281 OFFCURVE",
"1315 192 CURVE SMOOTH",
"1315 97 OFFCURVE",
"1081 22 OFFCURVE",
"746 19 CURVE"
);
},
{
closed = 1;
nodes = (
"784 433 OFFCURVE",
"800 484 OFFCURVE",
"800 554 CURVE SMOOTH",
"800 618 OFFCURVE",
"783 662 OFFCURVE",
"748 688 CURVE",
"1090 688 OFFCURVE",
"1289 636 OFFCURVE",
"1289 554 CURVE SMOOTH",
"1289 460 OFFCURVE",
"1097 399 OFFCURVE",
"756 400 CURVE"
);
}
);
width = 1365;
},
{
background = {
paths = (
{
closed = 1;
nodes = (
"100 708 LINE",
"100 698 LINE",
"209 683 LINE",
"209 25 LINE",
"100 10 LINE",
"100 0 LINE",
"546 0 LINE",
"819 2 OFFCURVE",
"953 63 OFFCURVE",
"953 187 CURVE SMOOTH",
"953 314 OFFCURVE",
"823 361 OFFCURVE",
"649 369 CURVE",
"649 374 LINE",
"775 384 OFFCURVE",
"879 437 OFFCURVE",
"879 537 CURVE SMOOTH",
"879 652 OFFCURVE",
"766 708 OFFCURVE",
"536 708 CURVE SMOOTH"
);
},
{
closed = 1;
nodes = (
"750 692 OFFCURVE",
"864 641 OFFCURVE",
"864 537 CURVE SMOOTH",
"864 458 OFFCURVE",
"780 377 OFFCURVE",
"544 377 CURVE",
"210 374 LINE",
"210 364 LINE",
"544 361 LINE",
"823 361 OFFCURVE",
"938 298 OFFCURVE",
"938 187 CURVE SMOOTH",
"938 72 OFFCURVE",
"803 15 OFFCURVE",
"546 15 CURVE SMOOTH",
"462 15 OFFCURVE",
"296 18 OFFCURVE",
"224 24 CURVE",
"224 683 LINE",
"302 691 OFFCURVE",
"447 692 OFFCURVE",
"536 692 CURVE SMOOTH"
);
},
{
closed = 1;
nodes = (
"527 10 LINE",
"534 10 OFFCURVE",
"540 10 OFFCURVE",
"546 10 CURVE SMOOTH",
"805 10 OFFCURVE",
"943 68 OFFCURVE",
"943 187 CURVE SMOOTH",
"943 286 OFFCURVE",
"856 347 OFFCURVE",
"653 362 CURVE",
"653 364 LINE",
"824 355 OFFCURVE",
"948 310 OFFCURVE",
"948 187 CURVE SMOOTH",
"948 66 OFFCURVE",
"818 7 OFFCURVE",
"546 5 CURVE SMOOTH",
"526 5 LINE"
);
},
{
closed = 1;
nodes = (
"524 703 LINE",
"536 703 LINE SMOOTH",
"765 703 OFFCURVE",
"874 649 OFFCURVE",
"874 537 CURVE SMOOTH",
"874 442 OFFCURVE",
"777 391 OFFCURVE",
"655 380 CURVE",
"655 379 LINE",
"810 401 OFFCURVE",
"869 469 OFFCURVE",
"869 537 CURVE SMOOTH",
"869 645 OFFCURVE",
"752 697 OFFCURVE",
"536 697 CURVE SMOOTH",
"532 697 OFFCURVE",
"529 697 OFFCURVE",
"525 697 CURVE"
);
}
);
};
layerId = "35A90D60-3AD4-435C-9F8B-D1CA483F6F66";
name = "Thin Extended";
paths = (
{
closed = 1;
nodes = (
"546 0 LINE",
"819 2 OFFCURVE",
"953 63 OFFCURVE",
"953 187 CURVE SMOOTH",
"953 314 OFFCURVE",
"823 361 OFFCURVE",
"649 369 CURVE",
"649 374 LINE",
"775 384 OFFCURVE",
"879 437 OFFCURVE",
"879 537 CURVE SMOOTH",
"879 652 OFFCURVE",
"766 708 OFFCURVE",
"536 708 CURVE SMOOTH",
"100 708 LINE",
"100 698 LINE",
"209 683 LINE",
"209 25 LINE",
"100 10 LINE",
"100 0 LINE"
);
},
{
closed = 1;
nodes = (
"214 703 LINE",
"219 703 LINE",
"219 5 LINE",
"214 5 LINE"
);
},
{
closed = 1;
nodes = (
"462 15 OFFCURVE",
"296 18 OFFCURVE",
"224 24 CURVE",
"224 683 LINE",
"302 691 OFFCURVE",
"447 692 OFFCURVE",
"536 692 CURVE SMOOTH",
"750 692 OFFCURVE",
"864 641 OFFCURVE",
"864 537 CURVE SMOOTH",
"864 458 OFFCURVE",
"780 377 OFFCURVE",
"544 377 CURVE",
"210 374 LINE",
"210 364 LINE",
"544 361 LINE",
"823 361 OFFCURVE",
"938 298 OFFCURVE",
"938 187 CURVE SMOOTH",
"938 72 OFFCURVE",
"803 15 OFFCURVE",
"546 15 CURVE SMOOTH"
);
},
{
closed = 1;
nodes = (
"848 34 OFFCURVE",
"943 88 OFFCURVE",
"943 187 CURVE SMOOTH",
"943 278 OFFCURVE",
"870 337 OFFCURVE",
"701 359 CURVE",
"853 343 OFFCURVE",
"948 295 OFFCURVE",
"948 187 CURVE SMOOTH",
"948 89 OFFCURVE",
"863 34 OFFCURVE",
"685 15 CURVE"
);
},
{
closed = 1;
nodes = (
"817 410 OFFCURVE",
"869 473 OFFCURVE",
"869 537 CURVE SMOOTH",
"869 618 OFFCURVE",
"805 669 OFFCURVE",
"676 692 CURVE",
"808 672 OFFCURVE",
"874 620 OFFCURVE",
"874 537 CURVE SMOOTH",
"874 452 OFFCURVE",
"796 402 OFFCURVE",
"690 384 CURVE"
);
}
);
width = 1023;
},
{
layerId = "A5088515-37FF-452F-BD44-18A7A5EF88F0";
name = Thin;
paths = (
{
closed = 1;
nodes = (
"361 0 LINE SMOOTH",
"528 0 OFFCURVE",
"609 63 OFFCURVE",
"609 187 CURVE SMOOTH",
"609 314 OFFCURVE",
"530 361 OFFCURVE",
"424 369 CURVE",
"424 374 LINE",
"501 384 OFFCURVE",
"564 437 OFFCURVE",
"564 537 CURVE SMOOTH",
"564 652 OFFCURVE",
"495 708 OFFCURVE",
"355 708 CURVE SMOOTH",
"80 708 LINE",
"80 698 LINE",
"150 683 LINE",
"150 25 LINE",
"80 10 LINE",
"80 0 LINE"
);
},
{
closed = 1;
nodes = (
"155 703 LINE",
"160 703 LINE",
"160 5 LINE",
"155 5 LINE"
);
},
{
closed = 1;
nodes = (
"310 15 OFFCURVE",
"209 18 OFFCURVE",
"165 24 CURVE",
"165 683 LINE",
"213 691 OFFCURVE",
"301 692 OFFCURVE",
"355 692 CURVE SMOOTH",
"485 692 OFFCURVE",
"549 641 OFFCURVE",
"549 537 CURVE SMOOTH",
"549 458 OFFCURVE",
"503 379 OFFCURVE",
"360 377 CURVE SMOOTH",
"162 374 LINE",
"162 364 LINE",
"360 361 LINE SMOOTH",
"530 358 OFFCURVE",
"594 298 OFFCURVE",
"594 187 CURVE SMOOTH",
"594 72 OFFCURVE",
"517 15 OFFCURVE",
"361 15 CURVE SMOOTH"
);
},
{
closed = 1;
nodes = (
"544 34 OFFCURVE",
"599 89 OFFCURVE",
"599 187 CURVE SMOOTH",
"599 279 OFFCURVE",
"552 339 OFFCURVE",
"455 359 CURVE",
"540 344 OFFCURVE",
"604 296 OFFCURVE",
"604 187 CURVE SMOOTH",
"604 89 OFFCURVE",
"553 34 OFFCURVE",
"445 15 CURVE"
);
},
{
closed = 1;
nodes = (
"521 410 OFFCURVE",
"554 474 OFFCURVE",
"554 537 CURVE SMOOTH",
"554 623 OFFCURVE",
"511 674 OFFCURVE",
"434 692 CURVE",
"521 674 OFFCURVE",
"559 623 OFFCURVE",
"559 537 CURVE SMOOTH",
"559 451 OFFCURVE",
"508 402 OFFCURVE",
"447 384 CURVE"
);
}
);
width = 669;
}
);
leftKerningGroup = HH;
leftMetricsKey = H;
rightKerningGroup = B;
unicode = 0042;
},
{
color = 4;
glyphname = C;
lastChange = "2022-08-05 06:04:53 +0000";
layers = (
{
layerId = "2660E96A-9963-4076-AFCB-E451BC6EE103";
paths = (
{
closed = 1;
nodes = (
"690 134 LINE",
"649 105 OFFCURVE",
"601 93 OFFCURVE",
"552 93 CURVE SMOOTH",
"348 93 OFFCURVE",
"272 263 OFFCURVE",
"272 428 CURVE SMOOTH",
"271 574 OFFCURVE",
"309 711 OFFCURVE",
"374 711 CURVE SMOOTH",
"441 711 OFFCURVE",
"502 645 OFFCURVE",
"558 513 CURVE SMOOTH",
"621 364 LINE",
"641 364 LINE",
"701 660 LINE",
"644 685 OFFCURVE",
"535 723 OFFCURVE",
"425 723 CURVE SMOOTH",
"178 723 OFFCURVE",
"30 584 OFFCURVE",
"30 352 CURVE SMOOTH",
"30 120 OFFCURVE",
"198 -17 OFFCURVE",
"403 -15 CURVE SMOOTH",
"509 -14 OFFCURVE",
"618 21 OFFCURVE",
"700 127 CURVE"
);
},
{
closed = 1;
nodes = (
"270 650 OFFCURVE",
"250 555 OFFCURVE",
"250 428 CURVE SMOOTH",
"250 256 OFFCURVE",
"332 71 OFFCURVE",
"552 71 CURVE SMOOTH",
"576 71 OFFCURVE",
"600 74 OFFCURVE",
"624 80 CURVE",
"558 27 OFFCURVE",
"481 8 OFFCURVE",
"403 7 CURVE SMOOTH",
"206 5 OFFCURVE",
"52 130 OFFCURVE",
"52 352 CURVE SMOOTH",
"52 533 OFFCURVE",
"142 651 OFFCURVE",
"306 692 CURVE"
);
},
{
closed = 1;
nodes = (
"543 605 OFFCURVE",
"504 665 OFFCURVE",
"461 699 CURVE",
"546 693 OFFCURVE",
"625 668 OFFCURVE",
"676 647 CURVE",
"627 407 LINE",
"624 414 LINE",
"578 522 LINE SMOOTH"
);
}
);
width = 731;
},
{
layerId = "DF54607F-DD82-41E6-B2E3-81CA6D0E5C47";
paths = (
{
closed = 1;
nodes = (
"1211 134 LINE",
"1138 105 OFFCURVE",
"1052 93 OFFCURVE",
"964 93 CURVE SMOOTH",
"712 93 OFFCURVE",
"533 232 OFFCURVE",
"532 448 CURVE SMOOTH",
"531 618 OFFCURVE",
"594 711 OFFCURVE",
"726 711 CURVE SMOOTH",
"819 711 OFFCURVE",
"906 647 OFFCURVE",
"989 518 CURVE SMOOTH",
"1088 364 LINE",
"1124 364 LINE",
"1231 660 LINE",
"1129 685 OFFCURVE",
"944 723 OFFCURVE",
"747 723 CURVE SMOOTH",
"296 723 OFFCURVE",
"30 585 OFFCURVE",
"30 352 CURVE SMOOTH",
"30 135 OFFCURVE",
"307 -17 OFFCURVE",
"698 -15 CURVE SMOOTH",
"887 -14 OFFCURVE",
"1082 21 OFFCURVE",
"1229 127 CURVE"
);
},
{
closed = 1;
nodes = (
"541 653 OFFCURVE",
"509 571 OFFCURVE",
"510 448 CURVE SMOOTH",
"511 218 OFFCURVE",
"701 71 OFFCURVE",
"964 71 CURVE SMOOTH",
"1012 71 OFFCURVE",
"1061 75 OFFCURVE",
"1107 83 CURVE",
"984 28 OFFCURVE",
"841 8 OFFCURVE",
"698 7 CURVE SMOOTH",
"313 5 OFFCURVE",
"52 148 OFFCURVE",
"52 352 CURVE SMOOTH",
"52 547 OFFCURVE",
"247 670 OFFCURVE",
"607 698 CURVE"
);
},
{
closed = 1;
nodes = (
"957 609 OFFCURVE",
"904 665 OFFCURVE",
"847 698 CURVE",
"989 689 OFFCURVE",
"1117 664 OFFCURVE",
"1202 644 CURVE",
"1109 386 LINE",
"1100 386 LINE",
"1008 530 LINE SMOOTH"
);
}
);
width = 1261;
},
{
layerId = "A5088515-37FF-452F-BD44-18A7A5EF88F0";
paths = (
{
closed = 1;
nodes = (
"633 144 LINE",
"578 53 OFFCURVE",
"484 0 OFFCURVE",
"379 0 CURVE SMOOTH",
"201 0 OFFCURVE",
"96 130 OFFCURVE",
"95 350 CURVE SMOOTH",
"94 560 OFFCURVE",
"215 708 OFFCURVE",
"387 708 CURVE SMOOTH",
"558 708 OFFCURVE",
"624 652 OFFCURVE",
"604 525 CURVE SMOOTH",
"582 384 LINE",
"598 384 LINE",
"645 616 LINE",
"590 688 OFFCURVE",
"505 723 OFFCURVE",
"387 723 CURVE SMOOTH",
"207 723 OFFCURVE",
"80 568 OFFCURVE",
"80 350 CURVE SMOOTH",
"80 121 OFFCURVE",
"191 -15 OFFCURVE",
"379 -15 CURVE SMOOTH",
"496 -15 OFFCURVE",
"594 41 OFFCURVE",
"643 137 CURVE"
);
},
{
closed = 1;
nodes = (
"165 649 OFFCURVE",
"89 515 OFFCURVE",
"90 350 CURVE SMOOTH",
"91 127 OFFCURVE",
"197 -5 OFFCURVE",
"379 -5 CURVE SMOOTH",
"447 -5 OFFCURVE",
"513 16 OFFCURVE",
"565 54 CURVE",
"518 13 OFFCURVE",
"451 -10 OFFCURVE",
"379 -10 CURVE SMOOTH",
"194 -10 OFFCURVE",
"85 123 OFFCURVE",
"85 350 CURVE SMOOTH",
"85 518 OFFCURVE",
"163 652 OFFCURVE",
"288 698 CURVE"
);
},
{
closed = 1;
nodes = (
"624 605 OFFCURVE",
"601 659 OFFCURVE",
"543 688 CURVE",
"580 671 OFFCURVE",
"613 646 OFFCURVE",
"638 614 CURVE",
"592 391 LINE",
"590 391 LINE",
"611 524 LINE SMOOTH"
);
}
);
width = 725;
},
{
layerId = "35A90D60-3AD4-435C-9F8B-D1CA483F6F66";
paths = (
{
closed = 1;
nodes = (
"986 144 LINE",
"897 53 OFFCURVE",
"744 0 OFFCURVE",
"574 0 CURVE SMOOTH",
"287 0 OFFCURVE",
"107 130 OFFCURVE",
"105 350 CURVE SMOOTH",
"104 560 OFFCURVE",
"309 708 OFFCURVE",
"587 708 CURVE SMOOTH",
"846 708 OFFCURVE",
"987 634 OFFCURVE",
"953 517 CURVE SMOOTH",
"914 384 LINE",
"929 384 LINE",
"1005 616 LINE",
"916 688 OFFCURVE",
"778 723 OFFCURVE",
"587 723 CURVE SMOOTH",
"296 723 OFFCURVE",
"90 568 OFFCURVE",
"90 350 CURVE SMOOTH",
"90 121 OFFCURVE",
"270 -15 OFFCURVE",
"574 -15 CURVE SMOOTH",
"764 -15 OFFCURVE",
"923 41 OFFCURVE",
"1002 137 CURVE"
);
},
{
closed = 1;
nodes = (
"224 650 OFFCURVE",
"99 516 OFFCURVE",
"100 350 CURVE SMOOTH",
"102 126 OFFCURVE",
"284 -5 OFFCURVE",
"574 -5 CURVE SMOOTH",
"684 -5 OFFCURVE",
"792 16 OFFCURVE",
"875 54 CURVE",
"801 13 OFFCURVE",
"693 -10 OFFCURVE",
"574 -10 CURVE SMOOTH",
"272 -10 OFFCURVE",
"95 124 OFFCURVE",
"95 350 CURVE SMOOTH",
"95 519 OFFCURVE",
"222 653 OFFCURVE",
"424 698 CURVE"
);
},
{
closed = 1;
nodes = (
"984 595 OFFCURVE",
"940 653 OFFCURVE",
"828 688 CURVE",
"903 671 OFFCURVE",
"955 647 OFFCURVE",
"997 614 CURVE",
"924 391 LINE",
"923 391 LINE",
"960 515 LINE SMOOTH"
);
}
);
width = 1095;
}
);
leftKerningGroup = OO;
leftMetricsKey = O;
rightKerningGroup = C;
rightMetricsKey = O;
unicode = 0043;
},
{
color = 4;
glyphname = D;
lastChange = "2022-08-05 06:04:53 +0000";
layers = (
{
background = {
paths = (
{
closed = 1;
nodes = (
"461 23 CURVE",
"527 77 OFFCURVE",
"557 202 OFFCURVE",
"557 377 CURVE SMOOTH",
"557 521 OFFCURVE",
"527 635 OFFCURVE",
"462 685 CURVE",
"635 676 OFFCURVE",
"763 563 OFFCURVE",
"763 361 CURVE SMOOTH",
"763 152 OFFCURVE",
"640 32 OFFCURVE"
);
}
);
};
layerId = "2660E96A-9963-4076-AFCB-E451BC6EE103";
paths = (
{
closed = 1;
nodes = (
"20 708 LINE",
"20 698 LINE",
"70 693 LINE",
"70 20 LINE",
"20 10 LINE",
"20 0 LINE",
"437 0 LINE SMOOTH",
"637 0 OFFCURVE",
"785 133 OFFCURVE",
"785 361 CURVE SMOOTH",
"785 584 OFFCURVE",
"630 708 OFFCURVE",
"437 708 CURVE SMOOTH"
);
},
{
closed = 1;
nodes = (
"483 692 OFFCURVE",
"535 566 OFFCURVE",
"535 377 CURVE SMOOTH",
"535 146 OFFCURVE",
"483 15 OFFCURVE",
"377 15 CURVE SMOOTH",
"335 15 LINE",
"315 35 LINE",
"315 689 LINE",
"334 691 OFFCURVE",
"360 692 OFFCURVE",
"377 692 CURVE SMOOTH"
);
},
{
closed = 1;
nodes = (
"90 688 LINE",
"295 688 LINE",
"295 20 LINE",
"90 20 LINE"
);
},
{
closed = 1;
nodes = (
"527 77 OFFCURVE",
"557 202 OFFCURVE",
"557 377 CURVE SMOOTH",
"557 521 OFFCURVE",
"527 635 OFFCURVE",
"462 685 CURVE",
"635 676 OFFCURVE",
"763 563 OFFCURVE",
"763 361 CURVE SMOOTH",
"763 152 OFFCURVE",
"640 32 OFFCURVE",
"461 23 CURVE"
);
}
);
width = 815;
},
{
layerId = "DF54607F-DD82-41E6-B2E3-81CA6D0E5C47";
paths = (
{
closed = 1;
nodes = (
"20 708 LINE",
"20 698 LINE",
"70 683 LINE",
"70 20 LINE",
"20 10 LINE",
"20 0 LINE",
"712 0 LINE SMOOTH",
"1110 0 OFFCURVE",
"1345 134 OFFCURVE",
"1345 361 CURVE SMOOTH",
"1345 579 OFFCURVE",
"1110 708 OFFCURVE",
"712 708 CURVE SMOOTH"
);
},
{
closed = 1;
nodes = (
"758 692 OFFCURVE",
"810 566 OFFCURVE",
"810 377 CURVE SMOOTH",
"810 146 OFFCURVE",
"758 15 OFFCURVE",
"652 15 CURVE SMOOTH",
"610 15 LINE",
"590 35 LINE",
"590 689 LINE",
"609 691 OFFCURVE",
"635 692 OFFCURVE",
"652 692 CURVE SMOOTH"
);
},
{
closed = 1;
nodes = (
"90 689 LINE",
"570 689 LINE",
"570 20 LINE",
"90 20 LINE"
);
},
{
closed = 1;
nodes = (
"802 77 OFFCURVE",
"832 202 OFFCURVE",
"832 377 CURVE SMOOTH",
"832 521 OFFCURVE",
"802 635 OFFCURVE",
"737 686 CURVE",
"1113 681 OFFCURVE",
"1323 562 OFFCURVE",
"1323 361 CURVE SMOOTH",
"1323 151 OFFCURVE",
"1113 27 OFFCURVE",
"736 22 CURVE"
);
}
);
width = 1375;
},
{
layerId = "A5088515-37FF-452F-BD44-18A7A5EF88F0";
paths = (
{
closed = 1;
nodes = (
"80 708 LINE",
"80 698 LINE",
"150 683 LINE",
"150 25 LINE",
"80 10 LINE",
"80 0 LINE",
"351 0 LINE",
"556 0 OFFCURVE",
"656 117 OFFCURVE",
"656 357 CURVE SMOOTH",
"656 593 OFFCURVE",
"554 708 OFFCURVE",
"346 708 CURVE"
);
},
{
closed = 1;
nodes = (
"544 692 OFFCURVE",
"641 582 OFFCURVE",
"641 357 CURVE SMOOTH",
"641 127 OFFCURVE",
"546 15 OFFCURVE",
"351 15 CURVE",
"185 15 LINE",
"165 35 LINE",
"165 683 LINE",
"194 691 OFFCURVE",
"247 692 OFFCURVE",
"346 692 CURVE"
);
},
{
closed = 1;
nodes = (
"155 703 LINE",
"160 703 LINE",
"160 5 LINE",
"155 5 LINE"
);
},
{
closed = 1;
nodes = (
"593 78 OFFCURVE",
"646 186 OFFCURVE",
"646 357 CURVE SMOOTH",
"646 522 OFFCURVE",
"594 628 OFFCURVE",
"490 677 CURVE",
"598 629 OFFCURVE",
"652 523 OFFCURVE",
"652 357 CURVE SMOOTH",
"652 185 OFFCURVE",
"597 77 OFFCURVE",
"487 31 CURVE"
);
}
);
width = 736;
},
{
layerId = "35A90D60-3AD4-435C-9F8B-D1CA483F6F66";
paths = (
{
closed = 1;
nodes = (
"100 708 LINE",
"100 698 LINE",
"209 683 LINE",
"209 25 LINE",
"100 10 LINE",
"100 0 LINE",
"535 0 LINE",
"879 0 OFFCURVE",
"1037 117 OFFCURVE",
"1037 357 CURVE SMOOTH",
"1037 593 OFFCURVE",
"876 708 OFFCURVE",
"527 708 CURVE"
);
},
{
closed = 1;
nodes = (
"859 692 OFFCURVE",
"1022 582 OFFCURVE",
"1022 357 CURVE SMOOTH",
"1022 127 OFFCURVE",
"862 15 OFFCURVE",
"535 15 CURVE",
"257 15 LINE",
"224 35 LINE",
"224 683 LINE",
"272 691 OFFCURVE",
"361 692 OFFCURVE",
"527 692 CURVE"
);
},
{
closed = 1;
nodes = (
"214 703 LINE",
"219 703 LINE",
"219 5 LINE",
"214 5 LINE"
);
},
{
closed = 1;
nodes = (
"938 74 OFFCURVE",
"1027 182 OFFCURVE",
"1027 358 CURVE SMOOTH",
"1027 528 OFFCURVE",
"939 634 OFFCURVE",
"760 677 CURVE",
"942 635 OFFCURVE",
"1032 529 OFFCURVE",
"1032 358 CURVE SMOOTH",
"1032 179 OFFCURVE",
"942 71 OFFCURVE",
"759 31 CURVE"
);
}
);
width = 1127;
}
);
leftKerningGroup = HH;
leftMetricsKey = H;
rightKerningGroup = O;
rightMetricsKey = O;
unicode = 0044;
},
{
color = 3;
glyphname = Eth;
lastChange = "2022-08-05 06:04:53 +0000";
layers = (
{
components = (
{
name = D;
}
);
hints = (
{
horizontal = 1;
place = "{34535, 100}";
type = Stem;
},
{
horizontal = 1;
place = "{366.355, 0}";
type = Stem;
}
);
layerId = "2660E96A-9963-4076-AFCB-E451BC6EE103";
paths = (
{
closed = 1;
nodes = (
"24 350 LINE",
"387 350 LINE",
"387 365 LINE",
"24 365 LINE"
);
}
);
width = 815;
},
{
components = (
{
name = D;
}
);
hints = (
{
horizontal = 1;
place = "{34535, 100}";
type = Stem;
},
{
horizontal = 1;
place = "{366.355, 0}";
type = Stem;
}
);
layerId = "DF54607F-DD82-41E6-B2E3-81CA6D0E5C47";
paths = (
{
closed = 1;
nodes = (
"24 350 LINE",
"666 350 LINE",
"666 365 LINE",
"24 365 LINE"
);
}
);
width = 1375;
},
{
components = (
{
name = D;
}
);
hints = (
{
horizontal = 1;
place = "{34535, 100}";
type = Stem;
},
{
horizontal = 1;
place = "{366.355, 0}";
type = Stem;
}
);
layerId = "A5088515-37FF-452F-BD44-18A7A5EF88F0";
paths = (
{
closed = 1;
nodes = (
"100 350 LINE",
"357 350 LINE",
"357 365 LINE",
"100 365 LINE"
);
}
);
width = 736;
},
{
components = (
{
name = D;
}
);
hints = (
{
horizontal = 1;
place = "{34535, 100}";
type = Stem;
},
{
horizontal = 1;
place = "{366.355, 0}";
type = Stem;
}
);
layerId = "35A90D60-3AD4-435C-9F8B-D1CA483F6F66";
paths = (
{
closed = 1;
nodes = (
"100 350 LINE",
"530 350 LINE",
"530 365 LINE",
"100 365 LINE"
);
}
);
width = 1127;
}
);
leftKerningGroup = HH;
leftMetricsKey = D;
rightKerningGroup = O;
rightMetricsKey = D;
unicode = 00D0;
},
{
color = 4;
glyphname = E;
lastChange = "2022-08-05 06:04:53 +0000";
layers = (
{
layerId = "2660E96A-9963-4076-AFCB-E451BC6EE103";
paths = (
{
closed = 1;
nodes = (
"652 0 LINE",
"617 284 LINE",
"607 284 LINE",
"538 138 LINE SMOOTH",
"502 62 OFFCURVE",
"442 17 OFFCURVE",
"397 16 CURVE SMOOTH",
"315 15 LINE",
"315 356 LINE",
"325 356 LINE",
"471 246 LINE",
"481 246 LINE",
"481 506 LINE",
"471 506 LINE",
"465 485 OFFCURVE",
"442 438 OFFCURVE",
"408 404 CURVE SMOOTH",
"387 383 OFFCURVE",
"363 366 OFFCURVE",
"335 366 CURVE SMOOTH",
"315 366 LINE",
"315 693 LINE",
"397 692 LINE SMOOTH",
"429 692 OFFCURVE",
"479 659 OFFCURVE",
"512 598 CURVE SMOOTH",
"607 424 LINE",
"617 424 LINE",
"652 708 LINE",
"20 708 LINE",
"20 698 LINE",
"70 683 LINE",
"70 25 LINE",
"20 10 LINE",
"20 0 LINE"
);
},
{
closed = 1;
nodes = (
"90 688 LINE",
"295 688 LINE",
"295 20 LINE",
"90 20 LINE"
);
},
{
closed = 1;
nodes = (
"403 362 OFFCURVE",
"428 384 OFFCURVE",
"459 433 CURVE",
"459 282 LINE",
"368 351 LINE"
);
},
{
closed = 1;
nodes = (
"506 43 OFFCURVE",
"532 76 OFFCURVE",
"558 129 CURVE SMOOTH",
"603 223 LINE",
"627 20 LINE",
"473 20 LINE"
);
},
{
closed = 1;
nodes = (
"531 609 LINE SMOOTH",
"510 648 OFFCURVE",
"492 669 OFFCURVE",
"467 688 CURVE",
"627 688 LINE",
"602 479 LINE"
);
}
);
width = 702;
},
{
layerId = "DF54607F-DD82-41E6-B2E3-81CA6D0E5C47";
paths = (
{
closed = 1;
nodes = (
"1286 0 LINE",
"1212 284 LINE",
"1202 284 LINE",
"1054 140 LINE SMOOTH",
"967 55 OFFCURVE",
"853 17 OFFCURVE",
"745 16 CURVE SMOOTH",
"590 15 LINE",
"590 356 LINE",
"602 356 LINE",
"913 246 LINE",
"923 246 LINE",
"923 506 LINE",
"913 506 LINE",
"901 488 OFFCURVE",
"856 449 OFFCURVE",
"795 416 CURVE SMOOTH",
"745 390 OFFCURVE",
"685 366 OFFCURVE",
"623 366 CURVE SMOOTH",
"590 366 LINE",
"590 693 LINE",
"745 692 LINE SMOOTH",
"833 691 OFFCURVE",
"935 657 OFFCURVE",
"1025 579 CURVE SMOOTH",
"1202 424 LINE",
"1212 424 LINE",
"1286 708 LINE",
"20 708 LINE",
"20 698 LINE",
"70 688 LINE",
"70 20 LINE",
"20 10 LINE",
"20 0 LINE"
);
},
{
closed = 1;
nodes = (
"90 688 LINE",
"570 688 LINE",
"570 20 LINE",
"90 20 LINE"
);
},
{
closed = 1;
nodes = (
"773 372 OFFCURVE",
"828 399 OFFCURVE",
"901 462 CURVE",
"901 274 LINE",
"681 351 LINE"
);
},
{
closed = 1;
nodes = (
"957 39 OFFCURVE",
"1017 73 OFFCURVE",
"1069 124 CURVE SMOOTH",
"1198 250 LINE",
"1258 20 LINE",
"886 20 LINE"
);
},
{
closed = 1;
nodes = (
"1039 596 LINE SMOOTH",
"987 642 OFFCURVE",
"931 672 OFFCURVE",
"871 688 CURVE",
"1258 688 LINE",
"1198 457 LINE"
);
}
);
width = 1336;
},
{
layerId = "A5088515-37FF-452F-BD44-18A7A5EF88F0";
paths = (
{
closed = 1;
nodes = (
"592 0 LINE",
"558 243 LINE",
"543 243 LINE",
"565 83 LINE SMOOTH",
"572 32 OFFCURVE",
"560 15 OFFCURVE",
"515 15 CURVE SMOOTH",
"165 15 LINE",
"165 353 LINE",
"385 353 LINE",
"391 256 LINE",
"401 256 LINE",
"401 498 LINE",
"391 498 LINE",
"391 433 OFFCURVE",
"388 395 OFFCURVE",
"382 385 CURVE SMOOTH",
"376 374 OFFCURVE",
"366 368 OFFCURVE",
"354 368 CURVE SMOOTH",
"165 368 LINE",
"165 693 LINE",
"498 693 LINE SMOOTH",
"548 693 OFFCURVE",
"564 679 OFFCURVE",
"559 635 CURVE SMOOTH",
"543 484 LINE",
"558 484 LINE",
"592 708 LINE",
"80 708 LINE",
"80 698 LINE",
"150 683 LINE",
"150 25 LINE",
"80 10 LINE",
"80 0 LINE"
);
},
{
closed = 1;
nodes = (
"155 703 LINE",
"160 703 LINE",
"160 5 LINE",
"155 5 LINE"
);
},
{
closed = 1;
nodes = (
"391 369 OFFCURVE",
"393 379 OFFCURVE",
"394 388 CURVE",
"394 288 LINE",
"390 360 LINE"
);
},
{
closed = 1;
nodes = (
"565 8 OFFCURVE",
"580 29 OFFCURVE",
"572 84 CURVE SMOOTH",
"551 236 LINE",
"584 7 LINE",
"515 7 LINE"
);
},
{
closed = 1;
nodes = (
"566 634 LINE SMOOTH",
"571 683 OFFCURVE",
"552 700 OFFCURVE",
"498 701 CURVE",
"584 701 LINE",
"552 491 LINE"
);
}
);
width = 667;
},
{
background = {
paths = (
{
closed = 1;
nodes = (
"600 376 OFFCURVE",
"602 392 OFFCURVE",
"603 408 CURVE",
"603 288 LINE",
"599 360 LINE"
);
}
);
};
layerId = "35A90D60-3AD4-435C-9F8B-D1CA483F6F66";
paths = (
{
closed = 1;
nodes = (
"941 0 LINE",
"907 243 LINE",
"892 243 LINE",
"913 91 LINE SMOOTH",
"921 34 OFFCURVE",
"909 15 OFFCURVE",
"864 15 CURVE SMOOTH",
"224 15 LINE",
"224 353 LINE",
"594 353 LINE",
"600 256 LINE",
"610 256 LINE",
"610 498 LINE",
"600 498 LINE",
"600 434 OFFCURVE",
"596 392 OFFCURVE",
"589 381 CURVE SMOOTH",
"585 373 OFFCURVE",
"575 368 OFFCURVE",
"563 368 CURVE SMOOTH",
"224 368 LINE",
"224 693 LINE",
"847 693 LINE SMOOTH",
"899 693 OFFCURVE",
"915 676 OFFCURVE",
"909 625 CURVE SMOOTH",
"892 484 LINE",
"907 484 LINE",
"941 708 LINE",
"100 708 LINE",
"100 698 LINE",
"209 683 LINE",
"209 25 LINE",
"100 10 LINE",
"100 0 LINE"
);
},
{
closed = 1;
nodes = (
"214 703 LINE",
"219 703 LINE",
"219 5 LINE",
"214 5 LINE"
);
},
{
closed = 1;
nodes = (
"600 369 OFFCURVE",
"602 379 OFFCURVE",
"603 388 CURVE",
"603 288 LINE",
"599 360 LINE"
);
},
{
closed = 1;
nodes = (
"914 8 OFFCURVE",
"928 31 OFFCURVE",
"920 92 CURVE SMOOTH",
"901 236 LINE",
"933 7 LINE",
"864 7 LINE"
);
},
{
closed = 1;
nodes = (
"916 624 LINE SMOOTH",
"922 679 OFFCURVE",
"903 700 OFFCURVE",
"847 701 CURVE",
"933 701 LINE",
"901 491 LINE"
);
}
);
width = 1056;
}
);
leftKerningGroup = HH;
leftMetricsKey = H;
rightKerningGroup = E;
unicode = 0045;
},
{
color = 4;
glyphname = F;
lastChange = "2022-08-05 06:04:53 +0000";
layers = (
{
background = {
paths = (
{
closed = 1;
nodes = (
"40 -5 LINE",
"90 10 LINE",
"90 688 LINE",
"295 688 LINE",
"295 20 LINE",
"40 20 LINE"
);
},
{
closed = 1;
nodes = (
"90 688 LINE",
"90 698 LINE",
"40 713 LINE",
"40 688 LINE"
);
},
{
closed = 1;
nodes = (
"345 -6 LINE",
"345 20 LINE",
"295 20 LINE",
"295 4 LINE"
);
},
{
closed = 1;
nodes = (
"629 688 LINE",
"603 474 LINE",
"530 608 LINE SMOOTH",
"511 643 OFFCURVE",
"486 670 OFFCURVE",
"461 688 CURVE SMOOTH",
"439 704 OFFCURVE",
"416 712 OFFCURVE",
"397 712 CURVE SMOOTH",
"295 713 LINE",
"295 688 LINE"
);
},
{
closed = 1;
nodes = (
"387 359 OFFCURVE",
"406 374 OFFCURVE",
"422 390 CURVE SMOOTH",
"440 408 OFFCURVE",
"457 429 OFFCURVE",
"471 448 CURVE",
"471 277 LINE",
"366 351 LINE"
);
},
{
closed = 1;
nodes = (
"619 444 LINE",
"603 474 LINE",
"599 444 LINE"
);
}
);
};
layerId = "2660E96A-9963-4076-AFCB-E451BC6EE103";
paths = (
{
closed = 1;
nodes = (
"365 0 LINE",
"365 10 LINE",
"315 20 LINE",
"315 356 LINE",
"325 356 LINE",
"481 246 LINE",
"491 246 LINE",
"491 506 LINE",
"481 506 LINE",
"475 485 OFFCURVE",
"442 438 OFFCURVE",
"408 404 CURVE SMOOTH",
"387 383 OFFCURVE",
"363 366 OFFCURVE",
"335 366 CURVE SMOOTH",
"315 366 LINE",
"315 693 LINE",
"397 692 LINE SMOOTH",
"429 692 OFFCURVE",
"479 659 OFFCURVE",
"512 598 CURVE SMOOTH",
"607 424 LINE",
"617 424 LINE",
"652 708 LINE",
"20 708 LINE",
"20 698 LINE",
"70 683 LINE",
"70 25 LINE",
"20 10 LINE",
"20 0 LINE"
);
},
{
closed = 1;
nodes = (
"90 688 LINE",
"295 688 LINE",
"295 20 LINE",
"90 20 LINE"
);
},
{
closed = 1;
nodes = (
"408 367 OFFCURVE",
"446 414 OFFCURVE",
"471 448 CURVE",
"471 277 LINE",
"366 351 LINE"
);
},
{
closed = 1;
nodes = (
"531 609 LINE SMOOTH",
"510 648 OFFCURVE",
"492 669 OFFCURVE",
"467 688 CURVE",
"627 688 LINE",
"602 479 LINE"
);
}
);
width = 652;
},
{
background = {
paths = (
{
closed = 1;
nodes = (
"40 -6 LINE",
"90 4 LINE",
"90 688 LINE",
"570 688 LINE",
"570 20 LINE",
"40 20 LINE"
);
},
{
closed = 1;
nodes = (
"90 688 LINE",
"90 704 LINE",
"40 714 LINE",
"40 688 LINE"
);
},
{
closed = 1;
nodes = (
"610 -6 LINE",
"610 20 LINE",
"570 20 LINE",
"570 4 LINE"
);
},
{
closed = 1;
nodes = (
"1260 688 LINE",
"1199 453 LINE",
"1038 594 LINE SMOOTH",
"987 638 OFFCURVE",
"932 669 OFFCURVE",
"877 688 CURVE SMOOTH",
"832 704 OFFCURVE",
"787 712 OFFCURVE",
"745 712 CURVE SMOOTH",
"570 713 LINE",
"570 688 LINE"
);
},
{
closed = 1;
nodes = (
"718 361 OFFCURVE",
"762 378 OFFCURVE",
"801 397 CURVE SMOOTH",
"851 421 OFFCURVE",
"895 449 OFFCURVE",
"923 470 CURVE",
"923 270 LINE",
"677 352 LINE"
);
},
{
closed = 1;
nodes = (
"1210 444 LINE",
"1199 453 LINE",
"1197 444 LINE"
);
}
);
};
layerId = "DF54607F-DD82-41E6-B2E3-81CA6D0E5C47";
paths = (
{
closed = 1;
nodes = (
"630 0 LINE",
"630 10 LINE",
"590 20 LINE",
"590 356 LINE",
"602 356 LINE",
"933 246 LINE",
"943 246 LINE",
"943 506 LINE",
"933 506 LINE",
"923 492 OFFCURVE",
"864 450 OFFCURVE",
"792 415 CURVE SMOOTH",
"737 388 OFFCURVE",
"674 366 OFFCURVE",
"623 366 CURVE SMOOTH",
"590 366 LINE",
"590 693 LINE",
"745 692 LINE SMOOTH",
"833 691 OFFCURVE",
"935 657 OFFCURVE",
"1025 579 CURVE SMOOTH",
"1202 424 LINE",
"1212 424 LINE",
"1286 708 LINE",
"20 708 LINE",
"20 698 LINE",
"70 688 LINE",
"70 20 LINE",
"20 10 LINE",
"20 0 LINE"
);
},
{
closed = 1;
nodes = (
"90 688 LINE",
"570 688 LINE",
"570 20 LINE",
"90 20 LINE"
);
},
{
closed = 1;
nodes = (
"757 369 OFFCURVE",
"858 421 OFFCURVE",
"923 470 CURVE",
"923 270 LINE",
"677 352 LINE"
);
},
{
closed = 1;
nodes = (
"1039 596 LINE SMOOTH",
"987 642 OFFCURVE",
"931 672 OFFCURVE",
"871 688 CURVE",
"1258 688 LINE",
"1198 457 LINE"
);
}
);
width = 1276;
},
{
background = {
paths = (
{
closed = 1;
nodes = (
"235 0 LINE",
"235 10 LINE",
"165 25 LINE",
"165 353 LINE",
"385 353 LINE",
"391 254 LINE",
"401 254 LINE",
"401 499 LINE",
"391 499 LINE",
"391 435 OFFCURVE",
"388 397 OFFCURVE",
"382 385 CURVE SMOOTH",
"377 374 OFFCURVE",
"368 368 OFFCURVE",
"354 368 CURVE",
"165 368 LINE",
"165 693 LINE",
"498 693 LINE",
"544 693 OFFCURVE",
"560 683 OFFCURVE",
"561 652 CURVE SMOOTH",
"563 629 OFFCURVE",
"556 569 OFFCURVE",
"543 484 CURVE",
"558 484 LINE",
"592 708 LINE",
"80 708 LINE",
"80 698 LINE",
"150 683 LINE",
"150 25 LINE",
"80 10 LINE",
"80 0 LINE"
);
},
{
closed = 1;
nodes = (
"155 703 LINE",
"160 703 LINE",
"160 5 LINE",
"155 5 LINE"
);
},
{
closed = 1;
nodes = (
"391 369 OFFCURVE",
"393 379 OFFCURVE",
"394 388 CURVE",
"394 288 LINE",
"390 360 LINE"
);
},
{
closed = 1;
nodes = (
"567 634 LINE SMOOTH",
"572 683 OFFCURVE",
"553 700 OFFCURVE",
"499 701 CURVE",
"585 701 LINE",
"553 491 LINE"
);
}
);
};
layerId = "A5088515-37FF-452F-BD44-18A7A5EF88F0";
paths = (
{
closed = 1;
nodes = (
"235 0 LINE",
"235 10 LINE",
"165 25 LINE",
"165 353 LINE",
"405 353 LINE",
"411 256 LINE",
"421 256 LINE",
"421 498 LINE",
"411 498 LINE",
"411 433 OFFCURVE",
"408 395 OFFCURVE",
"402 385 CURVE SMOOTH",
"396 374 OFFCURVE",
"386 368 OFFCURVE",
"374 368 CURVE SMOOTH",
"165 368 LINE",
"165 693 LINE",
"498 693 LINE SMOOTH",
"548 693 OFFCURVE",
"564 679 OFFCURVE",
"559 635 CURVE SMOOTH",
"543 484 LINE",
"558 484 LINE",
"592 708 LINE",
"80 708 LINE",
"80 698 LINE",
"150 683 LINE",
"150 25 LINE",
"80 10 LINE",
"80 0 LINE"
);
},
{
closed = 1;
nodes = (
"155 703 LINE",
"160 703 LINE",
"160 5 LINE",
"155 5 LINE"
);
},
{
closed = 1;
nodes = (
"411 369 OFFCURVE",
"413 379 OFFCURVE",
"414 388 CURVE",
"414 288 LINE",
"410 360 LINE"
);
},
{
closed = 1;
nodes = (
"566 634 LINE SMOOTH",
"571 683 OFFCURVE",
"552 700 OFFCURVE",
"498 701 CURVE",
"584 701 LINE",
"552 491 LINE"
);
}
);
width = 598;
},
{
background = {
paths = (
{
closed = 1;
nodes = (
"342 0 LINE",
"342 10 LINE",
"224 25 LINE",
"224 353 LINE",
"594 353 LINE",
"600 254 LINE",
"610 254 LINE",
"610 499 LINE",
"600 499 LINE",
"600 434 OFFCURVE",
"596 392 OFFCURVE",
"589 381 CURVE SMOOTH",
"583 373 OFFCURVE",
"574 368 OFFCURVE",
"563 368 CURVE SMOOTH",
"224 368 LINE",
"224 693 LINE",
"809 693 LINE SMOOTH",
"848 693 OFFCURVE",
"871 679 OFFCURVE",
"872 654 CURVE SMOOTH",
"874 624 OFFCURVE",
"868 568 OFFCURVE",
"854 484 CURVE",
"869 484 LINE",
"903 708 LINE",
"100 708 LINE",
"100 698 LINE",
"209 683 LINE",
"209 25 LINE",
"100 10 LINE",
"100 0 LINE"
);
},
{
closed = 1;
nodes = (
"214 703 LINE",
"219 703 LINE",
"219 5 LINE",
"214 5 LINE"
);
},
{
closed = 1;
nodes = (
"600 369 OFFCURVE",
"602 379 OFFCURVE",
"603 388 CURVE",
"603 288 LINE",
"599 360 LINE"
);
},
{
closed = 1;
nodes = (
"878 624 LINE SMOOTH",
"884 679 OFFCURVE",
"865 700 OFFCURVE",
"809 701 CURVE",
"895 701 LINE",
"863 491 LINE"
);
}
);
};
layerId = "35A90D60-3AD4-435C-9F8B-D1CA483F6F66";
paths = (
{
closed = 1;
nodes = (
"342 0 LINE",
"342 10 LINE",
"224 25 LINE",
"224 353 LINE",
"614 353 LINE",
"620 256 LINE",
"630 256 LINE",
"630 498 LINE",
"620 498 LINE",
"620 434 OFFCURVE",
"616 392 OFFCURVE",
"609 381 CURVE SMOOTH",
"605 373 OFFCURVE",
"595 368 OFFCURVE",
"583 368 CURVE SMOOTH",
"224 368 LINE",
"224 693 LINE",
"847 693 LINE SMOOTH",
"899 693 OFFCURVE",
"915 676 OFFCURVE",
"909 625 CURVE SMOOTH",
"892 484 LINE",
"907 484 LINE",
"941 708 LINE",
"100 708 LINE",
"100 698 LINE",
"209 683 LINE",
"209 25 LINE",
"100 10 LINE",
"100 0 LINE"
);
},
{
closed = 1;
nodes = (
"214 703 LINE",
"219 703 LINE",
"219 5 LINE",
"214 5 LINE"
);
},
{
closed = 1;
nodes = (
"620 369 OFFCURVE",
"622 379 OFFCURVE",
"623 388 CURVE",
"623 288 LINE",
"619 360 LINE"
);
},
{
closed = 1;
nodes = (
"916 624 LINE SMOOTH",
"922 679 OFFCURVE",
"903 700 OFFCURVE",
"847 701 CURVE",
"933 701 LINE",
"901 491 LINE"
);
}
);
width = 996;
}
);
leftKerningGroup = HH;
leftMetricsKey = H;
rightKerningGroup = F;
unicode = 0046;
},
{
color = 4;
glyphname = G;
lastChange = "2022-08-05 06:04:53 +0000";
layers = (
{
layerId = "2660E96A-9963-4076-AFCB-E451BC6EE103";
paths = (
{
closed = 1;
nodes = (
"509 -14 OFFCURVE",
"648 21 OFFCURVE",
"730 127 CURVE",
"730 306 LINE",
"365 306 LINE",
"365 296 LINE",
"485 271 LINE",
"485 0 LINE",
"483 0 OFFCURVE",
"481 0 OFFCURVE",
"478 0 CURVE SMOOTH",
"320 0 OFFCURVE",
"272 294 OFFCURVE",
"272 428 CURVE SMOOTH",
"272 574 OFFCURVE",
"309 711 OFFCURVE",
"374 711 CURVE SMOOTH",
"441 711 OFFCURVE",
"486 666 OFFCURVE",
"561 509 CURVE SMOOTH",
"621 384 LINE",
"641 384 LINE",
"701 660 LINE",
"644 685 OFFCURVE",
"535 723 OFFCURVE",
"425 723 CURVE SMOOTH",
"178 723 OFFCURVE",
"30 584 OFFCURVE",
"30 352 CURVE SMOOTH",
"30 120 OFFCURVE",
"198 -17 OFFCURVE",
"403 -15 CURVE SMOOTH"
);
},
{
closed = 1;
nodes = (
"202 4 OFFCURVE",
"50 131 OFFCURVE",
"50 352 CURVE SMOOTH",
"50 535 OFFCURVE",
"142 655 OFFCURVE",
"309 691 CURVE",
"273 656 OFFCURVE",
"251 541 OFFCURVE",
"252 428 CURVE SMOOTH",
"252 228 OFFCURVE",
"315 52 OFFCURVE",
"405 1 CURVE"
);
},
{
closed = 1;
nodes = (
"505 287 LINE",
"710 286 LINE",
"710 134 LINE",
"662 74 OFFCURVE",
"594 35 OFFCURVE",
"505 16.437 CURVE"
);
},
{
closed = 1;
nodes = (
"588 501 LINE SMOOTH",
"545 594 OFFCURVE",
"491 683 OFFCURVE",
"456 702 CURVE",
"540 697 OFFCURVE",
"624 670 OFFCURVE",
"678 648 CURVE",
"628 415 LINE"
);
}
);
width = 760;
},
{
layerId = "DF54607F-DD82-41E6-B2E3-81CA6D0E5C47";
paths = (
{
closed = 1;
nodes = (
"1022 -14 OFFCURVE",
"1322 21 OFFCURVE",
"1492 127 CURVE",
"1492 306 LINE",
"724 306 LINE",
"724 296 LINE",
"972 271 LINE",
"972 0 LINE",
"965 0 OFFCURVE",
"958 0 OFFCURVE",
"951 0 CURVE SMOOTH",
"630 0 OFFCURVE",
"562 275 OFFCURVE",
"562 408 CURVE",
"560 554 OFFCURVE",
"608 711 OFFCURVE",
"743 711 CURVE SMOOTH",
"881 711 OFFCURVE",
"970 668 OFFCURVE",
"1120 518 CURVE SMOOTH",
"1254 384 LINE",
"1296 384 LINE",
"1460 660 LINE",
"1342 685 OFFCURVE",
"1076 723 OFFCURVE",
"848 723 CURVE SMOOTH",
"337 723 OFFCURVE",
"30 584 OFFCURVE",
"30 352 CURVE SMOOTH",
"30 120 OFFCURVE",
"378 -17 OFFCURVE",
"803 -15 CURVE SMOOTH"
);
},
{
closed = 1;
nodes = (
"359 4 OFFCURVE",
"52 148 OFFCURVE",
"52 352 CURVE SMOOTH",
"52 537 OFFCURVE",
"260 659 OFFCURVE",
"632 692 CURVE",
"564 631 OFFCURVE",
"539 514 OFFCURVE",
"540 408 CURVE SMOOTH",
"540 220 OFFCURVE",
"639 64 OFFCURVE",
"796 4 CURVE"
);
},
{
closed = 1;
nodes = (
"994 284 LINE",
"1470 284 LINE",
"1470 139 LINE",
"1366 79 OFFCURVE",
"1196 34 OFFCURVE",
"994 15 CURVE"
);
},
{
closed = 1;
nodes = (
"1139 536 LINE SMOOTH",
"1055 622 OFFCURVE",
"1000 662 OFFCURVE",
"926 701 CURVE",
"1095 696 OFFCURVE",
"1308 667 OFFCURVE",
"1425 645 CURVE",
"1274 398 LINE"
);
}
);
width = 1522;
},
{
layerId = "A5088515-37FF-452F-BD44-18A7A5EF88F0";
paths = (
{
closed = 1;
nodes = (
"467 -15 OFFCURVE",
"557 9 OFFCURVE",
"623 47 CURVE",
"623 306 LINE",
"498 306 LINE",
"498 296 LINE",
"608 281 LINE",
"608 48 LINE",
"529 15 OFFCURVE",
"457 0 OFFCURVE",
"394 0 CURVE SMOOTH",
"209 0 OFFCURVE",
"96 135 OFFCURVE",
"95 370 CURVE SMOOTH",
"94 568 OFFCURVE",
"211 708 OFFCURVE",
"378 708 CURVE SMOOTH",
"531 708 OFFCURVE",
"635 646 OFFCURVE",
"612 505 CURVE SMOOTH",
"592 384 LINE",
"608 384 LINE",
"655 616 LINE",
"580 687 OFFCURVE",
"498 723 OFFCURVE",
"378 723 CURVE SMOOTH",
"203 723 OFFCURVE",
"80 577 OFFCURVE",
"80 370 CURVE SMOOTH",
"80 128 OFFCURVE",
"195 -15 OFFCURVE",
"389 -15 CURVE SMOOTH"
);
},
{
closed = 1;
nodes = (
"167 35 OFFCURVE",
"85 165 OFFCURVE",
"85 370 CURVE SMOOTH",
"85 517 OFFCURVE",
"148 632 OFFCURVE",
"247 683 CURVE",
"150 630 OFFCURVE",
"89 515 OFFCURVE",
"90 370 CURVE SMOOTH",
"91 168 OFFCURVE",
"173 38 OFFCURVE",
"313 2 CURVE"
);
},
{
closed = 1;
nodes = (
"613 301 LINE",
"618 301 LINE",
"618 51 LINE",
"616 50 OFFCURVE",
"615 50 OFFCURVE",
"613 49 CURVE"
);
},
{
closed = 1;
nodes = (
"621 505 LINE SMOOTH",
"637 601 OFFCURVE",
"594 670 OFFCURVE",
"500 699 CURVE",
"556 683 OFFCURVE",
"603 655 OFFCURVE",
"647 614 CURVE",
"603 394 LINE"
);
}
);
width = 735;
},
{
layerId = "35A90D60-3AD4-435C-9F8B-D1CA483F6F66";
paths = (
{
closed = 1;
nodes = (
"719 -15 OFFCURVE",
"842 6 OFFCURVE",
"954 47 CURVE",
"954 306 LINE",
"755 306 LINE",
"755 296 LINE",
"939 281 LINE",
"939 48 LINE",
"814 15 OFFCURVE",
"699 0 OFFCURVE",
"597 0 CURVE SMOOTH",
"297 0 OFFCURVE",
"106 134 OFFCURVE",
"105 370 CURVE SMOOTH",
"103 568 OFFCURVE",
"298 708 OFFCURVE",
"564 708 CURVE SMOOTH",
"794 708 OFFCURVE",
"978 636 OFFCURVE",
"954 542 CURVE SMOOTH",
"914 384 LINE",
"930 384 LINE",
"1005 616 LINE",
"886 687 OFFCURVE",
"755 723 OFFCURVE",
"564 723 CURVE SMOOTH",
"286 723 OFFCURVE",
"90 577 OFFCURVE",
"90 370 CURVE SMOOTH",
"90 128 OFFCURVE",
"273 -15 OFFCURVE",
"582 -15 CURVE SMOOTH"
);
},
{
closed = 1;
nodes = (
"223 38 OFFCURVE",
"95 168 OFFCURVE",
"95 370 CURVE SMOOTH",
"95 515 OFFCURVE",
"194 630 OFFCURVE",
"352 682 CURVE",
"197 627 OFFCURVE",
"98 514 OFFCURVE",
"100 370 CURVE SMOOTH",
"101 169 OFFCURVE",
"236 41 OFFCURVE",
"457 3 CURVE"
);
},
{
closed = 1;
nodes = (
"944 301 LINE",
"949 301 LINE",
"949 51 LINE",
"947 50 OFFCURVE",
"946 50 OFFCURVE",
"944 49 CURVE"
);
},
{
closed = 1;
nodes = (
"964 542 LINE SMOOTH",
"983 614 OFFCURVE",
"885 677 OFFCURVE",
"709 707 CURVE",
"824 693 OFFCURVE",
"913 661 OFFCURVE",
"997 613 CURVE",
"924 391 LINE"
);
}
);
width = 1095;
}
);
leftKerningGroup = OO;
leftMetricsKey = O;
rightKerningGroup = G;
rightMetricsKey = O;
unicode = 0047;
},
{
color = 4;
glyphname = H;
lastChange = "2022-08-05 06:04:53 +0000";
layers = (
{
layerId = "2660E96A-9963-4076-AFCB-E451BC6EE103";
paths = (
{
closed = 1;
nodes = (
"495 708 LINE",
"495 698 LINE",
"535 688 LINE",
"535 20 LINE",
"495 10 LINE",
"495 0 LINE",
"830 0 LINE",
"830 10 LINE",
"780 20 LINE",
"780 688 LINE",
"830 698 LINE",
"830 708 LINE"
);
},
{
closed = 1;
nodes = (
"20 708 LINE",
"20 698 LINE",
"70 688 LINE",
"70 20 LINE",
"20 10 LINE",
"20 0 LINE",
"355 0 LINE",
"355 10 LINE",
"315 20 LINE",
"315 688 LINE",
"355 698 LINE",
"355 708 LINE"
);
},
{
closed = 1;
nodes = (
"303 340 LINE",
"303 330 LINE",
"545 330 LINE",
"545 360 LINE"
);
},
{
closed = 1;
nodes = (
"90 688 LINE",
"295 688 LINE",
"295 20 LINE",
"90 20 LINE"
);
},
{
closed = 1;
nodes = (
"555 688 LINE",
"760 688 LINE",
"760 20 LINE",
"555 20 LINE"
);
},
{
closed = 1;
nodes = (
"535 341 LINE",
"443 341 LINE",
"535 348 LINE"
);
}
);
width = 850;
},
{
layerId = "DF54607F-DD82-41E6-B2E3-81CA6D0E5C47";
paths = (
{
closed = 1;
nodes = (
"770 708 LINE",
"770 698 LINE",
"810 688 LINE",
"810 20 LINE",
"770 10 LINE",
"770 0 LINE",
"1380 0 LINE",
"1380 10 LINE",
"1330 20 LINE",
"1330 688 LINE",
"1380 698 LINE",
"1380 708 LINE"
);
},
{
closed = 1;
nodes = (
"20 708 LINE",
"20 698 LINE",
"70 688 LINE",
"70 20 LINE",
"20 10 LINE",
"20 0 LINE",
"630 0 LINE",
"630 10 LINE",
"590 20 LINE",
"590 688 LINE",
"630 698 LINE",
"630 708 LINE"
);
},
{
closed = 1;
nodes = (
"578 340 LINE",
"578 330 LINE",
"820 330 LINE",
"820 360 LINE"
);
},
{
closed = 1;
nodes = (
"90 688 LINE",
"570 688 LINE",
"570 20 LINE",
"90 20 LINE"
);
},
{
closed = 1;
nodes = (
"830 688 LINE",
"1310 688 LINE",
"1310 20 LINE",
"830 20 LINE"
);
},
{
closed = 1;
nodes = (
"810 341 LINE",
"718 341 LINE",
"810 348 LINE"
);
}
);
width = 1400;
},
{
layerId = "A5088515-37FF-452F-BD44-18A7A5EF88F0";
paths = (
{
closed = 1;
nodes = (
"545 708 LINE",
"545 698 LINE",
"615 683 LINE",
"615 25 LINE",
"545 10 LINE",
"545 0 LINE",
"700 0 LINE",
"700 10 LINE",
"630 25 LINE",
"630 683 LINE",
"700 698 LINE",
"700 708 LINE"
);
},
{
closed = 1;
nodes = (
"80 708 LINE",
"80 698 LINE",
"150 683 LINE",
"150 25 LINE",
"80 10 LINE",
"80 0 LINE",
"235 0 LINE",
"235 10 LINE",
"165 25 LINE",
"165 683 LINE",
"235 698 LINE",
"235 708 LINE"
);
},
{
closed = 1;
nodes = (
"159 342 LINE",
"159 332 LINE",
"620 332 LINE",
"620 348 LINE"
);
},
{
closed = 1;
nodes = (
"155 703 LINE",
"160 703 LINE",
"160 5 LINE",
"155 5 LINE"
);
},
{
closed = 1;
nodes = (
"620 703 LINE",
"625 703 LINE",
"625 5 LINE",
"620 5 LINE"
);
},
{
closed = 1;
nodes = (
"615 337 LINE",
"173 337 LINE",
"615 343 LINE"
);
}
);
width = 780;
},
{
layerId = "35A90D60-3AD4-435C-9F8B-D1CA483F6F66";
paths = (
{
closed = 1;
nodes = (
"836 708 LINE",
"836 693 LINE",
"945 683 LINE",
"945 25 LINE",
"836 10 LINE",
"836 0 LINE",
"1070 0 LINE",
"1070 10 LINE",
"960 25 LINE",
"960 683 LINE",
"1070 698 LINE",
"1070 708 LINE"
);
},
{
closed = 1;
nodes = (
"100 708 LINE",
"100 698 LINE",
"210 683 LINE",
"210 25 LINE",
"100 10 LINE",
"100 0 LINE",
"334 0 LINE",
"334 10 LINE",
"225 25 LINE",
"225 683 LINE",
"334 693 LINE",
"334 708 LINE"
);
},
{
closed = 1;
nodes = (
"222 342 LINE",
"222 332 LINE",
"948 332 LINE",
"948 348 LINE"
);
},
{
closed = 1;
nodes = (
"215 703 LINE",
"220 703 LINE",
"220 5 LINE",
"215 5 LINE"
);
},
{
closed = 1;
nodes = (
"950 703 LINE",
"955 703 LINE",
"955 5 LINE",
"950 5 LINE"
);
},
{
closed = 1;
nodes = (
"944 337 LINE",
"352 337 LINE",
"944 343 LINE"
);
}
);
width = 1170;
}
);
leftKerningGroup = HH;
rightKerningGroup = H;
unicode = 0048;
},
{
color = 4;
glyphname = I;
lastChange = "2022-08-05 06:04:53 +0000";
layers = (
{
layerId = "2660E96A-9963-4076-AFCB-E451BC6EE103";
paths = (
{
closed = 1;
nodes = (
"20 708 LINE",
"20 698 LINE",
"70 688 LINE",
"70 20 LINE",
"20 10 LINE",
"20 0 LINE",
"365 0 LINE",
"365 10 LINE",
"315 20 LINE",
"315 688 LINE",
"365 698 LINE",
"365 708 LINE"
);
},
{
closed = 1;
nodes = (
"90 688 LINE",
"295 688 LINE",
"295 20 LINE",
"90 20 LINE"
);
}
);
width = 385;
},
{
layerId = "DF54607F-DD82-41E6-B2E3-81CA6D0E5C47";
paths = (
{
closed = 1;
nodes = (
"20 708 LINE",
"20 698 LINE",
"70 688 LINE",
"70 20 LINE",
"20 10 LINE",
"20 0 LINE",
"640 0 LINE",
"640 10 LINE",
"590 20 LINE",
"590 688 LINE",
"640 698 LINE",
"640 708 LINE"
);
},
{
closed = 1;
nodes = (
"90 688 LINE",
"570 688 LINE",
"570 20 LINE",
"90 20 LINE"
);
}
);
width = 660;
},
{
layerId = "A5088515-37FF-452F-BD44-18A7A5EF88F0";
paths = (
{
closed = 1;
nodes = (
"80 708 LINE",
"80 698 LINE",
"150 683 LINE",
"150 25 LINE",
"80 10 LINE",
"80 0 LINE",
"235 0 LINE",
"235 10 LINE",
"165 25 LINE",
"165 683 LINE",
"235 698 LINE",
"235 708 LINE"
);
},
{
closed = 1;
nodes = (
"155 703 LINE",
"160 703 LINE",
"160 5 LINE",
"155 5 LINE"
);
}
);
width = 315;
},
{
layerId = "35A90D60-3AD4-435C-9F8B-D1CA483F6F66";
paths = (
{
closed = 1;
nodes = (
"100 708 LINE",
"100 698 LINE",
"209 683 LINE",
"209 25 LINE",
"100 10 LINE",
"100 0 LINE",
"334 0 LINE",
"334 10 LINE",
"224 25 LINE",
"224 683 LINE",
"334 698 LINE",
"334 708 LINE"
);
},
{
closed = 1;
nodes = (
"214 703 LINE",
"219 703 LINE",
"219 5 LINE",
"214 5 LINE"
);
}
);
width = 434;
}
);
leftKerningGroup = HH;
leftMetricsKey = H;
rightKerningGroup = H;
rightMetricsKey = H;
unicode = 0049;
},
{
color = 4;
glyphname = J;
lastChange = "2022-08-05 06:04:53 +0000";
layers = (
{
layerId = "2660E96A-9963-4076-AFCB-E451BC6EE103";
paths = (
{
closed = 1;
nodes = (
"449 -15 OFFCURVE",
"537 34 OFFCURVE",
"537 225 CURVE SMOOTH",
"537 708 LINE",
"202 708 LINE",
"202 698 LINE",
"292 688 LINE",
"292 262 LINE",
"316 28 OFFCURVE",
"253 3 OFFCURVE",
"191 1 CURVE SMOOTH",
"152 0 OFFCURVE",
"116 16 OFFCURVE",
"116 28 CURVE SMOOTH",
"116 49 OFFCURVE",
"159 57 OFFCURVE",
"196 77 CURVE SMOOTH",
"224 92 OFFCURVE",
"248 114 OFFCURVE",
"248 154 CURVE SMOOTH",
"248 195 OFFCURVE",
"202 223 OFFCURVE",
"144 223 CURVE SMOOTH",
"76 223 OFFCURVE",
"1 196 OFFCURVE",
"1 121 CURVE SMOOTH",
"1 36 OFFCURVE",
"102 -15 OFFCURVE",
"272 -15 CURVE SMOOTH"
);
},
{
closed = 1;
nodes = (
"46 51 OFFCURVE",
"21 81 OFFCURVE",
"21 121 CURVE SMOOTH",
"21 182 OFFCURVE",
"79 203 OFFCURVE",
"144 203 CURVE SMOOTH",
"196 203 OFFCURVE",
"228 184 OFFCURVE",
"228 154 CURVE SMOOTH",
"228 123 OFFCURVE",
"212 108 OFFCURVE",
"187 95 CURVE SMOOTH",
"176 89 OFFCURVE",
"164 84 OFFCURVE",
"153 79 CURVE SMOOTH",
"119 66 OFFCURVE",
"98 54 OFFCURVE",
"96 26 CURVE"
);
},
{
closed = 1;
nodes = (
"304 36 OFFCURVE",
"328 106 OFFCURVE",
"312 263 CURVE",
"312 688 LINE",
"517 688 LINE",
"517 225 LINE SMOOTH",
"517 46 OFFCURVE",
"444 5 OFFCURVE",
"267 5 CURVE"
);
}
);
width = 597;
},
{
layerId = "DF54607F-DD82-41E6-B2E3-81CA6D0E5C47";
paths = (
{
closed = 1;
nodes = (
"901 -15 OFFCURVE",
"1088 34 OFFCURVE",
"1088 225 CURVE SMOOTH",
"1088 708 LINE",
"478 708 LINE",
"478 698 LINE",
"568 688 LINE",
"568 262 LINE",
"599 28 OFFCURVE",
"536 2 OFFCURVE",
"404 0 CURVE SMOOTH",
"321 -1 OFFCURVE",
"245 16 OFFCURVE",
"245 28 CURVE SMOOTH",
"245 47 OFFCURVE",
"319 55 OFFCURVE",
"391 72 CURVE SMOOTH",
"459 87 OFFCURVE",
"525 109 OFFCURVE",
"525 154 CURVE SMOOTH",
"525 195 OFFCURVE",
"427 223 OFFCURVE",
"304 223 CURVE SMOOTH",
"160 223 OFFCURVE",
"1 196 OFFCURVE",
"1 121 CURVE SMOOTH",
"1 36 OFFCURVE",
"215 -15 OFFCURVE",
"526 -15 CURVE SMOOTH"
);
},
{
closed = 1;
nodes = (
"96 44 OFFCURVE",
"21 78 OFFCURVE",
"21 121 CURVE SMOOTH",
"21 179 OFFCURVE",
"162 203 OFFCURVE",
"304 203 CURVE SMOOTH",
"424 203 OFFCURVE",
"505 180 OFFCURVE",
"505 154 CURVE SMOOTH",
"505 123 OFFCURVE",
"454 106 OFFCURVE",
"387 91 CURVE SMOOTH",
"368 87 OFFCURVE",
"349 83 OFFCURVE",
"331 80 CURVE SMOOTH",
"273 68 OFFCURVE",
"225 60 OFFCURVE",
"225 19 CURVE"
);
},
{
closed = 1;
nodes = (
"586 37 OFFCURVE",
"608 107 OFFCURVE",
"588 263 CURVE",
"588 688 LINE",
"1068 688 LINE",
"1068 225 LINE SMOOTH",
"1068 51 OFFCURVE",
"902 7 OFFCURVE",
"533 5 CURVE"
);
}
);
width = 1148;
},
{
layerId = "A5088515-37FF-452F-BD44-18A7A5EF88F0";
paths = (
{
closed = 1;
nodes = (
"278 -15 OFFCURVE",
"325 63 OFFCURVE",
"315 222 CURVE",
"315 708 LINE",
"200 708 LINE",
"200 698 LINE",
"300 683 LINE",
"300 222 LINE",
"310 73 OFFCURVE",
"268 0 OFFCURVE",
"179 0 CURVE SMOOTH",
"97 0 OFFCURVE",
"62 61 OFFCURVE",
"62 70 CURVE SMOOTH",
"62 109 OFFCURVE",
"103 99 OFFCURVE",
"133 107 CURVE SMOOTH",
"157 113 OFFCURVE",
"168 130 OFFCURVE",
"167 154 CURVE SMOOTH",
"165 183 OFFCURVE",
"137 195 OFFCURVE",
"110 195 CURVE SMOOTH",
"63 195 OFFCURVE",
"45 160 OFFCURVE",
"45 119 CURVE SMOOTH",
"45 66 OFFCURVE",
"89 -15 OFFCURVE",
"179 -15 CURVE SMOOTH"
);
},
{
closed = 1;
nodes = (
"53 92 OFFCURVE",
"52 106 OFFCURVE",
"52 119 CURVE SMOOTH",
"52 159 OFFCURVE",
"66 188 OFFCURVE",
"110 188 CURVE SMOOTH",
"136 188 OFFCURVE",
"158 180 OFFCURVE",
"160 154 CURVE SMOOTH",
"161 131 OFFCURVE",
"154 119 OFFCURVE",
"132 114 CURVE SMOOTH",
"124 112 OFFCURVE",
"116 111 OFFCURVE",
"107 110 CURVE SMOOTH",
"73 107 OFFCURVE",
"60 99 OFFCURVE",
"58 78 CURVE"
);
},
{
closed = 1;
nodes = (
"290 41 OFFCURVE",
"312 110 OFFCURVE",
"305 222 CURVE",
"305 703 LINE",
"310 703 LINE",
"310 222 LINE",
"317 110 OFFCURVE",
"297 41 OFFCURVE",
"244 10 CURVE"
);
}
);
width = 396;
},
{
layerId = "35A90D60-3AD4-435C-9F8B-D1CA483F6F66";
paths = (
{
closed = 1;
nodes = (
"563 -15 OFFCURVE",
"638 63 OFFCURVE",
"626 222 CURVE",
"626 708 LINE",
"393 708 LINE",
"393 698 LINE",
"611 683 LINE",
"611 222 LINE",
"622 73 OFFCURVE",
"542 0 OFFCURVE",
"347 0 CURVE SMOOTH",
"177 0 OFFCURVE",
"102 61 OFFCURVE",
"102 70 CURVE SMOOTH",
"102 109 OFFCURVE",
"181 99 OFFCURVE",
"247 107 CURVE SMOOTH",
"299 113 OFFCURVE",
"311 130 OFFCURVE",
"311 154 CURVE SMOOTH",
"311 183 OFFCURVE",
"255 195 OFFCURVE",
"197 195 CURVE SMOOTH",
"94 195 OFFCURVE",
"65 160 OFFCURVE",
"65 119 CURVE SMOOTH",
"65 66 OFFCURVE",
"161 -15 OFFCURVE",
"347 -15 CURVE SMOOTH"
);
},
{
closed = 1;
nodes = (
"80 83 OFFCURVE",
"72 102 OFFCURVE",
"72 119 CURVE SMOOTH",
"72 158 OFFCURVE",
"96 188 OFFCURVE",
"197 188 CURVE SMOOTH",
"254 188 OFFCURVE",
"304 179 OFFCURVE",
"304 154 CURVE SMOOTH",
"304 132 OFFCURVE",
"296 120 OFFCURVE",
"246 114 CURVE SMOOTH",
"229 112 OFFCURVE",
"211 111 OFFCURVE",
"194 110 CURVE SMOOTH",
"121 107 OFFCURVE",
"97 97 OFFCURVE",
"97 68 CURVE"
);
},
{
closed = 1;
nodes = (
"581 40 OFFCURVE",
"624 109 OFFCURVE",
"616 222 CURVE",
"616 703 LINE",
"621 703 LINE",
"621 222 LINE",
"630 109 OFFCURVE",
"595 40 OFFCURVE",
"487 10 CURVE"
);
}
);
width = 757;
}
);
leftKerningGroup = J;
rightKerningGroup = JJ;
unicode = 004A;
},
{
color = 4;
glyphname = K;
lastChange = "2022-08-05 06:04:53 +0000";
layers = (
{
background = {
paths = (
{
closed = 1;
nodes = (
"425 136 OFFCURVE",
"393 213 OFFCURVE",
"359 326 CURVE",
"505 325 OFFCURVE",
"563 291 OFFCURVE",
"611 181 CURVE SMOOTH",
"634 125 OFFCURVE",
"674 52 OFFCURVE",
"711 24 CURVE",
"675 6 OFFCURVE",
"637 5 OFFCURVE",
"603 5 CURVE SMOOTH",
"540 5 OFFCURVE",
"499 25 OFFCURVE",
"456 89 CURVE SMOOTH"
);
}
);
};
layerId = "2660E96A-9963-4076-AFCB-E451BC6EE103";
paths = (
{
closed = 1;
nodes = (
"644 -15 OFFCURVE",
"698 -14 OFFCURVE",
"745 22 CURVE",
"745 32 LINE",
"739 32 OFFCURVE",
"733 34 OFFCURVE",
"727 38 CURVE SMOOTH",
"693 60 OFFCURVE",
"653 132 OFFCURVE",
"629 189 CURVE SMOOTH",
"578 307 OFFCURVE",
"508 346 OFFCURVE",
"351 346 CURVE",
"351 351 LINE",
"397 351 OFFCURVE",
"505 395 OFFCURVE",
"588 471 CURVE SMOOTH",
"650 527 OFFCURVE",
"699 601 OFFCURVE",
"699 688 CURVE",
"749 698 LINE",
"749 708 LINE",
"395 708 LINE",
"395 698 LINE",
"452 698 OFFCURVE",
"477 661 OFFCURVE",
"477 611 CURVE SMOOTH",
"477 571 OFFCURVE",
"464 522 OFFCURVE",
"442 478 CURVE SMOOTH",
"416 424 OFFCURVE",
"379 378 OFFCURVE",
"339 364 CURVE SMOOTH",
"331 361 OFFCURVE",
"323 360 OFFCURVE",
"315 360 CURVE",
"315 708 LINE",
"20 708 LINE",
"20 698 LINE",
"70 688 LINE",
"70 20 LINE",
"20 10 LINE",
"20 0 LINE",
"365 0 LINE",
"365 10 LINE",
"315 20 LINE",
"315 346 LINE",
"332 346 LINE",
"369 218 OFFCURVE",
"405 130 OFFCURVE",
"439 78 CURVE SMOOTH",
"485 9 OFFCURVE",
"535 -15 OFFCURVE",
"603 -15 CURVE SMOOTH"
);
},
{
closed = 1;
nodes = (
"679 688 LINE",
"679 607 OFFCURVE",
"635 540 OFFCURVE",
"575 486 CURVE SMOOTH",
"517 433 OFFCURVE",
"450 397 OFFCURVE",
"400 381 CURVE",
"424 404 OFFCURVE",
"444 436 OFFCURVE",
"460 469 CURVE SMOOTH",
"483 515 OFFCURVE",
"497 568 OFFCURVE",
"497 611 CURVE SMOOTH",
"497 641 OFFCURVE",
"489 668 OFFCURVE",
"471 688 CURVE"
);
},
{
closed = 1;
nodes = (
"365 326 LINE",
"503 324 OFFCURVE",
"565 288 OFFCURVE",
"611 181 CURVE SMOOTH",
"639 110 OFFCURVE",
"669 61 OFFCURVE",
"701 33 CURVE SMOOTH",
"704 29 OFFCURVE",
"708 26 OFFCURVE",
"711 24 CURVE",
"686 11 OFFCURVE",
"650 5 OFFCURVE",
"603 5 CURVE SMOOTH",
"540 5 OFFCURVE",
"495 31 OFFCURVE",
"456 89 CURVE SMOOTH",
"423 139 OFFCURVE",
"394 211 OFFCURVE",
"359 326 CURVE"
);
},
{
closed = 1;
nodes = (
"90 688 LINE",
"295 688 LINE",
"295 20 LINE",
"90 20 LINE"
);
}
);
width = 764;
},
{
background = {
paths = (
{
closed = 1;
nodes = (
"719 326 LINE",
"967 326 OFFCURVE",
"1078 300 OFFCURVE",
"1178 217 CURVE SMOOTH",
"1202 198 OFFCURVE",
"1228 176 OFFCURVE",
"1253 152 CURVE SMOOTH",
"1308 103 OFFCURVE",
"1367 50 OFFCURVE",
"1419 26 CURVE",
"1335 6 OFFCURVE",
"1246 5 OFFCURVE",
"1173 5 CURVE SMOOTH",
"1031 5 OFFCURVE",
"940 28 OFFCURVE",
"847 94 CURVE SMOOTH",
"775 145 OFFCURVE",
"713 220 OFFCURVE",
"645 326 CURVE"
);
}
);
};
layerId = "DF54607F-DD82-41E6-B2E3-81CA6D0E5C47";
paths = (
{
closed = 1;
nodes = (
"1260 -15 OFFCURVE",
"1375 -14 OFFCURVE",
"1475 22 CURVE",
"1475 32 LINE",
"1466 32 OFFCURVE",
"1456 34 OFFCURVE",
"1446 37 CURVE SMOOTH",
"1371 61 OFFCURVE",
"1274 166 OFFCURVE",
"1191 233 CURVE SMOOTH",
"1087 318 OFFCURVE",
"969 346 OFFCURVE",
"719 346 CURVE",
"719 351 LINE",
"859 351 OFFCURVE",
"1015 384 OFFCURVE",
"1154 444 CURVE SMOOTH",
"1297 506 OFFCURVE",
"1377 594 OFFCURVE",
"1377 688 CURVE",
"1428 698 LINE",
"1428 708 LINE",
"761 708 LINE",
"761 698 LINE",
"827 698 OFFCURVE",
"862 665 OFFCURVE",
"862 619 CURVE SMOOTH",
"862 576 OFFCURVE",
"840 520 OFFCURVE",
"805 473 CURVE SMOOTH",
"759 413 OFFCURVE",
"690 371 OFFCURVE",
"624 362 CURVE SMOOTH",
"613 361 OFFCURVE",
"602 360 OFFCURVE",
"591 360 CURVE",
"591 708 LINE",
"20 708 LINE",
"20 698 LINE",
"71 688 LINE",
"71 20 LINE",
"20 10 LINE",
"20 0 LINE",
"641 0 LINE",
"641 10 LINE",
"591 20 LINE",
"591 346 LINE",
"608 346 LINE",
"686 220 OFFCURVE",
"756 134 OFFCURVE",
"835 78 CURVE SMOOTH",
"932 9 OFFCURVE",
"1029 -15 OFFCURVE",
"1173 -15 CURVE SMOOTH"
);
},
{
closed = 1;
nodes = (
"1357 688 LINE",
"1357 602 OFFCURVE",
"1285 522 OFFCURVE",
"1146 462 CURVE SMOOTH",
"1009 403 OFFCURVE",
"857 371 OFFCURVE",
"719 371 CURVE",
"757 394 OFFCURVE",
"793 425 OFFCURVE",
"821 461 CURVE SMOOTH",
"858 511 OFFCURVE",
"882 571 OFFCURVE",
"882 619 CURVE SMOOTH",
"882 647 OFFCURVE",
"872 671 OFFCURVE",
"852 688 CURVE"
);
},
{
closed = 1;
nodes = (
"679 326 LINE",
"960 326 OFFCURVE",
"1085 299 OFFCURVE",
"1178 217 CURVE SMOOTH",
"1274 133 OFFCURVE",
"1347 73 OFFCURVE",
"1398 37 CURVE SMOOTH",
"1404 32 OFFCURVE",
"1412 29 OFFCURVE",
"1419 26 CURVE",
"1360 12 OFFCURVE",
"1279 5 OFFCURVE",
"1173 5 CURVE SMOOTH",
"1033 5 OFFCURVE",
"935 32 OFFCURVE",
"849 94 CURVE SMOOTH",
"784 140 OFFCURVE",
"711 223 OFFCURVE",
"645 326 CURVE"
);
},
{
closed = 1;
nodes = (
"91 688 LINE",
"571 688 LINE",
"571 20 LINE",
"91 20 LINE"
);
}
);
width = 1490;
},
{
background = {
paths = (
{
closed = 1;
nodes = (
"300 346 LINE",
"396 338 OFFCURVE",
"452 293 OFFCURVE",
"505 178 CURVE SMOOTH",
"569 42 OFFCURVE",
"602 -5 OFFCURVE",
"637 -5 CURVE SMOOTH",
"642 -5 OFFCURVE",
"649 -4 OFFCURVE",
"655 -2 CURVE",
"655 -1 LINE",
"645 -8 OFFCURVE",
"636 -10 OFFCURVE",
"627 -10 CURVE SMOOTH",
"597 -10 OFFCURVE",
"565 35 OFFCURVE",
"500 173 CURVE SMOOTH",
"450 283 OFFCURVE",
"395 332 OFFCURVE",
"300 344 CURVE"
);
}
);
};
layerId = "A5088515-37FF-452F-BD44-18A7A5EF88F0";
paths = (
{
closed = 1;
nodes = (
"637 -15 OFFCURVE",
"648 -13 OFFCURVE",
"660 -4 CURVE",
"660 6 LINE",
"652 2 OFFCURVE",
"644 0 OFFCURVE",
"637 0 CURVE SMOOTH",
"605 0 OFFCURVE",
"573 45 OFFCURVE",
"510 180 CURVE SMOOTH",
"457 294 OFFCURVE",
"400 341 OFFCURVE",
"305 351 CURVE",
"305 356 LINE",
"366 371 OFFCURVE",
"420 418 OFFCURVE",
"461 474 CURVE SMOOTH",
"514 546 OFFCURVE",
"545 632 OFFCURVE",
"541 683 CURVE",
"608 698 LINE",
"608 708 LINE",
"455 708 LINE",
"455 698 LINE",
"498 698 OFFCURVE",
"522 684 OFFCURVE",
"522 658 CURVE SMOOTH",
"522 618 OFFCURVE",
"495 547 OFFCURVE",
"450 484 CURVE SMOOTH",
"402 416 OFFCURVE",
"332 360 OFFCURVE",
"255 358 CURVE SMOOTH",
"225 357 OFFCURVE",
"195 357 OFFCURVE",
"165 356 CURVE",
"165 708 LINE",
"80 708 LINE",
"80 698 LINE",
"150 683 LINE",
"150 25 LINE",
"80 10 LINE",
"80 0 LINE",
"235 0 LINE",
"235 10 LINE",
"165 25 LINE",
"165 343 LINE",
"241 343 LINE SMOOTH",
"372 343 OFFCURVE",
"436 300 OFFCURVE",
"495 171 CURVE SMOOTH",
"561 32 OFFCURVE",
"594 -15 OFFCURVE",
"627 -15 CURVE SMOOTH"
);
},
{
closed = 1;
nodes = (
"535 703 LINE",
"542 638 OFFCURVE",
"510 551 OFFCURVE",
"457 477 CURVE SMOOTH",
"413 415 OFFCURVE",
"356 373 OFFCURVE",
"299 360 CURVE",
"357 378 OFFCURVE",
"409 418 OFFCURVE",
"455 482 CURVE SMOOTH",
"497 542 OFFCURVE",
"527 614 OFFCURVE",
"527 658 CURVE SMOOTH",
"527 683 OFFCURVE",
"509 700 OFFCURVE",
"480 703 CURVE"
);
},
{
closed = 1;
nodes = (
"325 343 LINE",
"404 330 OFFCURVE",
"459 279 OFFCURVE",
"505 177 CURVE SMOOTH",
"569 41 OFFCURVE",
"602 -5 OFFCURVE",
"635 -5 CURVE SMOOTH",
"642 -5 OFFCURVE",
"648 -4 OFFCURVE",
"652 -3 CURVE",
"647 -8 OFFCURVE",
"639 -10 OFFCURVE",
"628 -10 CURVE SMOOTH",
"596 -10 OFFCURVE",
"564 36 OFFCURVE",
"500 174 CURVE SMOOTH",
"451 281 OFFCURVE",
"392 332 OFFCURVE",
"305 343 CURVE"
);
},
{
closed = 1;
nodes = (
"155 703 LINE",
"160 703 LINE",
"160 5 LINE",
"155 5 LINE"
);
}
);
width = 665;
},
{
background = {
paths = (
{
closed = 1;
nodes = (
"444 347 LINE",
"444 346 LINE",
"645 334 OFFCURVE",
"708 253 OFFCURVE",
"764 177 CURVE SMOOTH",
"867 41 OFFCURVE",
"922 -5 OFFCURVE",
"981 -5 CURVE SMOOTH",
"991 -5 OFFCURVE",
"1002 -4 OFFCURVE",
"1013 -1 CURVE",
"1013 -1 LINE",
"996 -8 OFFCURVE",
"980 -10 OFFCURVE",
"965 -10 CURVE SMOOTH",
"913 -10 OFFCURVE",
"862 35 OFFCURVE",
"757 174 CURVE SMOOTH",
"701 250 OFFCURVE",
"637 325 OFFCURVE",
"443 344 CURVE"
);
}
);
};
layerId = "35A90D60-3AD4-435C-9F8B-D1CA483F6F66";
paths = (
{
closed = 1;
nodes = (
"981 -15 OFFCURVE",
"999 -13 OFFCURVE",
"1018 -4 CURVE",
"1018 6 LINE",
"1005 2 OFFCURVE",
"992 0 OFFCURVE",
"981 0 CURVE SMOOTH",
"924 0 OFFCURVE",
"871 45 OFFCURVE",
"768 180 CURVE SMOOTH",
"712 255 OFFCURVE",
"649 338 OFFCURVE",
"449 351 CURVE",
"449 356 LINE",
"540 373 OFFCURVE",
"629 416 OFFCURVE",
"697 475 CURVE SMOOTH",
"773 540 OFFCURVE",
"827 626 OFFCURVE",
"827 683 CURVE",
"935 698 LINE",
"935 708 LINE",
"689 708 LINE",
"689 698 LINE",
"762 698 OFFCURVE",
"803 683 OFFCURVE",
"803 657 CURVE SMOOTH",
"803 612 OFFCURVE",
"747 532 OFFCURVE",
"675 475 CURVE SMOOTH",
"595 411 OFFCURVE",
"461 360 OFFCURVE",
"369 358 CURVE SMOOTH",
"320 357 OFFCURVE",
"272 357 OFFCURVE",
"224 356 CURVE",
"224 708 LINE",
"100 708 LINE",
"100 698 LINE",
"209 683 LINE",
"209 25 LINE",
"100 10 LINE",
"100 0 LINE",
"337 0 LINE",
"337 10 LINE",
"224 25 LINE",
"224 343 LINE",
"346 343 LINE SMOOTH",
"615 343 OFFCURVE",
"689 258 OFFCURVE",
"753 171 CURVE SMOOTH",
"858 32 OFFCURVE",
"911 -15 OFFCURVE",
"965 -15 CURVE SMOOTH"
);
},
{
closed = 1;
nodes = (
"821 703 LINE",
"825 633 OFFCURVE",
"779 552 OFFCURVE",
"694 479 CURVE SMOOTH",
"625 419 OFFCURVE",
"536 377 OFFCURVE",
"436 360 CURVE",
"524 381 OFFCURVE",
"617 422 OFFCURVE",
"678 471 CURVE SMOOTH",
"751 529 OFFCURVE",
"808 611 OFFCURVE",
"808 657 CURVE SMOOTH",
"808 685 OFFCURVE",
"778 702 OFFCURVE",
"724 703 CURVE"
);
},
{
closed = 1;
nodes = (
"479 343 LINE",
"610 329 OFFCURVE",
"681 288 OFFCURVE",
"763 177 CURVE SMOOTH",
"867 40 OFFCURVE",
"919 -6 OFFCURVE",
"971 -6 CURVE SMOOTH",
"990 -6 OFFCURVE",
"997 -5 OFFCURVE",
"1006 -2 CURVE",
"994 -8 OFFCURVE",
"984 -10 OFFCURVE",
"965 -10 CURVE SMOOTH",
"914 -10 OFFCURVE",
"862 36 OFFCURVE",
"758 174 CURVE SMOOTH",
"675 287 OFFCURVE",
"596 329 OFFCURVE",
"443 343 CURVE"
);
},
{
closed = 1;
nodes = (
"214 703 LINE",
"219 703 LINE",
"219 5 LINE",
"214 5 LINE"
);
}
);
width = 1088;
}
);
leftKerningGroup = HH;
leftMetricsKey = H;
rightKerningGroup = K;
unicode = 004B;
},
{
color = 4;
glyphname = L;
lastChange = "2022-08-05 06:04:53 +0000";
layers = (
{
layerId = "2660E96A-9963-4076-AFCB-E451BC6EE103";
paths = (
{
closed = 1;
nodes = (
"632 0 LINE",
"597 304 LINE",
"577 304 LINE",
"525 180 LINE SMOOTH",
"475 61 OFFCURVE",
"434 17 OFFCURVE",
"377 16 CURVE SMOOTH",
"315 15 LINE",
"315 688 LINE",
"366 698 LINE",
"366 708 LINE",
"20 708 LINE",
"20 698 LINE",
"70 688 LINE",
"70 20 LINE",
"20 10 LINE",
"20 0 LINE"
);
},
{
closed = 1;
nodes = (
"90 688 LINE",
"295 688 LINE",
"295 20 LINE",
"90 20 LINE"
);
},
{
closed = 1;
nodes = (
"453 20 LINE",
"485 47 OFFCURVE",
"514 98 OFFCURVE",
"545 171 CURVE SMOOTH",
"580 254 LINE",
"607 20 LINE"
);
}
);
width = 647;
},
{
layerId = "DF54607F-DD82-41E6-B2E3-81CA6D0E5C47";
paths = (
{
closed = 1;
nodes = (
"1153 0 LINE",
"1118 404 LINE",
"1098 404 LINE",
"988 248 LINE SMOOTH",
"869 80 OFFCURVE",
"762 16 OFFCURVE",
"602 16 CURVE",
"590 15 LINE",
"590 688 LINE",
"641 698 LINE",
"641 708 LINE",
"20 708 LINE",
"20 698 LINE",
"70 688 LINE",
"70 20 LINE",
"20 10 LINE",
"20 0 LINE"
);
},
{
closed = 1;
nodes = (
"90 688 LINE",
"570 688 LINE",
"570 20 LINE",
"90 20 LINE"
);
},
{
closed = 1;
nodes = (
"765 20 LINE",
"853 54 OFFCURVE",
"928 124 OFFCURVE",
"1006 235 CURVE SMOOTH",
"1099 368 LINE",
"1129 20 LINE"
);
}
);
width = 1168;
},
{
layerId = "A5088515-37FF-452F-BD44-18A7A5EF88F0";
paths = (
{
closed = 1;
nodes = (
"552 0 LINE",
"528 243 LINE",
"513 243 LINE",
"520 115 LINE SMOOTH",
"524 42 OFFCURVE",
"503 15 OFFCURVE",
"467 15 CURVE SMOOTH",
"165 15 LINE",
"165 688 LINE",
"235 698 LINE",
"235 708 LINE",
"80 708 LINE",
"80 698 LINE",
"150 688 LINE",
"150 20 LINE",
"80 10 LINE",
"80 0 LINE"
);
},
{
closed = 1;
nodes = (
"155 703 LINE",
"160 703 LINE",
"160 5 LINE",
"155 5 LINE"
);
},
{
closed = 1;
nodes = (
"467 7 LINE",
"508 8 OFFCURVE",
"530 39 OFFCURVE",
"527 115 CURVE SMOOTH",
"522 236 LINE",
"544 7 LINE"
);
}
);
width = 602;
},
{
layerId = "35A90D60-3AD4-435C-9F8B-D1CA483F6F66";
paths = (
{
closed = 1;
nodes = (
"855 0 LINE",
"831 243 LINE",
"816 243 LINE",
"823 130 LINE SMOOTH",
"828 46 OFFCURVE",
"808 15 OFFCURVE",
"770 15 CURVE SMOOTH",
"224 15 LINE",
"224 688 LINE",
"334 698 LINE",
"334 708 LINE",
"100 708 LINE",
"100 698 LINE",
"209 688 LINE",
"209 20 LINE",
"100 10 LINE",
"100 0 LINE"
);
},
{
closed = 1;
nodes = (
"214 703 LINE",
"219 703 LINE",
"219 5 LINE",
"214 5 LINE"
);
},
{
closed = 1;
nodes = (
"770 7 LINE",
"813 8 OFFCURVE",
"835 43 OFFCURVE",
"830 130 CURVE SMOOTH",
"824 236 LINE",
"847 7 LINE"
);
}
);
width = 952;
}
);
leftKerningGroup = HH;
leftMetricsKey = H;
rightKerningGroup = L;
unicode = 004C;
},
{
color = 4;
glyphname = M;
lastChange = "2022-08-05 06:04:53 +0000";
layers = (
{
layerId = "2660E96A-9963-4076-AFCB-E451BC6EE103";
paths = (
{
closed = 1;
nodes = (
"294 0 LINE",
"294 10 LINE",
"154 60 OFFCURVE",
"100 408 OFFCURVE",
"100 561 CURVE SMOOTH",
"100 566 LINE",
"115 566 LINE",
"370 0 LINE",
"506 0 LINE",
"663 592 LINE",
"678 592 LINE",
"677 20 LINE",
"617 10 LINE",
"617 0 LINE",
"982 0 LINE",
"982 10 LINE",
"932 20 LINE",
"932 688 LINE",
"982 698 LINE",
"982 708 LINE",
"648 708 LINE",
"549 216 LINE",
"561 238 LINE",
"524 238 LINE",
"543 215 LINE",
"334 708 LINE",
"14 708 LINE",
"14 698 LINE",
"85 686 LINE",
"85 20 LINE",
"5 10 LINE",
"5 0 LINE"
);
},
{
closed = 1;
nodes = (
"105 328 LINE",
"106 328 LINE",
"111 301 LINE SMOOTH",
"132 187 OFFCURVE",
"177 76 OFFCURVE",
"240 20 CURVE",
"107 20 LINE"
);
},
{
closed = 1;
nodes = (
"105 688 LINE",
"321 688 LINE",
"525 207 LINE",
"541 207 LINE",
"491 20 LINE",
"383 20 LINE",
"128 586 LINE",
"105 586 LINE"
);
},
{
closed = 1;
nodes = (
"664 688 LINE",
"912 688 LINE",
"912 20 LINE",
"697 20 LINE",
"698 612 LINE",
"649 612 LINE"
);
}
);
width = 987;
},
{
layerId = "DF54607F-DD82-41E6-B2E3-81CA6D0E5C47";
paths = (
{
closed = 1;
nodes = (
"393 0 LINE",
"393 10 LINE",
"200 53 OFFCURVE",
"95 359 OFFCURVE",
"95 561 CURVE SMOOTH",
"95 566 LINE",
"118 566 LINE",
"509 0 LINE",
"789 0 LINE",
"981 592 LINE",
"1004 592 LINE",
"1004 20 LINE",
"943 10 LINE",
"943 0 LINE",
"1575 0 LINE",
"1575 10 LINE",
"1524 20 LINE",
"1524 688 LINE",
"1601 698 LINE",
"1601 708 LINE",
"988 708 LINE",
"845 219 LINE",
"858 238 LINE",
"830 238 LINE",
"853 218 LINE",
"534 708 LINE",
"19 708 LINE",
"19 698 LINE",
"85 686 LINE",
"85 20 LINE",
"5 10 LINE",
"5 0 LINE"
);
},
{
closed = 1;
nodes = (
"105 351 LINE",
"106 351 LINE",
"109 337 LINE SMOOTH",
"138 204 OFFCURVE",
"217 79 OFFCURVE",
"316 20 CURVE",
"105 20 LINE"
);
},
{
closed = 1;
nodes = (
"104 688 LINE",
"523 688 LINE",
"829 218 LINE",
"839 218 LINE",
"774 20 LINE",
"519 20 LINE",
"128 586 LINE",
"105 586 LINE"
);
},
{
closed = 1;
nodes = (
"1003 688 LINE",
"1504 688 LINE",
"1504 20 LINE",
"1024 20 LINE",
"1024 612 LINE",
"981 612 LINE"
);
}
);
width = 1606;
},
{
layerId = "A5088515-37FF-452F-BD44-18A7A5EF88F0";
paths = (
{
closed = 1;
nodes = (
"305 0 LINE",
"305 10 LINE",
"187 10 OFFCURVE",
"165 22 OFFCURVE",
"165 122 CURVE SMOOTH",
"165 610 LINE",
"182 610 LINE",
"471 0 LINE",
"497 0 LINE",
"760 610 LINE",
"776 610 LINE",
"776 25 LINE",
"706 10 LINE",
"706 0 LINE",
"861 0 LINE",
"861 10 LINE",
"791 25 LINE",
"791 683 LINE",
"861 698 LINE",
"861 708 LINE",
"787 708 LINE",
"489 18 LINE",
"495 21 LINE",
"472 21 LINE",
"478 18 LINE",
"151 708 LINE",
"80 708 LINE",
"80 698 LINE",
"150 683 LINE",
"150 25 LINE",
"80 10 LINE",
"80 0 LINE"
);
},
{
closed = 1;
nodes = (
"156 129 LINE",
"158 129 LINE",
"158 106 LINE SMOOTH",
"158 36 OFFCURVE",
"181 11 OFFCURVE",
"250 7 CURVE",
"156 7 LINE"
);
},
{
closed = 1;
nodes = (
"157 680 LINE",
"158 680 LINE",
"472 17 LINE",
"500 17 LINE",
"496 7 LINE",
"473 7 LINE",
"184 617 LINE",
"157 617 LINE"
);
},
{
closed = 1;
nodes = (
"780 672 LINE",
"785 682 LINE",
"785 7 LINE",
"781 7 LINE",
"781 617 LINE",
"755 617 LINE"
);
}
);
width = 911;
},
{
layerId = "35A90D60-3AD4-435C-9F8B-D1CA483F6F66";
paths = (
{
closed = 1;
nodes = (
"407 0 LINE",
"407 10 LINE",
"236 10 OFFCURVE",
"204 22 OFFCURVE",
"204 122 CURVE SMOOTH",
"204 622 LINE",
"228 622 LINE",
"645 0 LINE",
"664 0 LINE",
"1037 622 LINE",
"1056 622 LINE",
"1056 25 LINE",
"947 10 LINE",
"947 0 LINE",
"1181 0 LINE",
"1181 10 LINE",
"1071 25 LINE",
"1071 683 LINE",
"1181 698 LINE",
"1181 708 LINE",
"1071 708 LINE",
"657 19 LINE",
"664 21 LINE",
"644 21 LINE",
"651 18 LINE",
"189 708 LINE",
"80 708 LINE",
"80 698 LINE",
"189 683 LINE",
"189 25 LINE",
"80 10 LINE",
"80 0 LINE"
);
},
{
closed = 1;
nodes = (
"196 129 LINE",
"198 129 LINE",
"198 106 LINE SMOOTH",
"198 37 OFFCURVE",
"218 20 OFFCURVE",
"319 7 CURVE",
"196 7 LINE"
);
},
{
closed = 1;
nodes = (
"196 685 LINE",
"198 685 LINE",
"647 14 LINE",
"667 14 LINE",
"663 7 LINE",
"647 7 LINE",
"230 629 LINE",
"196 629 LINE"
);
},
{
closed = 1;
nodes = (
"1059 673 LINE",
"1065 682 LINE",
"1065 7 LINE",
"1061 7 LINE",
"1061 629 LINE",
"1032 629 LINE"
);
}
);
width = 1261;
}
);
leftKerningGroup = HH;
leftMetricsKey = N;
rightKerningGroup = H;
rightMetricsKey = N;
unicode = 004D;
},
{
color = 4;
glyphname = N;
lastChange = "2022-08-05 06:04:53 +0000";
layers = (
{
layerId = "2660E96A-9963-4076-AFCB-E451BC6EE103";
paths = (
{
closed = 1;
nodes = (
"354 0 LINE",
"354 10 LINE",
"163 126 OFFCURVE",
"90 330 OFFCURVE",
"90 569 CURVE SMOOTH",
"90 574 LINE",
"105 574 LINE",
"536 0 LINE",
"667 0 LINE",
"667 688 LINE",
"751 698 LINE",
"751 708 LINE",
"432 708 LINE",
"432 698 LINE",
"576 623 OFFCURVE",
"652 441 OFFCURVE",
"652 267 CURVE SMOOTH",
"652 262 LINE",
"635 262 LINE",
"307 708 LINE",
"5 708 LINE",
"5 698 LINE",
"50 672 OFFCURVE",
"75 639 OFFCURVE",
"75 605 CURVE",
"75 20 LINE",
"5 10 LINE",
"5 0 LINE"
);
},
{
closed = 1;
nodes = (
"95 357 LINE",
"96 357 LINE",
"101 335 LINE SMOOTH",
"130 207 OFFCURVE",
"203 94 OFFCURVE",
"304 20 CURVE",
"95 20 LINE"
);
},
{
closed = 1;
nodes = (
"115 594 LINE",
"95 594 LINE",
"95 635 OFFCURVE",
"80 664 OFFCURVE",
"53 688 CURVE",
"297 688 LINE",
"625 242 LINE",
"647 242 LINE",
"647 20 LINE",
"546 20 LINE"
);
},
{
closed = 1;
nodes = (
"636 482 LINE SMOOTH",
"616 552 OFFCURVE",
"547 647 OFFCURVE",
"486 688 CURVE",
"647 688 LINE",
"647 447 LINE",
"646 447 LINE"
);
}
);
width = 756;
},
{
background = {
paths = (
{
closed = 1;
nodes = (
"656 -20 LINE",
"656 23 LINE",
"376 147 OFFCURVE",
"112 268 OFFCURVE",
"112 569 CURVE SMOOTH",
"112 554 LINE",
"98 554 LINE",
"900 -20 LINE",
"1244 -20 LINE",
"1244 670 LINE",
"1328 680 LINE",
"1328 728 LINE",
"734 728 LINE",
"734 684 LINE",
"927 617 OFFCURVE",
"1187 465 OFFCURVE",
"1187 267 CURVE SMOOTH",
"1187 282 LINE",
"1201 282 LINE",
"574 728 LINE",
"-15 728 LINE",
"-15 686 LINE",
"36 659 OFFCURVE",
"55 635 OFFCURVE",
"55 605 CURVE SMOOTH",
"55 37 LINE",
"-15 27 LINE",
"-15 -20 LINE"
);
},
{
closed = 1;
nodes = (
"95 442 LINE",
"95 605 LINE SMOOTH",
"95 645 OFFCURVE",
"71 680 OFFCURVE",
"25 709 CURVE",
"25 688 LINE",
"562 688 LINE",
"1189 242 LINE",
"1227 242 LINE",
"1227 267 LINE SMOOTH",
"1227 480 OFFCURVE",
"968 639 OFFCURVE",
"774 712 CURVE",
"774 688 LINE",
"1288 688 LINE",
"1288 716 LINE",
"1204 706 LINE",
"1204 20 LINE",
"912 20 LINE",
"110 594 LINE",
"72 594 LINE",
"72 569 LINE SMOOTH",
"72 522 OFFCURVE",
"78 480 OFFCURVE",
"89 440 CURVE"
);
},
{
closed = 1;
nodes = (
"581 20 LINE",
"25 20 LINE",
"25 -7 LINE",
"95 3 LINE",
"95 442 LINE",
"89 440 LINE",
"149 224 OFFCURVE",
"359 112 OFFCURVE",
"580 13 CURVE"
);
},
{
closed = 1;
nodes = (
"580 13 LINE",
"592 8 OFFCURVE",
"604 2 OFFCURVE",
"616 -3 CURVE",
"616 20 LINE",
"581 20 LINE"
);
},
{
closed = 1;
nodes = (
"109 295 LINE SMOOTH",
"168 188 OFFCURVE",
"274 104 OFFCURVE",
"456 20 CURVE",
"95 20 LINE",
"95 319 LINE",
"96 319 LINE"
);
}
);
};
layerId = "DF54607F-DD82-41E6-B2E3-81CA6D0E5C47";
paths = (
{
closed = 1;
nodes = (
"636 0 LINE",
"636 10 LINE",
"360 132 OFFCURVE",
"92 260 OFFCURVE",
"92 569 CURVE SMOOTH",
"92 574 LINE",
"104 574 LINE",
"906 0 LINE",
"1224 0 LINE",
"1224 688 LINE",
"1308 698 LINE",
"1308 708 LINE",
"754 708 LINE",
"754 698 LINE",
"947 628 OFFCURVE",
"1207 472 OFFCURVE",
"1207 267 CURVE SMOOTH",
"1207 262 LINE",
"1195 262 LINE",
"568 708 LINE",
"5 708 LINE",
"5 698 LINE",
"52 671 OFFCURVE",
"75 640 OFFCURVE",
"75 605 CURVE",
"75 20 LINE",
"5 10 LINE",
"5 0 LINE"
);
},
{
closed = 1;
nodes = (
"95 420 LINE",
"97 420 LINE",
"104 400 LINE SMOOTH",
"169 213 OFFCURVE",
"363 111 OFFCURVE",
"564 20 CURVE",
"95 20 LINE"
);
},
{
closed = 1;
nodes = (
"111 596 LINE",
"94 596 LINE",
"94 633 OFFCURVE",
"82 662 OFFCURVE",
"58 686 CURVE",
"561 686 LINE",
"1188 240 LINE",
"1207 240 LINE",
"1207 22 LINE",
"913 22 LINE"
);
},
{
closed = 1;
nodes = (
"1188 411 LINE SMOOTH",
"1130 518 OFFCURVE",
"1023 602 OFFCURVE",
"841 686 CURVE",
"1202 686 LINE",
"1202 387 LINE",
"1201 387 LINE"
);
}
);
width = 1313;
},
{
background = {
paths = (
{
closed = 1;
nodes = (
"155 161 LINE",
"157 137 OFFCURVE",
"158 113 OFFCURVE",
"160 89 CURVE",
"160 40 OFFCURVE",
"175 20 OFFCURVE",
"234 7 CURVE",
"155 7 LINE"
);
}
);
};
layerId = "A5088515-37FF-452F-BD44-18A7A5EF88F0";
paths = (
{
closed = 1;
nodes = (
"295 0 LINE",
"295 10 LINE",
"198 10 OFFCURVE",
"165 30 OFFCURVE",
"165 89 CURVE",
"165 620 LINE",
"175 620 LINE",
"682 0 LINE",
"692 0 LINE",
"692 683 LINE",
"762 698 LINE",
"762 708 LINE",
"547 708 LINE",
"547 698 LINE",
"645 697 OFFCURVE",
"677 672 OFFCURVE",
"677 600 CURVE",
"677 40 LINE",
"666 40 LINE",
"123 708 LINE",
"80 708 LINE",
"80 698 LINE",
"119 686 OFFCURVE",
"150 654 OFFCURVE",
"150 626 CURVE",
"150 25 LINE",
"80 10 LINE",
"80 0 LINE"
);
},
{
closed = 1;
nodes = (
"155 129 LINE",
"157 129 LINE",
"157 106 LINE SMOOTH",
"157 36 OFFCURVE",
"180 11 OFFCURVE",
"249 7 CURVE",
"155 7 LINE"
);
},
{
closed = 1;
nodes = (
"176 627 LINE",
"157 627 LINE",
"157 656 OFFCURVE",
"126 689 OFFCURVE",
"87 703 CURVE",
"120 703 LINE",
"664 35 LINE",
"687 35 LINE",
"687 7 LINE",
"682 7 LINE"
);
},
{
closed = 1;
nodes = (
"684 602 LINE SMOOTH",
"681 666 OFFCURVE",
"656 693 OFFCURVE",
"593 701 CURVE",
"687 701 LINE",
"687 579 LINE",
"685 579 LINE"
);
}
);
width = 812;
},
{
background = {
paths = (
{
closed = 1;
nodes = (
"194 183 LINE",
"196 152 OFFCURVE",
"196 120 OFFCURVE",
"199 89 CURVE SMOOTH",
"203 43 OFFCURVE",
"222 22 OFFCURVE",
"273 7 CURVE",
"194 7 LINE"
);
}
);
};
layerId = "35A90D60-3AD4-435C-9F8B-D1CA483F6F66";
paths = (
{
closed = 1;
nodes = (
"399 0 LINE",
"399 10 LINE",
"253 10 OFFCURVE",
"204 30 OFFCURVE",
"204 89 CURVE",
"204 620 LINE",
"219 620 LINE",
"979 0 LINE",
"987 0 LINE",
"987 683 LINE",
"1097 698 LINE",
"1097 708 LINE",
"777 708 LINE",
"777 698 LINE",
"923 697 OFFCURVE",
"972 672 OFFCURVE",
"972 600 CURVE",
"972 33 LINE",
"961 33 LINE",
"134 708 LINE",
"80 708 LINE",
"80 698 LINE",
"141 685 OFFCURVE",
"189 653 OFFCURVE",
"189 626 CURVE",
"189 25 LINE",
"80 10 LINE",
"80 0 LINE"
);
},
{
closed = 1;
nodes = (
"194 129 LINE",
"196 129 LINE",
"196 106 LINE SMOOTH",
"196 37 OFFCURVE",
"216 20 OFFCURVE",
"317 7 CURVE",
"194 7 LINE"
);
},
{
closed = 1;
nodes = (
"218 627 LINE",
"196 627 LINE",
"196 657 OFFCURVE",
"148 690 OFFCURVE",
"87 702 CURVE",
"132 702 LINE",
"962 26 LINE",
"982 26 LINE",
"982 7 LINE",
"978 7 LINE"
);
},
{
closed = 1;
nodes = (
"979 602 LINE SMOOTH",
"976 666 OFFCURVE",
"939 696 OFFCURVE",
"859 701 CURVE",
"982 701 LINE",
"982 579 LINE",
"980 579 LINE"
);
}
);
width = 1177;
}
);
leftKerningGroup = HH;
rightKerningGroup = N;
unicode = 004E;
},
{
color = 4;
glyphname = O;
lastChange = "2022-08-05 06:04:53 +0000";
layers = (
{
background = {
paths = (
{
closed = 1;
nodes = (
"182 723 OFFCURVE",
"30 576 OFFCURVE",
"30 352 CURVE SMOOTH",
"30 107 OFFCURVE",
"190 -15 OFFCURVE",
"402 -15 CURVE SMOOTH",
"612 -15 OFFCURVE",
"770 103 OFFCURVE",
"770 351 CURVE SMOOTH",
"770 614 OFFCURVE",
"605 723 OFFCURVE",
"402 723 CURVE SMOOTH"
);
},
{
closed = 1;
nodes = (
"488 713 OFFCURVE",
"520 616 OFFCURVE",
"520 357 CURVE SMOOTH",
"520 96 OFFCURVE",
"488 -3 OFFCURVE",
"402 -3 CURVE SMOOTH",
"316 -3 OFFCURVE",
"280 104 OFFCURVE",
"280 356 CURVE SMOOTH",
"280 611 OFFCURVE",
"316 713 OFFCURVE",
"402 713 CURVE SMOOTH"
);
},
{
closed = 1;
nodes = (
"182 723 OFFCURVE",
"30 576 OFFCURVE",
"30 352 CURVE SMOOTH",
"30 107 OFFCURVE",
"190 -15 OFFCURVE",
"402 -15 CURVE SMOOTH",
"612 -15 OFFCURVE",
"770 103 OFFCURVE",
"770 351 CURVE SMOOTH",
"770 614 OFFCURVE",
"605 723 OFFCURVE",
"402 723 CURVE SMOOTH"
);
},
{
closed = 1;
nodes = (
"488 713 OFFCURVE",
"520 616 OFFCURVE",
"520 357 CURVE SMOOTH",
"520 96 OFFCURVE",
"488 -3 OFFCURVE",
"402 -3 CURVE SMOOTH",
"316 -3 OFFCURVE",
"280 104 OFFCURVE",
"280 356 CURVE SMOOTH",
"280 611 OFFCURVE",
"316 713 OFFCURVE",
"402 713 CURVE SMOOTH"
);
}
);
};
layerId = "2660E96A-9963-4076-AFCB-E451BC6EE103";
paths = (
{
closed = 1;
nodes = (
"182 723 OFFCURVE",
"30 576 OFFCURVE",
"30 352 CURVE SMOOTH",
"30 107 OFFCURVE",
"190 -15 OFFCURVE",
"402 -15 CURVE SMOOTH",
"612 -15 OFFCURVE",
"770 103 OFFCURVE",
"770 351 CURVE SMOOTH",
"770 614 OFFCURVE",
"605 723 OFFCURVE",
"402 723 CURVE SMOOTH"
);
},
{
closed = 1;
nodes = (
"488 713 OFFCURVE",
"520 616 OFFCURVE",
"520 357 CURVE SMOOTH",
"520 96 OFFCURVE",
"488 -3 OFFCURVE",
"402 -3 CURVE SMOOTH",
"316 -3 OFFCURVE",
"280 104 OFFCURVE",
"280 356 CURVE SMOOTH",
"280 611 OFFCURVE",
"316 713 OFFCURVE",
"402 713 CURVE SMOOTH"
);
},
{
closed = 1;
nodes = (
"160 40 OFFCURVE",
"52 150 OFFCURVE",
"52 352 CURVE SMOOTH",
"52 536 OFFCURVE",
"154 662 OFFCURVE",
"316 693 CURVE",
"276 638 OFFCURVE",
"258 529 OFFCURVE",
"258 356 CURVE SMOOTH",
"258 179 OFFCURVE",
"276 67 OFFCURVE",
"320 14 CURVE"
);
},
{
closed = 1;
nodes = (
"526 67 OFFCURVE",
"542 177 OFFCURVE",
"542 357 CURVE SMOOTH",
"542 534 OFFCURVE",
"526 641 OFFCURVE",
"486 694 CURVE",
"639 668 OFFCURVE",
"748 565 OFFCURVE",
"748 351 CURVE SMOOTH",
"748 148 OFFCURVE",
"642 40 OFFCURVE",
"485 14 CURVE"
);
}
);
width = 800;
},
{
layerId = "DF54607F-DD82-41E6-B2E3-81CA6D0E5C47";
paths = (
{
closed = 1;
nodes = (
"308 723 OFFCURVE",
"30 570 OFFCURVE",
"30 354 CURVE SMOOTH",
"30 138 OFFCURVE",
"308 -15 OFFCURVE",
"686 -15 CURVE SMOOTH",
"1062 -15 OFFCURVE",
"1338 138 OFFCURVE",
"1338 354 CURVE SMOOTH",
"1338 570 OFFCURVE",
"1062 723 OFFCURVE",
"686 723 CURVE SMOOTH"
);
},
{
closed = 1;
nodes = (
"772 713 OFFCURVE",
"804 616 OFFCURVE",
"804 354 CURVE SMOOTH",
"804 96 OFFCURVE",
"772 -3 OFFCURVE",
"686 -3 CURVE SMOOTH",
"600 -3 OFFCURVE",
"564 104 OFFCURVE",
"564 354 CURVE SMOOTH",
"564 611 OFFCURVE",
"600 713 OFFCURVE",
"686 713 CURVE SMOOTH"
);
},
{
closed = 1;
nodes = (
"278 27 OFFCURVE",
"52 165 OFFCURVE",
"52 354 CURVE SMOOTH",
"52 542 OFFCURVE",
"276 680 OFFCURVE",
"605 699 CURVE",
"560 646 OFFCURVE",
"542 535 OFFCURVE",
"542 354 CURVE SMOOTH",
"542 173 OFFCURVE",
"561 60 OFFCURVE",
"608 9 CURVE"
);
},
{
closed = 1;
nodes = (
"809 60 OFFCURVE",
"826 170 OFFCURVE",
"826 354 CURVE SMOOTH",
"826 537 OFFCURVE",
"810 646 OFFCURVE",
"768 698 CURVE",
"1093 679 OFFCURVE",
"1316 542 OFFCURVE",
"1316 354 CURVE SMOOTH",
"1316 165 OFFCURVE",
"1092 28 OFFCURVE",
"765 9 CURVE"
);
}
);
width = 1368;
},
{
layerId = "A5088515-37FF-452F-BD44-18A7A5EF88F0";
paths = (
{
closed = 1;
nodes = (
"188 723 OFFCURVE",
"80 588 OFFCURVE",
"80 360 CURVE SMOOTH",
"80 124 OFFCURVE",
"188 -15 OFFCURVE",
"371 -15 CURVE SMOOTH",
"553 -15 OFFCURVE",
"660 124 OFFCURVE",
"660 360 CURVE SMOOTH",
"660 588 OFFCURVE",
"553 723 OFFCURVE",
"371 723 CURVE SMOOTH"
);
},
{
closed = 1;
nodes = (
"543 707 OFFCURVE",
"644 578 OFFCURVE",
"644 360 CURVE SMOOTH",
"644 134 OFFCURVE",
"543 1 OFFCURVE",
"371 1 CURVE SMOOTH",
"198 1 OFFCURVE",
"96 134 OFFCURVE",
"96 360 CURVE SMOOTH",
"96 578 OFFCURVE",
"198 707 OFFCURVE",
"371 707 CURVE SMOOTH"
);
},
{
closed = 1;
nodes = (
"133 87 OFFCURVE",
"85 200 OFFCURVE",
"85 360 CURVE SMOOTH",
"85 514 OFFCURVE",
"137 623 OFFCURVE",
"225 677 CURVE",
"143 624 OFFCURVE",
"91 513 OFFCURVE",
"91 360 CURVE SMOOTH",
"91 201 OFFCURVE",
"140 87 OFFCURVE",
"228 31 CURVE"
);
},
{
closed = 1;
nodes = (
"598 86 OFFCURVE",
"649 201 OFFCURVE",
"649 360 CURVE SMOOTH",
"649 512 OFFCURVE",
"597 623 OFFCURVE",
"516 677 CURVE",
"604 623 OFFCURVE",
"655 513 OFFCURVE",
"655 360 CURVE SMOOTH",
"655 200 OFFCURVE",
"604 86 OFFCURVE",
"514 31 CURVE"
);
}
);
width = 740;
},
{
layerId = "35A90D60-3AD4-435C-9F8B-D1CA483F6F66";
paths = (
{
closed = 1;
nodes = (
"291 723 OFFCURVE",
"90 573 OFFCURVE",
"90 360 CURVE SMOOTH",
"90 140 OFFCURVE",
"291 -15 OFFCURVE",
"576 -15 CURVE SMOOTH",
"858 -15 OFFCURVE",
"1057 140 OFFCURVE",
"1057 360 CURVE SMOOTH",
"1057 573 OFFCURVE",
"858 723 OFFCURVE",
"576 723 CURVE SMOOTH"
);
},
{
closed = 1;
nodes = (
"849 707 OFFCURVE",
"1042 563 OFFCURVE",
"1042 360 CURVE SMOOTH",
"1042 150 OFFCURVE",
"849 1 OFFCURVE",
"576 1 CURVE SMOOTH",
"300 1 OFFCURVE",
"105 150 OFFCURVE",
"105 360 CURVE SMOOTH",
"105 563 OFFCURVE",
"300 707 OFFCURVE",
"576 707 CURVE SMOOTH"
);
},
{
closed = 1;
nodes = (
"191 89 OFFCURVE",
"95 208 OFFCURVE",
"95 360 CURVE SMOOTH",
"95 505 OFFCURVE",
"190 620 OFFCURVE",
"349 677 CURVE",
"195 621 OFFCURVE",
"100 505 OFFCURVE",
"100 360 CURVE SMOOTH",
"100 209 OFFCURVE",
"195 88 OFFCURVE",
"352 31 CURVE"
);
},
{
closed = 1;
nodes = (
"949 88 OFFCURVE",
"1047 209 OFFCURVE",
"1047 360 CURVE SMOOTH",
"1047 505 OFFCURVE",
"954 621 OFFCURVE",
"801 677 CURVE",
"959 621 OFFCURVE",
"1052 506 OFFCURVE",
"1052 360 CURVE SMOOTH",
"1052 208 OFFCURVE",
"953 89 OFFCURVE",
"799 31 CURVE"
);
}
);
width = 1147;
}
);
leftKerningGroup = OO;
rightKerningGroup = O;
unicode = 004F;
},
{
color = 3;
glyphname = Oslash;
lastChange = "2022-08-05 06:04:53 +0000";
layers = (
{
components = (
{
name = O;
}
);
layerId = "2660E96A-9963-4076-AFCB-E451BC6EE103";
paths = (
{
closed = 1;
nodes = (
"234 -92 LINE",
"250 -92 LINE",
"574 800 LINE",
"558 800 LINE"
);
}
);
width = 800;
},
{
components = (
{
name = O;
}
);
layerId = "DF54607F-DD82-41E6-B2E3-81CA6D0E5C47";
paths = (
{
closed = 1;
nodes = (
"508 -92 LINE",
"524 -92 LINE",
"848 800 LINE",
"832 800 LINE"
);
}
);
width = 1368;
},
{
components = (
{
name = O;
}
);
layerId = "A5088515-37FF-452F-BD44-18A7A5EF88F0";
paths = (
{
closed = 1;
nodes = (
"223 -92 LINE",
"239 -92 LINE",
"563 800 LINE",
"547 800 LINE"
);
}
);
width = 740;
},
{
components = (
{
alignment = -1;
name = O;
}
);
layerId = "35A90D60-3AD4-435C-9F8B-D1CA483F6F66";
paths = (
{
closed = 1;
nodes = (
"382 -92 LINE",
"398 -92 LINE",
"722 800 LINE",
"706 800 LINE"
);
}
);
width = 1147;
}
);
leftKerningGroup = OO;
leftMetricsKey = O;
rightKerningGroup = O;
rightMetricsKey = O;
unicode = 00D8;
},
{
color = 4;
glyphname = OE;
lastChange = "2022-08-05 06:04:53 +0000";
layers = (
{
background = {
paths = (
{
closed = 1;
nodes = (
"306 12 OFFCURVE",
"280 124 OFFCURVE",
"280 366 CURVE SMOOTH",
"280 591 OFFCURVE",
"306 698 OFFCURVE",
"392 698 CURVE SMOOTH",
"404 698 OFFCURVE",
"414 695 OFFCURVE",
"422 688 CURVE SMOOTH",
"434 679 OFFCURVE",
"443 662 OFFCURVE",
"450 636 CURVE SMOOTH",
"464 587 OFFCURVE",
"470 503 OFFCURVE",
"470 367 CURVE SMOOTH",
"470 229 OFFCURVE",
"465 141 OFFCURVE",
"453 87 CURVE SMOOTH",
"440 31 OFFCURVE",
"421 12 OFFCURVE",
"392 12 CURVE SMOOTH"
);
},
{
closed = 1;
nodes = (
"829 692 OFFCURVE",
"879 659 OFFCURVE",
"912 598 CURVE SMOOTH",
"1007 424 LINE",
"1017 424 LINE",
"1052 708 LINE",
"494 708 LINE",
"460 708 OFFCURVE",
"426 708 OFFCURVE",
"392 708 CURVE SMOOTH",
"172 708 OFFCURVE",
"30 556 OFFCURVE",
"30 362 CURVE SMOOTH",
"30 127 OFFCURVE",
"180 0 OFFCURVE",
"392 0 CURVE SMOOTH",
"426 0 OFFCURVE",
"460 0 OFFCURVE",
"494 0 CURVE",
"1052 0 LINE",
"1017 284 LINE",
"1007 284 LINE",
"938 138 LINE SMOOTH",
"902 62 OFFCURVE",
"842 17 OFFCURVE",
"797 16 CURVE SMOOTH",
"715 15 LINE",
"715 356 LINE",
"725 356 LINE",
"871 246 LINE",
"881 246 LINE",
"881 506 LINE",
"871 506 LINE",
"865 486 OFFCURVE",
"842 438 OFFCURVE",
"809 404 CURVE SMOOTH",
"788 384 OFFCURVE",
"763 368 OFFCURVE",
"735 366 CURVE",
"715 366 LINE",
"715 693 LINE",
"797 692 LINE SMOOTH"
);
},
{
closed = 1;
nodes = (
"803 362 OFFCURVE",
"828 384 OFFCURVE",
"859 433 CURVE",
"859 282 LINE",
"768 351 LINE"
);
},
{
closed = 1;
nodes = (
"906 43 OFFCURVE",
"933 76 OFFCURVE",
"958 129 CURVE SMOOTH",
"1003 223 LINE",
"1027 20 LINE",
"873 20 LINE"
);
},
{
closed = 1;
nodes = (
"931 609 LINE SMOOTH",
"910 648 OFFCURVE",
"892 669 OFFCURVE",
"867 688 CURVE",
"1027 688 LINE",
"1002 479 LINE"
);
},
{
closed = 1;
nodes = (
"160 40 OFFCURVE",
"52 150 OFFCURVE",
"52 352 CURVE SMOOTH",
"52 536 OFFCURVE",
"154 662 OFFCURVE",
"316 693 CURVE",
"276 638 OFFCURVE",
"258 529 OFFCURVE",
"258 356 CURVE SMOOTH",
"258 179 OFFCURVE",
"276 67 OFFCURVE",
"320 14 CURVE"
);
},
{
closed = 1;
nodes = (
"447 20 LINE",
"479 61 OFFCURVE",
"490 148 OFFCURVE",
"490 367 CURVE SMOOTH",
"490 562 OFFCURVE",
"480 642 OFFCURVE",
"449 688 CURVE",
"695 688 LINE",
"695 20 LINE"
);
}
);
};
layerId = "2660E96A-9963-4076-AFCB-E451BC6EE103";
paths = (
{
closed = 1;
nodes = (
"306 12 OFFCURVE",
"280 124 OFFCURVE",
"280 366 CURVE SMOOTH",
"280 591 OFFCURVE",
"306 698 OFFCURVE",
"392 698 CURVE SMOOTH",
"393 698 OFFCURVE",
"394 698 OFFCURVE",
"395 698 CURVE SMOOTH",
"449 698 OFFCURVE",
"470 606 OFFCURVE",
"470 367 CURVE SMOOTH",
"470 101 OFFCURVE",
"451 12 OFFCURVE",
"395 12 CURVE SMOOTH",
"394 12 OFFCURVE",
"393 12 OFFCURVE",
"392 12 CURVE SMOOTH"
);
},
{
closed = 1;
nodes = (
"829 692 OFFCURVE",
"879 659 OFFCURVE",
"912 598 CURVE SMOOTH",
"1007 424 LINE",
"1017 424 LINE",
"1052 708 LINE",
"494 708 LINE",
"460 708 OFFCURVE",
"426 708 OFFCURVE",
"392 708 CURVE SMOOTH",
"172 708 OFFCURVE",
"30 556 OFFCURVE",
"30 362 CURVE SMOOTH",
"30 127 OFFCURVE",
"180 0 OFFCURVE",
"392 0 CURVE SMOOTH",
"426 0 OFFCURVE",
"460 0 OFFCURVE",
"494 0 CURVE",
"1052 0 LINE",
"1017 284 LINE",
"1007 284 LINE",
"938 138 LINE SMOOTH",
"902 62 OFFCURVE",
"842 17 OFFCURVE",
"797 16 CURVE SMOOTH",
"715 15 LINE",
"715 356 LINE",
"725 356 LINE",
"871 246 LINE",
"881 246 LINE",
"881 506 LINE",
"871 506 LINE",
"865 486 OFFCURVE",
"842 438 OFFCURVE",
"809 404 CURVE SMOOTH",
"788 384 OFFCURVE",
"763 368 OFFCURVE",
"735 366 CURVE",
"715 366 LINE",
"715 693 LINE",
"797 692 LINE SMOOTH"
);
},
{
closed = 1;
nodes = (
"803 362 OFFCURVE",
"828 384 OFFCURVE",
"859 433 CURVE",
"859 282 LINE",
"768 351 LINE"
);
},
{
closed = 1;
nodes = (
"906 43 OFFCURVE",
"933 76 OFFCURVE",
"958 129 CURVE SMOOTH",
"1003 223 LINE",
"1027 20 LINE",
"873 20 LINE"
);
},
{
closed = 1;
nodes = (
"931 609 LINE SMOOTH",
"910 648 OFFCURVE",
"892 669 OFFCURVE",
"867 688 CURVE",
"1027 688 LINE",
"1002 479 LINE"
);
},
{
closed = 1;
nodes = (
"160 40 OFFCURVE",
"52 150 OFFCURVE",
"52 352 CURVE SMOOTH",
"52 536 OFFCURVE",
"154 662 OFFCURVE",
"316 693 CURVE",
"276 638 OFFCURVE",
"258 529 OFFCURVE",
"258 356 CURVE SMOOTH",
"258 179 OFFCURVE",
"276 67 OFFCURVE",
"320 14 CURVE"
);
},
{
closed = 1;
nodes = (
"447 20 LINE",
"479 61 OFFCURVE",
"490 148 OFFCURVE",
"490 367 CURVE SMOOTH",
"490 557 OFFCURVE",
"480 637 OFFCURVE",
"449 688 CURVE",
"695 688 LINE",
"695 20 LINE"
);
}
);
width = 1102;
},
{
background = {
paths = (
{
closed = 1;
nodes = (
"600 12 OFFCURVE",
"564 104 OFFCURVE",
"564 354 CURVE SMOOTH",
"564 611 OFFCURVE",
"600 698 OFFCURVE",
"686 698 CURVE SMOOTH",
"724 698 OFFCURVE",
"751 682 OFFCURVE",
"770 642 CURVE SMOOTH",
"794 591 OFFCURVE",
"804 500 OFFCURVE",
"804 354 CURVE SMOOTH",
"804 234 OFFCURVE",
"797 152 OFFCURVE",
"781 98 CURVE SMOOTH",
"763 36 OFFCURVE",
"732 12 OFFCURVE",
"686 12 CURVE SMOOTH"
);
},
{
closed = 1;
nodes = (
"1581 691 OFFCURVE",
"1683 657 OFFCURVE",
"1773 579 CURVE SMOOTH",
"1950 424 LINE",
"1960 424 LINE",
"2034 708 LINE",
"882 708 LINE",
"817 708 OFFCURVE",
"751 708 OFFCURVE",
"686 708 CURVE",
"308 708 OFFCURVE",
"30 570 OFFCURVE",
"30 354 CURVE SMOOTH",
"30 138 OFFCURVE",
"308 0 OFFCURVE",
"686 0 CURVE",
"751 0 OFFCURVE",
"817 0 OFFCURVE",
"882 0 CURVE",
"2034 0 LINE",
"1960 284 LINE",
"1950 284 LINE",
"1802 140 LINE SMOOTH",
"1715 55 OFFCURVE",
"1601 17 OFFCURVE",
"1493 16 CURVE SMOOTH",
"1338 15 LINE",
"1338 356 LINE",
"1350 356 LINE",
"1661 246 LINE",
"1671 246 LINE",
"1671 506 LINE",
"1661 506 LINE",
"1650 488 OFFCURVE",
"1606 448 OFFCURVE",
"1546 416 CURVE SMOOTH",
"1495 388 OFFCURVE",
"1434 366 OFFCURVE",
"1371 366 CURVE SMOOTH",
"1338 366 LINE",
"1338 693 LINE",
"1493 692 LINE SMOOTH"
);
},
{
closed = 1;
nodes = (
"1521 372 OFFCURVE",
"1576 399 OFFCURVE",
"1649 462 CURVE",
"1649 274 LINE",
"1429 351 LINE"
);
},
{
closed = 1;
nodes = (
"1705 39 OFFCURVE",
"1765 73 OFFCURVE",
"1817 124 CURVE SMOOTH",
"1946 250 LINE",
"2006 20 LINE",
"1634 20 LINE"
);
},
{
closed = 1;
nodes = (
"1787 596 LINE SMOOTH",
"1735 642 OFFCURVE",
"1679 672 OFFCURVE",
"1619 688 CURVE",
"2006 688 LINE",
"1946 457 LINE"
);
},
{
closed = 1;
nodes = (
"278 27 OFFCURVE",
"52 165 OFFCURVE",
"52 354 CURVE SMOOTH",
"52 542 OFFCURVE",
"276 680 OFFCURVE",
"605 699 CURVE",
"560 646 OFFCURVE",
"542 535 OFFCURVE",
"542 354 CURVE SMOOTH",
"542 173 OFFCURVE",
"561 60 OFFCURVE",
"608 9 CURVE"
);
},
{
closed = 1;
nodes = (
"761 20 LINE",
"808 64 OFFCURVE",
"824 148 OFFCURVE",
"824 354 CURVE SMOOTH",
"824 554 OFFCURVE",
"809 637 OFFCURVE",
"763 688 CURVE",
"1318 688 LINE",
"1318 20 LINE"
);
}
);
};
layerId = "DF54607F-DD82-41E6-B2E3-81CA6D0E5C47";
paths = (
{
closed = 1;
nodes = (
"600 12 OFFCURVE",
"564 104 OFFCURVE",
"564 354 CURVE SMOOTH",
"564 611 OFFCURVE",
"600 698 OFFCURVE",
"686 698 CURVE SMOOTH",
"688 698 OFFCURVE",
"690 698 OFFCURVE",
"692 698 CURVE SMOOTH",
"773 698 OFFCURVE",
"804 603 OFFCURVE",
"804 354 CURVE SMOOTH",
"804 107 OFFCURVE",
"772 12 OFFCURVE",
"689 12 CURVE SMOOTH",
"688 12 OFFCURVE",
"687 12 OFFCURVE",
"686 12 CURVE SMOOTH"
);
},
{
closed = 1;
nodes = (
"1581 691 OFFCURVE",
"1683 657 OFFCURVE",
"1773 579 CURVE SMOOTH",
"1950 424 LINE",
"1960 424 LINE",
"2034 708 LINE",
"882 708 LINE",
"817 708 OFFCURVE",
"751 708 OFFCURVE",
"686 708 CURVE",
"308 708 OFFCURVE",
"30 570 OFFCURVE",
"30 354 CURVE SMOOTH",
"30 138 OFFCURVE",
"308 0 OFFCURVE",
"686 0 CURVE",
"751 0 OFFCURVE",
"817 0 OFFCURVE",
"882 0 CURVE",
"2034 0 LINE",
"1960 284 LINE",
"1950 284 LINE",
"1802 140 LINE SMOOTH",
"1715 55 OFFCURVE",
"1601 17 OFFCURVE",
"1493 16 CURVE SMOOTH",
"1338 15 LINE",
"1338 356 LINE",
"1350 356 LINE",
"1661 246 LINE",
"1671 246 LINE",
"1671 506 LINE",
"1661 506 LINE",
"1650 488 OFFCURVE",
"1606 448 OFFCURVE",
"1546 416 CURVE SMOOTH",
"1495 388 OFFCURVE",
"1434 366 OFFCURVE",
"1371 366 CURVE SMOOTH",
"1338 366 LINE",
"1338 693 LINE",
"1493 692 LINE SMOOTH"
);
},
{
closed = 1;
nodes = (
"1521 372 OFFCURVE",
"1576 399 OFFCURVE",
"1649 462 CURVE",
"1649 274 LINE",
"1429 351 LINE"
);
},
{
closed = 1;
nodes = (
"1705 39 OFFCURVE",
"1765 73 OFFCURVE",
"1817 124 CURVE SMOOTH",
"1946 250 LINE",
"2006 20 LINE",
"1634 20 LINE"
);
},
{
closed = 1;
nodes = (
"1787 596 LINE SMOOTH",
"1735 642 OFFCURVE",
"1679 672 OFFCURVE",
"1619 688 CURVE",
"2006 688 LINE",
"1946 457 LINE"
);
},
{
closed = 1;
nodes = (
"278 27 OFFCURVE",
"52 165 OFFCURVE",
"52 354 CURVE SMOOTH",
"52 542 OFFCURVE",
"276 680 OFFCURVE",
"605 699 CURVE",
"560 646 OFFCURVE",
"542 535 OFFCURVE",
"542 354 CURVE SMOOTH",
"542 173 OFFCURVE",
"561 60 OFFCURVE",
"608 9 CURVE"
);
},
{
closed = 1;
nodes = (
"761 20 LINE",
"808 64 OFFCURVE",
"824 148 OFFCURVE",
"824 354 CURVE SMOOTH",
"824 551 OFFCURVE",
"809 635 OFFCURVE",
"763 688 CURVE",
"1318 688 LINE",
"1318 20 LINE"
);
}
);
width = 2084;
},
{
background = {
paths = (
{
closed = 1;
nodes = (
"518 703 LINE",
"523 703 LINE",
"523 5 LINE",
"518 5 LINE"
);
}
);
};
layerId = "A5088515-37FF-452F-BD44-18A7A5EF88F0";
paths = (
{
closed = 1;
nodes = (
"198 1 OFFCURVE",
"96 134 OFFCURVE",
"96 360 CURVE SMOOTH",
"96 578 OFFCURVE",
"198 707 OFFCURVE",
"371 707 CURVE SMOOTH",
"420 707 OFFCURVE",
"474 693 OFFCURVE",
"513 669 CURVE",
"513 566 OFFCURVE",
"513 463 OFFCURVE",
"513 360 CURVE",
"513 253 OFFCURVE",
"513 147 OFFCURVE",
"513 40 CURVE",
"473 14 OFFCURVE",
"421 1 OFFCURVE",
"371 1 CURVE SMOOTH"
);
},
{
closed = 1;
nodes = (
"911 693 OFFCURVE",
"927 679 OFFCURVE",
"922 635 CURVE",
"906 484 LINE",
"921 484 LINE",
"955 708 LINE",
"468 708 LINE",
"439 718 OFFCURVE",
"407 723 OFFCURVE",
"371 723 CURVE SMOOTH",
"188 723 OFFCURVE",
"80 588 OFFCURVE",
"80 360 CURVE SMOOTH",
"80 124 OFFCURVE",
"188 -15 OFFCURVE",
"371 -15 CURVE SMOOTH",
"405 -15 OFFCURVE",
"437 -10 OFFCURVE",
"466 0 CURVE",
"955 0 LINE",
"921 243 LINE",
"906 243 LINE",
"928 83 LINE",
"935 32 OFFCURVE",
"923 15 OFFCURVE",
"878 15 CURVE SMOOTH",
"528 15 LINE",
"528 353 LINE",
"748 353 LINE",
"754 256 LINE",
"764 256 LINE",
"764 498 LINE",
"754 498 LINE",
"754 429 OFFCURVE",
"752 401 OFFCURVE",
"745 385 CURVE SMOOTH",
"740 374 OFFCURVE",
"730 368 OFFCURVE",
"717 368 CURVE SMOOTH",
"528 368 LINE",
"528 693 LINE",
"861 693 LINE SMOOTH"
);
},
{
closed = 1;
nodes = (
"754 369 OFFCURVE",
"756 379 OFFCURVE",
"757 388 CURVE",
"757 288 LINE",
"753 360 LINE"
);
},
{
closed = 1;
nodes = (
"928 8 OFFCURVE",
"943 29 OFFCURVE",
"935 84 CURVE SMOOTH",
"914 236 LINE",
"947 7 LINE",
"878 7 LINE"
);
},
{
closed = 1;
nodes = (
"929 634 LINE SMOOTH",
"934 683 OFFCURVE",
"915 700 OFFCURVE",
"861 701 CURVE",
"947 701 LINE",
"915 491 LINE"
);
},
{
closed = 1;
nodes = (
"133 87 OFFCURVE",
"85 200 OFFCURVE",
"85 360 CURVE SMOOTH",
"85 514 OFFCURVE",
"137 623 OFFCURVE",
"225 677 CURVE",
"143 624 OFFCURVE",
"91 513 OFFCURVE",
"91 360 CURVE SMOOTH",
"91 201 OFFCURVE",
"140 87 OFFCURVE",
"228 31 CURVE"
);
},
{
closed = 1;
nodes = (
"518 5 LINE",
"518 113 OFFCURVE",
"518 252 OFFCURVE",
"518 360 CURVE SMOOTH",
"518 458 OFFCURVE",
"518 573 OFFCURVE",
"518 703 CURVE",
"523 703 LINE",
"523 5 LINE"
);
}
);
width = 1030;
},
{
background = {
paths = (
{
closed = 1;
nodes = (
"803 703 LINE",
"808 703 LINE",
"808 5 LINE",
"803 5 LINE"
);
},
{
closed = 1;
nodes = (
"1189 369 OFFCURVE",
"1191 379 OFFCURVE",
"1192 388 CURVE",
"1192 288 LINE",
"1188 360 LINE"
);
},
{
closed = 1;
nodes = (
"1503 8 OFFCURVE",
"1517 31 OFFCURVE",
"1509 92 CURVE SMOOTH",
"1490 236 LINE",
"1522 7 LINE",
"1453 7 LINE"
);
},
{
closed = 1;
nodes = (
"1505 624 LINE SMOOTH",
"1511 679 OFFCURVE",
"1492 700 OFFCURVE",
"1436 701 CURVE",
"1522 701 LINE",
"1490 491 LINE"
);
}
);
};
layerId = "35A90D60-3AD4-435C-9F8B-D1CA483F6F66";
paths = (
{
closed = 1;
nodes = (
"300 1 OFFCURVE",
"105 150 OFFCURVE",
"105 360 CURVE SMOOTH",
"105 563 OFFCURVE",
"300 707 OFFCURVE",
"576 707 CURVE SMOOTH",
"649 707 OFFCURVE",
"734 694 OFFCURVE",
"798 670 CURVE",
"798 567 OFFCURVE",
"798 463 OFFCURVE",
"798 360 CURVE",
"798 253 OFFCURVE",
"798 147 OFFCURVE",
"798 40 CURVE",
"734 15 OFFCURVE",
"659 1 OFFCURVE",
"576 1 CURVE SMOOTH"
);
},
{
closed = 1;
nodes = (
"1488 693 OFFCURVE",
"1504 676 OFFCURVE",
"1498 625 CURVE",
"1481 484 LINE",
"1496 484 LINE",
"1530 708 LINE",
"723 708 LINE",
"678 718 OFFCURVE",
"628 723 OFFCURVE",
"576 723 CURVE SMOOTH",
"291 723 OFFCURVE",
"90 573 OFFCURVE",
"90 360 CURVE SMOOTH",
"90 140 OFFCURVE",
"291 -15 OFFCURVE",
"576 -15 CURVE SMOOTH",
"628 -15 OFFCURVE",
"677 -10 OFFCURVE",
"723 0 CURVE",
"1530 0 LINE",
"1496 243 LINE",
"1481 243 LINE",
"1502 91 LINE",
"1510 34 OFFCURVE",
"1498 15 OFFCURVE",
"1453 15 CURVE SMOOTH",
"813 15 LINE",
"813 353 LINE",
"1183 353 LINE",
"1189 256 LINE",
"1199 256 LINE",
"1199 498 LINE",
"1189 498 LINE",
"1189 433 OFFCURVE",
"1185 391 OFFCURVE",
"1179 381 CURVE SMOOTH",
"1174 372 OFFCURVE",
"1165 368 OFFCURVE",
"1152 368 CURVE SMOOTH",
"813 368 LINE",
"813 693 LINE",
"1436 693 LINE SMOOTH"
);
},
{
closed = 1;
nodes = (
"1189 369 OFFCURVE",
"1191 379 OFFCURVE",
"1192 388 CURVE",
"1192 288 LINE",
"1188 360 LINE"
);
},
{
closed = 1;
nodes = (
"1503 8 OFFCURVE",
"1517 31 OFFCURVE",
"1509 92 CURVE SMOOTH",
"1490 236 LINE",
"1522 7 LINE",
"1453 7 LINE"
);
},
{
closed = 1;
nodes = (
"1505 624 LINE SMOOTH",
"1511 679 OFFCURVE",
"1492 700 OFFCURVE",
"1436 701 CURVE",
"1522 701 LINE",
"1490 491 LINE"
);
},
{
closed = 1;
nodes = (
"191 89 OFFCURVE",
"95 208 OFFCURVE",
"95 360 CURVE SMOOTH",
"95 505 OFFCURVE",
"190 620 OFFCURVE",
"349 677 CURVE",
"195 621 OFFCURVE",
"100 505 OFFCURVE",
"100 360 CURVE SMOOTH",
"100 209 OFFCURVE",
"195 88 OFFCURVE",
"352 31 CURVE"
);
},
{
closed = 1;
nodes = (
"803 5 LINE",
"803 113 OFFCURVE",
"803 252 OFFCURVE",
"803 360 CURVE SMOOTH",
"803 458 OFFCURVE",
"803 602 OFFCURVE",
"803 703 CURVE",
"808 703 LINE",
"808 5 LINE"
);
}
);
width = 1645;
}
);
leftKerningGroup = OO;
leftMetricsKey = O;
rightKerningGroup = E;
rightMetricsKey = E;
unicode = 0152;
},
{
color = 4;
glyphname = P;
lastChange = "2022-08-05 06:04:53 +0000";
layers = (
{
layerId = "2660E96A-9963-4076-AFCB-E451BC6EE103";
paths = (
{
closed = 1;
nodes = (
"365 0 LINE",
"365 10 LINE",
"315 20 LINE",
"315 688 LINE",
"322 691 OFFCURVE",
"360 692 OFFCURVE",
"369 692 CURVE SMOOTH",
"468 692 OFFCURVE",
"495 605 OFFCURVE",
"495 514 CURVE SMOOTH",
"495 363 OFFCURVE",
"403 331 OFFCURVE",
"339 327 CURVE SMOOTH",
"322 326 OFFCURVE",
"316 328 OFFCURVE",
"309 331 CURVE",
"308 314 LINE",
"322 312 OFFCURVE",
"355 310 OFFCURVE",
"381 311 CURVE SMOOTH",
"567 311 OFFCURVE",
"745 368 OFFCURVE",
"745 524 CURVE SMOOTH",
"745 671 OFFCURVE",
"598 708 OFFCURVE",
"454 708 CURVE SMOOTH",
"20 708 LINE",
"20 698 LINE",
"70 688 LINE",
"70 20 LINE",
"20 10 LINE",
"20 0 LINE"
);
},
{
closed = 1;
nodes = (
"90 688 LINE",
"295 688 LINE",
"295 20 LINE",
"90 20 LINE"
);
},
{
closed = 1;
nodes = (
"483 361 OFFCURVE",
"515 422 OFFCURVE",
"515 514 CURVE SMOOTH",
"515 602 OFFCURVE",
"492 660 OFFCURVE",
"446 691 CURVE",
"634 691 OFFCURVE",
"725 634 OFFCURVE",
"725 524 CURVE SMOOTH",
"725 407 OFFCURVE",
"627 341 OFFCURVE",
"419 329 CURVE"
);
}
);
width = 775;
},
{
layerId = "DF54607F-DD82-41E6-B2E3-81CA6D0E5C47";
paths = (
{
closed = 1;
nodes = (
"640 0 LINE",
"640 10 LINE",
"590 20 LINE",
"590 686 LINE",
"597 689 OFFCURVE",
"635 692 OFFCURVE",
"644 692 CURVE SMOOTH",
"729 692 OFFCURVE",
"770 634 OFFCURVE",
"770 514 CURVE SMOOTH",
"770 363 OFFCURVE",
"678 331 OFFCURVE",
"614 327 CURVE SMOOTH",
"597 326 OFFCURVE",
"591 328 OFFCURVE",
"584 331 CURVE",
"583 314 LINE",
"597 312 OFFCURVE",
"630 310 OFFCURVE",
"656 311 CURVE SMOOTH",
"1095 311 OFFCURVE",
"1310 381 OFFCURVE",
"1310 524 CURVE SMOOTH",
"1310 648 OFFCURVE",
"1119 708 OFFCURVE",
"729 708 CURVE SMOOTH",
"20 708 LINE",
"20 698 LINE",
"70 688 LINE",
"70 20 LINE",
"20 10 LINE",
"20 0 LINE"
);
},
{
closed = 1;
nodes = (
"90 688 LINE",
"570 688 LINE",
"570 20 LINE",
"90 20 LINE"
);
},
{
closed = 1;
nodes = (
"750 355 OFFCURVE",
"790 411 OFFCURVE",
"790 514 CURVE SMOOTH",
"790 604 OFFCURVE",
"768 662 OFFCURVE",
"723 691 CURVE",
"1104 691 OFFCURVE",
"1290 634 OFFCURVE",
"1290 524 CURVE SMOOTH",
"1290 400 OFFCURVE",
"1095 334 OFFCURVE",
"700 329 CURVE"
);
}
);
width = 1340;
},
{
layerId = "A5088515-37FF-452F-BD44-18A7A5EF88F0";
name = Thin;
paths = (
{
closed = 1;
nodes = (
"235 0 LINE",
"235 10 LINE",
"165 25 LINE",
"165 683 LINE",
"223 693 OFFCURVE",
"281 692 OFFCURVE",
"345 692 CURVE SMOOTH",
"480 692 OFFCURVE",
"559 627 OFFCURVE",
"559 517 CURVE SMOOTH",
"559 400 OFFCURVE",
"479 331 OFFCURVE",
"343 331 CURVE SMOOTH",
"263 331 OFFCURVE",
"210 339 OFFCURVE",
"163 355 CURVE",
"163 329 LINE",
"234 321 OFFCURVE",
"276 315 OFFCURVE",
"343 315 CURVE SMOOTH",
"488 315 OFFCURVE",
"574 390 OFFCURVE",
"574 517 CURVE SMOOTH",
"574 637 OFFCURVE",
"489 708 OFFCURVE",
"345 708 CURVE SMOOTH",
"80 708 LINE",
"80 698 LINE",
"150 683 LINE",
"150 25 LINE",
"80 10 LINE",
"80 0 LINE"
);
},
{
closed = 1;
nodes = (
"155 703 LINE",
"160 703 LINE",
"160 5 LINE",
"155 5 LINE"
);
},
{
closed = 1;
nodes = (
"508 353 OFFCURVE",
"564 418 OFFCURVE",
"564 517 CURVE SMOOTH",
"564 609 OFFCURVE",
"509 671 OFFCURVE",
"425 692 CURVE",
"514 674 OFFCURVE",
"569 609 OFFCURVE",
"569 517 CURVE SMOOTH",
"569 418 OFFCURVE",
"517 351 OFFCURVE",
"418 331 CURVE"
);
}
);
width = 614;
},
{
background = {
paths = (
{
closed = 1;
nodes = (
"100 708 LINE",
"100 698 LINE",
"209 683 LINE",
"209 25 LINE",
"100 10 LINE",
"100 0 LINE",
"334 0 LINE",
"334 10 LINE",
"224 25 LINE",
"224 683 LINE",
"324 693 OFFCURVE",
"424 692 OFFCURVE",
"535 692 CURVE SMOOTH",
"768 692 OFFCURVE",
"916 627 OFFCURVE",
"916 517 CURVE SMOOTH",
"916 400 OFFCURVE",
"767 331 OFFCURVE",
"531 331 CURVE SMOOTH",
"390 331 OFFCURVE",
"297 339 OFFCURVE",
"213 356 CURVE",
"214 329 LINE",
"340 321 OFFCURVE",
"414 315 OFFCURVE",
"531 315 CURVE",
"783 315 OFFCURVE",
"931 390 OFFCURVE",
"931 517 CURVE SMOOTH",
"931 637 OFFCURVE",
"784 708 OFFCURVE",
"535 708 CURVE"
);
}
);
};
layerId = "35A90D60-3AD4-435C-9F8B-D1CA483F6F66";
name = "Thin Extended";
paths = (
{
closed = 1;
nodes = (
"334 0 LINE",
"334 10 LINE",
"224 25 LINE",
"224 683 LINE",
"324 693 OFFCURVE",
"424 692 OFFCURVE",
"535 692 CURVE SMOOTH",
"768 692 OFFCURVE",
"916 627 OFFCURVE",
"916 517 CURVE SMOOTH",
"916 400 OFFCURVE",
"767 331 OFFCURVE",
"531 331 CURVE SMOOTH",
"395 331 OFFCURVE",
"303 338 OFFCURVE",
"222 354 CURVE",
"222 329 LINE",
"343 321 OFFCURVE",
"416 315 OFFCURVE",
"531 315 CURVE SMOOTH",
"783 315 OFFCURVE",
"931 390 OFFCURVE",
"931 517 CURVE SMOOTH",
"931 637 OFFCURVE",
"784 708 OFFCURVE",
"535 708 CURVE SMOOTH",
"100 708 LINE",
"100 698 LINE",
"209 683 LINE",
"209 25 LINE",
"100 10 LINE",
"100 0 LINE"
);
},
{
closed = 1;
nodes = (
"214 703 LINE",
"219 703 LINE",
"219 5 LINE",
"214 5 LINE"
);
},
{
closed = 1;
nodes = (
"824 354 OFFCURVE",
"921 421 OFFCURVE",
"921 517 CURVE SMOOTH",
"921 607 OFFCURVE",
"824 670 OFFCURVE",
"671 692 CURVE",
"834 673 OFFCURVE",
"926 607 OFFCURVE",
"926 517 CURVE SMOOTH",
"926 421 OFFCURVE",
"833 352 OFFCURVE",
"664 331 CURVE"
);
}
);
width = 1001;
}
);
leftKerningGroup = HH;
leftMetricsKey = H;
rightKerningGroup = P;
unicode = 0050;
},
{
color = 4;
glyphname = Thorn;
lastChange = "2022-08-05 06:04:53 +0000";
layers = (
{
layerId = "2660E96A-9963-4076-AFCB-E451BC6EE103";
paths = (
{
closed = 1;
nodes = (
"365 0 LINE",
"365 10 LINE",
"315 25 LINE",
"315 683 LINE",
"365 698 LINE",
"365 708 LINE",
"20 708 LINE",
"20 698 LINE",
"70 683 LINE",
"70 25 LINE",
"20 10 LINE",
"20 0 LINE"
);
},
{
closed = 1;
nodes = (
"568 185 OFFCURVE",
"745 238 OFFCURVE",
"745 394 CURVE SMOOTH",
"745 541 OFFCURVE",
"598 582 OFFCURVE",
"454 582 CURVE SMOOTH",
"402 582 OFFCURVE",
"338 576 OFFCURVE",
"305 574 CURVE",
"305 558 LINE",
"322 561 OFFCURVE",
"360 562 OFFCURVE",
"369 562 CURVE SMOOTH",
"468 562 OFFCURVE",
"495 475 OFFCURVE",
"495 384 CURVE SMOOTH",
"495 261 OFFCURVE",
"407 196 OFFCURVE",
"333 196 CURVE SMOOTH",
"325 196 OFFCURVE",
"311 198 OFFCURVE",
"309 199 CURVE",
"308 188 LINE",
"322 186 OFFCURVE",
"355 185 OFFCURVE",
"381 185 CURVE SMOOTH"
);
},
{
closed = 1;
nodes = (
"90 688 LINE",
"295 688 LINE",
"295 20 LINE",
"90 20 LINE"
);
},
{
closed = 1;
nodes = (
"483 231 OFFCURVE",
"515 292 OFFCURVE",
"515 384 CURVE SMOOTH",
"515 471 OFFCURVE",
"492 530 OFFCURVE",
"446 561 CURVE",
"634 561 OFFCURVE",
"725 504 OFFCURVE",
"725 394 CURVE SMOOTH",
"725 277 OFFCURVE",
"627 211 OFFCURVE",
"419 199 CURVE"
);
}
);
width = 775;
},
{
layerId = "DF54607F-DD82-41E6-B2E3-81CA6D0E5C47";
paths = (
{
closed = 1;
nodes = (
"640 0 LINE",
"640 10 LINE",
"590 20 LINE",
"590 688 LINE",
"640 698 LINE",
"640 708 LINE",
"20 708 LINE",
"20 698 LINE",
"70 688 LINE",
"70 20 LINE",
"20 10 LINE",
"20 0 LINE"
);
},
{
closed = 1;
nodes = (
"1095 221 OFFCURVE",
"1310 291 OFFCURVE",
"1310 434 CURVE SMOOTH",
"1310 558 OFFCURVE",
"1119 618 OFFCURVE",
"729 618 CURVE SMOOTH",
"681 618 OFFCURVE",
"634 618 OFFCURVE",
"586 615 CURVE",
"590 596 LINE",
"597 599 OFFCURVE",
"635 602 OFFCURVE",
"644 602 CURVE SMOOTH",
"729 602 OFFCURVE",
"770 544 OFFCURVE",
"770 424 CURVE SMOOTH",
"770 273 OFFCURVE",
"678 241 OFFCURVE",
"614 237 CURVE SMOOTH",
"597 236 OFFCURVE",
"591 238 OFFCURVE",
"584 241 CURVE",
"583 224 LINE",
"597 222 OFFCURVE",
"630 220 OFFCURVE",
"656 221 CURVE"
);
},
{
closed = 1;
nodes = (
"90 688 LINE",
"570 688 LINE",
"570 20 LINE",
"90 20 LINE"
);
},
{
closed = 1;
nodes = (
"750 265 OFFCURVE",
"790 321 OFFCURVE",
"790 424 CURVE SMOOTH",
"790 514 OFFCURVE",
"768 572 OFFCURVE",
"723 601 CURVE",
"1104 601 OFFCURVE",
"1290 544 OFFCURVE",
"1290 434 CURVE SMOOTH",
"1290 310 OFFCURVE",
"1095 244 OFFCURVE",
"700 239 CURVE"
);
}
);
width = 1340;
},
{
layerId = "A5088515-37FF-452F-BD44-18A7A5EF88F0";
paths = (
{
closed = 1;
nodes = (
"235 0 LINE",
"235 10 LINE",
"165 20 LINE",
"165 688 LINE",
"235 698 LINE",
"235 708 LINE",
"80 708 LINE",
"80 698 LINE",
"150 688 LINE",
"150 20 LINE",
"80 10 LINE",
"80 0 LINE"
);
},
{
closed = 1;
nodes = (
"490 185 OFFCURVE",
"574 260 OFFCURVE",
"574 387 CURVE SMOOTH",
"574 507 OFFCURVE",
"489 578 OFFCURVE",
"345 578 CURVE",
"269 578 OFFCURVE",
"220 574 OFFCURVE",
"158 572 CURVE",
"159 551 LINE",
"218 563 OFFCURVE",
"278 562 OFFCURVE",
"345 562 CURVE SMOOTH",
"480 562 OFFCURVE",
"559 497 OFFCURVE",
"559 387 CURVE SMOOTH",
"559 270 OFFCURVE",
"479 201 OFFCURVE",
"343 201 CURVE SMOOTH",
"261 201 OFFCURVE",
"207 209 OFFCURVE",
"159 226 CURVE",
"159 199 LINE",
"232 191 OFFCURVE",
"275 185 OFFCURVE",
"343 185 CURVE SMOOTH"
);
},
{
closed = 1;
nodes = (
"155 703 LINE",
"160 703 LINE",
"160 5 LINE",
"155 5 LINE"
);
},
{
closed = 1;
nodes = (
"508 223 OFFCURVE",
"564 288 OFFCURVE",
"564 387 CURVE SMOOTH",
"564 479 OFFCURVE",
"509 541 OFFCURVE",
"425 562 CURVE",
"514 544 OFFCURVE",
"569 479 OFFCURVE",
"569 387 CURVE SMOOTH",
"569 288 OFFCURVE",
"517 221 OFFCURVE",
"418 201 CURVE"
);
}
);
width = 614;
},
{
layerId = "35A90D60-3AD4-435C-9F8B-D1CA483F6F66";
paths = (
{
closed = 1;
nodes = (
"334 0 LINE",
"334 10 LINE",
"224 25 LINE",
"224 683 LINE",
"334 698 LINE",
"334 708 LINE",
"100 708 LINE",
"100 698 LINE",
"209 683 LINE",
"209 25 LINE",
"100 10 LINE",
"100 0 LINE"
);
},
{
closed = 1;
nodes = (
"780 180 OFFCURVE",
"928 255 OFFCURVE",
"928 382 CURVE SMOOTH",
"928 502 OFFCURVE",
"781 573 OFFCURVE",
"532 573 CURVE",
"425 573 OFFCURVE",
"323 572 OFFCURVE",
"221 566 CURVE",
"221 548 LINE",
"321 558 OFFCURVE",
"421 557 OFFCURVE",
"532 557 CURVE SMOOTH",
"765 557 OFFCURVE",
"913 492 OFFCURVE",
"913 382 CURVE SMOOTH",
"913 265 OFFCURVE",
"764 196 OFFCURVE",
"528 196 CURVE SMOOTH",
"387 196 OFFCURVE",
"294 204 OFFCURVE",
"210 221 CURVE",
"211 194 LINE",
"337 186 OFFCURVE",
"411 180 OFFCURVE",
"528 180 CURVE"
);
},
{
closed = 1;
nodes = (
"214 703 LINE",
"219 703 LINE",
"219 5 LINE",
"214 5 LINE"
);
},
{
closed = 1;
nodes = (
"821 219 OFFCURVE",
"918 286 OFFCURVE",
"918 382 CURVE SMOOTH",
"918 472 OFFCURVE",
"821 535 OFFCURVE",
"668 557 CURVE",
"831 538 OFFCURVE",
"923 472 OFFCURVE",
"923 382 CURVE SMOOTH",
"923 286 OFFCURVE",
"830 217 OFFCURVE",
"661 196 CURVE"
);
}
);
width = 998;
}
);
leftKerningGroup = HH;
leftMetricsKey = P;
rightKerningGroup = thorn;
rightMetricsKey = P;
unicode = 00DE;
},
{
color = 4;
glyphname = Q;
lastChange = "2022-08-05 06:04:53 +0000";
layers = (
{
components = (
{
name = O;
}
);
layerId = "2660E96A-9963-4076-AFCB-E451BC6EE103";
paths = (
{
closed = 1;
nodes = (
"389 -129 OFFCURVE",
"443 -215 OFFCURVE",
"529 -215 CURVE SMOOTH",
"625 -215 OFFCURVE",
"642 -89 OFFCURVE",
"645 -67 CURVE",
"639 -65 LINE",
"635 -84 OFFCURVE",
"604 -120 OFFCURVE",
"532 -120 CURVE SMOOTH",
"468 -120 OFFCURVE",
"402 -91 OFFCURVE",
"384 -5 CURVE",
"369 -5 LINE"
);
},
{
closed = 1;
nodes = (
"595 -160 OFFCURVE",
"572 -193 OFFCURVE",
"529 -193 CURVE SMOOTH",
"480 -193 OFFCURVE",
"444 -161 OFFCURVE",
"420 -106 CURVE",
"452 -132 OFFCURVE",
"493 -142 OFFCURVE",
"532 -142 CURVE SMOOTH",
"563 -142 OFFCURVE",
"588 -136 OFFCURVE",
"607 -127 CURVE"
);
}
);
width = 800;
},
{
components = (
{
name = O;
}
);
layerId = "DF54607F-DD82-41E6-B2E3-81CA6D0E5C47";
paths = (
{
closed = 1;
nodes = (
"675 -129 OFFCURVE",
"767 -215 OFFCURVE",
"913 -215 CURVE SMOOTH",
"1076 -215 OFFCURVE",
"1105 -89 OFFCURVE",
"1111 -67 CURVE",
"1100 -65 LINE",
"1093 -84 OFFCURVE",
"1041 -120 OFFCURVE",
"918 -120 CURVE SMOOTH",
"809 -120 OFFCURVE",
"697 -91 OFFCURVE",
"666 -5 CURVE",
"640 -5 LINE"
);
},
{
closed = 1;
nodes = (
"1044 -154 OFFCURVE",
"1000 -193 OFFCURVE",
"913 -193 CURVE SMOOTH",
"813 -193 OFFCURVE",
"743 -152 OFFCURVE",
"699 -84 CURVE",
"755 -127 OFFCURVE",
"839 -142 OFFCURVE",
"918 -142 CURVE SMOOTH",
"986 -142 OFFCURVE",
"1034 -132 OFFCURVE",
"1067 -117 CURVE"
);
}
);
width = 1368;
},
{
components = (
{
name = O;
}
);
layerId = "A5088515-37FF-452F-BD44-18A7A5EF88F0";
paths = (
{
closed = 1;
nodes = (
"413 -112 OFFCURVE",
"470 -165 OFFCURVE",
"554 -165 CURVE SMOOTH",
"616 -165 OFFCURVE",
"645 -132 OFFCURVE",
"655 -110 CURVE",
"650 -105 LINE",
"650 -105 OFFCURVE",
"637 -151 OFFCURVE",
"554 -151 CURVE SMOOTH",
"477 -151 OFFCURVE",
"424 -103 OFFCURVE",
"394 -5 CURVE",
"380 -5 LINE"
);
},
{
closed = 1;
nodes = (
"594 -156 OFFCURVE",
"575 -160 OFFCURVE",
"554 -160 CURVE SMOOTH",
"497 -160 OFFCURVE",
"454 -135 OFFCURVE",
"422 -84 CURVE",
"454 -132 OFFCURVE",
"498 -156 OFFCURVE",
"554 -156 CURVE SMOOTH",
"579 -156 OFFCURVE",
"598 -153 OFFCURVE",
"610 -147 CURVE"
);
}
);
width = 740;
},
{
components = (
{
name = O;
}
);
layerId = "35A90D60-3AD4-435C-9F8B-D1CA483F6F66";
paths = (
{
closed = 1;
nodes = (
"586 -112 OFFCURVE",
"666 -165 OFFCURVE",
"784 -165 CURVE SMOOTH",
"870 -165 OFFCURVE",
"911 -132 OFFCURVE",
"925 -110 CURVE",
"918 -105 LINE",
"918 -105 OFFCURVE",
"900 -151 OFFCURVE",
"784 -151 CURVE SMOOTH",
"676 -151 OFFCURVE",
"596 -103 OFFCURVE",
"554 -5 CURVE",
"540 -5 LINE"
);
},
{
closed = 1;
nodes = (
"845 -155 OFFCURVE",
"816 -160 OFFCURVE",
"784 -160 CURVE SMOOTH",
"704 -160 OFFCURVE",
"642 -135 OFFCURVE",
"597 -84 CURVE",
"643 -132 OFFCURVE",
"705 -156 OFFCURVE",
"784 -156 CURVE SMOOTH",
"816 -156 OFFCURVE",
"845 -153 OFFCURVE",
"864 -147 CURVE"
);
}
);
width = 1147;
}
);
leftKerningGroup = OO;
leftMetricsKey = O;
rightKerningGroup = O;
rightMetricsKey = O;
unicode = 0051;
},
{
color = 4;
glyphname = R;
lastChange = "2022-08-05 06:04:53 +0000";
layers = (
{
background = {
paths = (
{
closed = 1;
nodes = (
"705 443 OFFCURVE",
"594 406 OFFCURVE",
"449 391 CURVE",
"488 421 OFFCURVE",
"509 472 OFFCURVE",
"509 538 CURVE SMOOTH",
"509 608 OFFCURVE",
"489 660 OFFCURVE",
"450 688 CURVE",
"606 688 OFFCURVE",
"705 656 OFFCURVE",
"705 544 CURVE SMOOTH"
);
},
{
closed = 1;
nodes = (
"509 333 OFFCURVE",
"582 304 OFFCURVE",
"612 225 CURVE SMOOTH",
"647 138 OFFCURVE",
"677 54 OFFCURVE",
"711 26 CURVE SMOOTH",
"713 24 LINE",
"684 9 OFFCURVE",
"649 5 OFFCURVE",
"625 5 CURVE SMOOTH",
"543 5 OFFCURVE",
"487 45 OFFCURVE",
"455 107 CURVE SMOOTH",
"433 150 OFFCURVE",
"402 230 OFFCURVE",
"367 334 CURVE"
);
}
);
};
layerId = "2660E96A-9963-4076-AFCB-E451BC6EE103";
paths = (
{
closed = 1;
nodes = (
"656 -15 OFFCURVE",
"709 -8 OFFCURVE",
"745 22 CURVE",
"745 32 LINE",
"738 32 OFFCURVE",
"731 35 OFFCURVE",
"724 41 CURVE SMOOTH",
"694 66 OFFCURVE",
"665 146 OFFCURVE",
"631 232 CURVE SMOOTH",
"597 320 OFFCURVE",
"511 354 OFFCURVE",
"363 354 CURVE",
"363 364 LINE",
"549 374 OFFCURVE",
"725 407 OFFCURVE",
"725 544 CURVE SMOOTH",
"725 671 OFFCURVE",
"609 708 OFFCURVE",
"465 708 CURVE SMOOTH",
"20 708 LINE",
"20 698 LINE",
"70 689 LINE",
"70 20 LINE",
"20 10 LINE",
"20 0 LINE",
"365 0 LINE",
"365 10 LINE",
"315 20 LINE",
"315 353 LINE",
"340 353 LINE",
"378 236 OFFCURVE",
"413 145 OFFCURVE",
"437 98 CURVE SMOOTH",
"471 31 OFFCURVE",
"537 -15 OFFCURVE",
"625 -15 CURVE SMOOTH"
);
},
{
closed = 1;
nodes = (
"331 378 OFFCURVE",
"323 379 OFFCURVE",
"315 383 CURVE",
"315 688 LINE",
"333 692 OFFCURVE",
"348 692 OFFCURVE",
"370 692 CURVE SMOOTH",
"446 692 OFFCURVE",
"489 637 OFFCURVE",
"489 538 CURVE SMOOTH",
"489 435 OFFCURVE",
"435 378 OFFCURVE",
"339 378 CURVE SMOOTH"
);
},
{
closed = 1;
nodes = (
"90 688 LINE",
"295 688 LINE",
"295 20 LINE",
"90 20 LINE"
);
},
{
closed = 1;
nodes = (
"488 421 OFFCURVE",
"509 472 OFFCURVE",
"509 538 CURVE SMOOTH",
"509 608 OFFCURVE",
"489 660 OFFCURVE",
"450 688 CURVE",
"606 688 OFFCURVE",
"705 656 OFFCURVE",
"705 544 CURVE SMOOTH",
"705 443 OFFCURVE",
"594 406 OFFCURVE",
"449 391 CURVE"
);
},
{
closed = 1;
nodes = (
"509 333 OFFCURVE",
"582 304 OFFCURVE",
"612 225 CURVE SMOOTH",
"643 147 OFFCURVE",
"671 71 OFFCURVE",
"702 35 CURVE SMOOTH",
"706 31 OFFCURVE",
"709 27 OFFCURVE",
"713 24 CURVE",
"684 9 OFFCURVE",
"649 5 OFFCURVE",
"625 5 CURVE SMOOTH",
"543 5 OFFCURVE",
"487 45 OFFCURVE",
"455 107 CURVE SMOOTH",
"433 150 OFFCURVE",
"402 230 OFFCURVE",
"367 334 CURVE"
);
}
);
width = 750;
},
{
background = {
paths = (
{
closed = 1;
nodes = (
"1371 440 OFFCURVE",
"1101 404 OFFCURVE",
"797 389 CURVE",
"873 421 OFFCURVE",
"910 476 OFFCURVE",
"910 538 CURVE SMOOTH",
"910 598 OFFCURVE",
"886 656 OFFCURVE",
"813 688 CURVE",
"1143 688 OFFCURVE",
"1371 654 OFFCURVE",
"1371 544 CURVE SMOOTH"
);
},
{
closed = 1;
nodes = (
"744 158 OFFCURVE",
"699 226 OFFCURVE",
"646 334 CURVE",
"942 334 OFFCURVE",
"1115 294 OFFCURVE",
"1175 219 CURVE SMOOTH",
"1245 133 OFFCURVE",
"1310 55 OFFCURVE",
"1375 25 CURVE",
"1308 9 OFFCURVE",
"1229 5 OFFCURVE",
"1178 5 CURVE SMOOTH",
"994 5 OFFCURVE",
"861 49 OFFCURVE",
"793 113 CURVE SMOOTH"
);
}
);
};
layerId = "DF54607F-DD82-41E6-B2E3-81CA6D0E5C47";
paths = (
{
closed = 1;
nodes = (
"1244 -15 OFFCURVE",
"1357 -8 OFFCURVE",
"1433 22 CURVE",
"1433 32 LINE",
"1422 32 OFFCURVE",
"1411 34 OFFCURVE",
"1400 37 CURVE SMOOTH",
"1334 57 OFFCURVE",
"1267 138 OFFCURVE",
"1191 232 CURVE SMOOTH",
"1126 312 OFFCURVE",
"944 354 OFFCURVE",
"662 354 CURVE",
"662 364 LINE",
"1017 374 OFFCURVE",
"1391 407 OFFCURVE",
"1391 544 CURVE SMOOTH",
"1391 671 OFFCURVE",
"1144 708 OFFCURVE",
"839 708 CURVE SMOOTH",
"20 708 LINE",
"20 698 LINE",
"70 689 LINE",
"70 20 LINE",
"20 10 LINE",
"20 0 LINE",
"641 0 LINE",
"641 10 LINE",
"590 20 LINE",
"590 353 LINE",
"613 353 LINE",
"675 226 OFFCURVE",
"725 148 OFFCURVE",
"779 98 CURVE SMOOTH",
"851 31 OFFCURVE",
"991 -15 OFFCURVE",
"1178 -15 CURVE SMOOTH"
);
},
{
closed = 1;
nodes = (
"606 378 OFFCURVE",
"597 380 OFFCURVE",
"590 383 CURVE",
"590 688 LINE",
"616 692 OFFCURVE",
"653 692 OFFCURVE",
"677 692 CURVE SMOOTH",
"843 692 OFFCURVE",
"890 617 OFFCURVE",
"890 538 CURVE SMOOTH",
"890 450 OFFCURVE",
"803 378 OFFCURVE",
"611 378 CURVE SMOOTH"
);
},
{
closed = 1;
nodes = (
"90 688 LINE",
"570 688 LINE",
"570 20 LINE",
"90 20 LINE"
);
},
{
closed = 1;
nodes = (
"873 421 OFFCURVE",
"910 476 OFFCURVE",
"910 538 CURVE SMOOTH",
"910 598 OFFCURVE",
"886 656 OFFCURVE",
"813 688 CURVE",
"1143 688 OFFCURVE",
"1371 654 OFFCURVE",
"1371 544 CURVE SMOOTH",
"1371 440 OFFCURVE",
"1101 404 OFFCURVE",
"797 389 CURVE"
);
},
{
closed = 1;
nodes = (
"942 334 OFFCURVE",
"1115 294 OFFCURVE",
"1175 219 CURVE SMOOTH",
"1239 140 OFFCURVE",
"1299 68 OFFCURVE",
"1359 33 CURVE SMOOTH",
"1364 30 OFFCURVE",
"1370 27 OFFCURVE",
"1375 25 CURVE",
"1308 9 OFFCURVE",
"1229 5 OFFCURVE",
"1178 5 CURVE SMOOTH",
"994 5 OFFCURVE",
"861 49 OFFCURVE",
"793 113 CURVE SMOOTH",
"744 158 OFFCURVE",
"699 226 OFFCURVE",
"646 334 CURVE"
);
}
);
width = 1438;
},
{
background = {
paths = (
{
closed = 1;
nodes = (
"369 341 CURVE",
"418 330 OFFCURVE",
"456 283 OFFCURVE",
"505 178 CURVE SMOOTH",
"570 42 OFFCURVE",
"603 -5 OFFCURVE",
"637 -5 CURVE SMOOTH",
"642 -5 OFFCURVE",
"649 -4 OFFCURVE",
"655 -2 CURVE",
"647 -7 OFFCURVE",
"638 -10 OFFCURVE",
"630 -10 CURVE SMOOTH",
"599 -10 OFFCURVE",
"567 35 OFFCURVE",
"503 173 CURVE SMOOTH",
"460 266 OFFCURVE",
"418 319 OFFCURVE"
);
},
{
closed = 1;
nodes = (
"369 358 LINE",
"467 373 OFFCURVE",
"564 423 OFFCURVE",
"564 532 CURVE SMOOTH",
"564 638 OFFCURVE",
"488 698 OFFCURVE",
"355 698 CURVE",
"355 703 LINE",
"493 703 OFFCURVE",
"569 643 OFFCURVE",
"569 532 CURVE SMOOTH",
"569 418 OFFCURVE",
"463 368 OFFCURVE",
"374 354 CURVE"
);
}
);
};
layerId = "A5088515-37FF-452F-BD44-18A7A5EF88F0";
paths = (
{
closed = 1;
nodes = (
"640 -15 OFFCURVE",
"651 -11 OFFCURVE",
"660 -4 CURVE",
"660 6 LINE",
"652 2 OFFCURVE",
"644 0 OFFCURVE",
"637 0 CURVE SMOOTH",
"606 0 OFFCURVE",
"574 45 OFFCURVE",
"510 180 CURVE SMOOTH",
"462 283 OFFCURVE",
"423 332 OFFCURVE",
"378 345 CURVE",
"378 350 LINE",
"467 364 OFFCURVE",
"574 416 OFFCURVE",
"574 532 CURVE SMOOTH",
"574 645 OFFCURVE",
"495 708 OFFCURVE",
"355 708 CURVE SMOOTH",
"80 708 LINE",
"80 698 LINE",
"150 683 LINE",
"150 25 LINE",
"80 10 LINE",
"80 0 LINE",
"235 0 LINE",
"235 10 LINE",
"165 25 LINE",
"165 343 LINE",
"324 343 LINE",
"390 343 OFFCURVE",
"443 291 OFFCURVE",
"498 171 CURVE SMOOTH",
"563 32 OFFCURVE",
"596 -15 OFFCURVE",
"630 -15 CURVE SMOOTH"
);
},
{
closed = 1;
nodes = (
"228 359 OFFCURVE",
"193 361 OFFCURVE",
"165 365 CURVE",
"165 683 LINE",
"210 690 OFFCURVE",
"272 693 OFFCURVE",
"355 693 CURVE SMOOTH",
"486 693 OFFCURVE",
"559 635 OFFCURVE",
"559 532 CURVE SMOOTH",
"559 404 OFFCURVE",
"420 359 OFFCURVE",
"307 359 CURVE SMOOTH"
);
},
{
closed = 1;
nodes = (
"155 703 LINE",
"160 703 LINE",
"160 5 LINE",
"155 5 LINE"
);
},
{
closed = 1;
nodes = (
"497 392 OFFCURVE",
"564 442 OFFCURVE",
"564 532 CURVE SMOOTH",
"564 620 OFFCURVE",
"509 676 OFFCURVE",
"428 693 CURVE",
"522 674 OFFCURVE",
"569 616 OFFCURVE",
"569 532 CURVE SMOOTH",
"569 443 OFFCURVE",
"505 393 OFFCURVE",
"423 369 CURVE"
);
},
{
closed = 1;
nodes = (
"415 331 OFFCURVE",
"460 277 OFFCURVE",
"505 179 CURVE SMOOTH",
"569 40 OFFCURVE",
"602 -6 OFFCURVE",
"637 -6 CURVE SMOOTH",
"645 -6 OFFCURVE",
"649 -5 OFFCURVE",
"655 -2 CURVE",
"648 -7 OFFCURVE",
"642 -9 OFFCURVE",
"630 -9 CURVE SMOOTH",
"599 -9 OFFCURVE",
"566 36 OFFCURVE",
"503 173 CURVE SMOOTH",
"462 264 OFFCURVE",
"417 320 OFFCURVE",
"368 342 CURVE"
);
}
);
width = 665;
},
{
background = {
paths = (
{
closed = 1;
nodes = (
"653 325 OFFCURVE",
"701 253 OFFCURVE",
"757 177 CURVE SMOOTH",
"841 64 OFFCURVE",
"887 -5 OFFCURVE",
"972 -5 CURVE SMOOTH",
"982 -5 OFFCURVE",
"993 -4 OFFCURVE",
"1004 -1 CURVE",
"987 -8 OFFCURVE",
"972 -10 OFFCURVE",
"957 -10 CURVE SMOOTH",
"874 -10 OFFCURVE",
"820 82 OFFCURVE",
"752 174 CURVE SMOOTH",
"688 260 OFFCURVE",
"635 322 OFFCURVE",
"550 341 CURVE"
);
},
{
closed = 1;
nodes = (
"868 428 OFFCURVE",
"701 366 OFFCURVE",
"550 359 CURVE",
"706 376 OFFCURVE",
"863 431 OFFCURVE",
"863 532 CURVE SMOOTH",
"863 644 OFFCURVE",
"745 698 OFFCURVE",
"525 700 CURVE",
"757 703 OFFCURVE",
"868 647 OFFCURVE",
"868 532 CURVE SMOOTH"
);
}
);
};
layerId = "35A90D60-3AD4-435C-9F8B-D1CA483F6F66";
paths = (
{
closed = 1;
nodes = (
"973 -15 OFFCURVE",
"990 -13 OFFCURVE",
"1009 -4 CURVE",
"1009 6 LINE",
"996 2 OFFCURVE",
"984 0 OFFCURVE",
"972 0 CURVE SMOOTH",
"890 0 OFFCURVE",
"845 67 OFFCURVE",
"761 180 CURVE SMOOTH",
"706 255 OFFCURVE",
"657 328 OFFCURVE",
"557 347 CURVE",
"557 352 LINE",
"706 362 OFFCURVE",
"873 426 OFFCURVE",
"873 532 CURVE SMOOTH",
"873 650 OFFCURVE",
"758 708 OFFCURVE",
"525 708 CURVE SMOOTH",
"100 708 LINE",
"100 698 LINE",
"209 683 LINE",
"209 25 LINE",
"100 10 LINE",
"100 0 LINE",
"334 0 LINE",
"334 10 LINE",
"224 25 LINE",
"224 343 LINE",
"487 343 LINE",
"609 343 OFFCURVE",
"670 277 OFFCURVE",
"748 171 CURVE SMOOTH",
"816 79 OFFCURVE",
"871 -15 OFFCURVE",
"957 -15 CURVE SMOOTH"
);
},
{
closed = 1;
nodes = (
"324 359 OFFCURVE",
"268 361 OFFCURVE",
"224 365 CURVE",
"224 683 LINE",
"295 690 OFFCURVE",
"394 693 OFFCURVE",
"525 693 CURVE SMOOTH",
"743 693 OFFCURVE",
"858 640 OFFCURVE",
"858 532 CURVE SMOOTH",
"858 414 OFFCURVE",
"628 359 OFFCURVE",
"449 359 CURVE SMOOTH"
);
},
{
closed = 1;
nodes = (
"214 703 LINE",
"219 703 LINE",
"219 5 LINE",
"214 5 LINE"
);
},
{
closed = 1;
nodes = (
"748 393 OFFCURVE",
"863 446 OFFCURVE",
"863 532 CURVE SMOOTH",
"863 623 OFFCURVE",
"783 675 OFFCURVE",
"657 693 CURVE",
"798 675 OFFCURVE",
"868 621 OFFCURVE",
"868 532 CURVE SMOOTH",
"868 448 OFFCURVE",
"758 391 OFFCURVE",
"628 369 CURVE"
);
},
{
closed = 1;
nodes = (
"621 332 OFFCURVE",
"675 290 OFFCURVE",
"757 177 CURVE SMOOTH",
"841 64 OFFCURVE",
"887 -6 OFFCURVE",
"972 -6 CURVE SMOOTH",
"982 -6 OFFCURVE",
"990 -5 OFFCURVE",
"1004 -1 CURVE",
"989 -7 OFFCURVE",
"978 -9 OFFCURVE",
"961 -9 CURVE SMOOTH",
"878 -9 OFFCURVE",
"820 82 OFFCURVE",
"752 174 CURVE SMOOTH",
"668 288 OFFCURVE",
"615 330 OFFCURVE",
"541 345 CURVE"
);
}
);
width = 1034;
}
);
leftKerningGroup = HH;
leftMetricsKey = H;
rightKerningGroup = R;
unicode = 0052;
},
{
color = 4;
glyphname = S;
lastChange = "2022-08-05 06:04:53 +0000";
layers = (
{
layerId = "2660E96A-9963-4076-AFCB-E451BC6EE103";
paths = (
{
closed = 1;
nodes = (
"466 -15 OFFCURVE",
"650 30 OFFCURVE",
"650 186 CURVE SMOOTH",
"650 262 OFFCURVE",
"596 323 OFFCURVE",
"432 431 CURVE SMOOTH",
"267 541 OFFCURVE",
"212 590 OFFCURVE",
"212 630 CURVE SMOOTH",
"212 683 OFFCURVE",
"250 711 OFFCURVE",
"319 708 CURVE SMOOTH",
"382 706 OFFCURVE",
"433 654 OFFCURVE",
"508 502 CURVE SMOOTH",
"553 411 LINE",
"573 411 LINE",
"623 660 LINE",
"566 695 OFFCURVE",
"461 723 OFFCURVE",
"342 723 CURVE SMOOTH",
"154 723 OFFCURVE",
"30 627 OFFCURVE",
"30 498 CURVE SMOOTH",
"30 429 OFFCURVE",
"90 364 OFFCURVE",
"271 235 CURVE SMOOTH",
"388 152 OFFCURVE",
"427 108 OFFCURVE",
"427 60 CURVE SMOOTH",
"427 22 OFFCURVE",
"402 0 OFFCURVE",
"358 0 CURVE SMOOTH",
"297 0 OFFCURVE",
"233 43 OFFCURVE",
"176 139 CURVE SMOOTH",
"81 300 LINE",
"61 300 LINE",
"41 41 LINE",
"116 7 OFFCURVE",
"234 -15 OFFCURVE",
"332 -15 CURVE SMOOTH"
);
},
{
closed = 1;
nodes = (
"192 72 OFFCURVE",
"229 32 OFFCURVE",
"268 8 CURVE",
"194 14 OFFCURVE",
"118 31 OFFCURVE",
"62 54 CURVE",
"79 265 LINE",
"159 129 LINE SMOOTH"
);
},
{
closed = 1;
nodes = (
"481 695 OFFCURVE",
"554 675 OFFCURVE",
"601 650 CURVE",
"559 443 LINE",
"526 511 LINE SMOOTH",
"477 610 OFFCURVE",
"437 670 OFFCURVE",
"395 701 CURVE"
);
},
{
closed = 1;
nodes = (
"630 81 OFFCURVE",
"536 31 OFFCURVE",
"434 13 CURVE",
"442 26 OFFCURVE",
"447 42 OFFCURVE",
"447 60 CURVE SMOOTH",
"447 117 OFFCURVE",
"403 166 OFFCURVE",
"283 251 CURVE SMOOTH",
"103 379 OFFCURVE",
"50 437 OFFCURVE",
"50 498 CURVE SMOOTH",
"50 583 OFFCURVE",
"107 652 OFFCURVE",
"206 684 CURVE",
"197 669 OFFCURVE",
"192 651 OFFCURVE",
"192 630 CURVE SMOOTH",
"192 578 OFFCURVE",
"254 526 OFFCURVE",
"421 414 CURVE SMOOTH",
"583 308 OFFCURVE",
"630 254 OFFCURVE",
"630 186 CURVE SMOOTH"
);
}
);
width = 665;
},
{
background = {
paths = (
{
closed = 1;
nodes = (
"839 -15 OFFCURVE",
"1180 30 OFFCURVE",
"1180 186 CURVE SMOOTH",
"1180 306 OFFCURVE",
"929 396 OFFCURVE",
"707 472 CURVE SMOOTH",
"528 532 OFFCURVE",
"368 582 OFFCURVE",
"368 630 CURVE SMOOTH",
"368 690 OFFCURVE",
"471 710 OFFCURVE",
"566 708 CURVE SMOOTH",
"652 706 OFFCURVE",
"760 649 OFFCURVE",
"859 579 CURVE SMOOTH",
"918 538 OFFCURVE",
"975 493 OFFCURVE",
"1021 452 CURVE SMOOTH",
"1067 411 LINE",
"1077 411 LINE",
"1140 660 LINE",
"1034 695 OFFCURVE",
"829 723 OFFCURVE",
"609 723 CURVE",
"260 723 OFFCURVE",
"30 627 OFFCURVE",
"30 498 CURVE SMOOTH",
"30 391 OFFCURVE",
"237 301 OFFCURVE",
"431 227 CURVE SMOOTH",
"604 161 OFFCURVE",
"766 109 OFFCURVE",
"766 70 CURVE SMOOTH",
"766 24 OFFCURVE",
"731 0 OFFCURVE",
"638 0 CURVE",
"508 0 OFFCURVE",
"392 59 OFFCURVE",
"268 149 CURVE SMOOTH",
"207 193 OFFCURVE",
"144 244 OFFCURVE",
"77 300 CURVE",
"67 300 LINE",
"50 41 LINE",
"190 7 OFFCURVE",
"408 -15 OFFCURVE",
"590 -15 CURVE"
);
}
);
};
layerId = "DF54607F-DD82-41E6-B2E3-81CA6D0E5C47";
paths = (
{
closed = 1;
nodes = (
"839 -15 OFFCURVE",
"1180 30 OFFCURVE",
"1180 186 CURVE SMOOTH",
"1180 306 OFFCURVE",
"929 396 OFFCURVE",
"707 472 CURVE SMOOTH",
"528 532 OFFCURVE",
"368 582 OFFCURVE",
"368 630 CURVE SMOOTH",
"368 690 OFFCURVE",
"471 710 OFFCURVE",
"566 708 CURVE SMOOTH",
"665 705 OFFCURVE",
"809 637 OFFCURVE",
"962 503 CURVE SMOOTH",
"1067 411 LINE",
"1077 411 LINE",
"1140 660 LINE",
"1034 695 OFFCURVE",
"829 723 OFFCURVE",
"609 723 CURVE SMOOTH",
"260 723 OFFCURVE",
"30 627 OFFCURVE",
"30 498 CURVE SMOOTH",
"30 391 OFFCURVE",
"237 301 OFFCURVE",
"431 227 CURVE SMOOTH",
"604 161 OFFCURVE",
"766 109 OFFCURVE",
"766 70 CURVE SMOOTH",
"766 24 OFFCURVE",
"731 0 OFFCURVE",
"638 0 CURVE SMOOTH",
"508 0 OFFCURVE",
"388 54 OFFCURVE",
"268 149 CURVE SMOOTH",
"77 300 LINE",
"67 300 LINE",
"50 41 LINE",
"190 7 OFFCURVE",
"408 -15 OFFCURVE",
"590 -15 CURVE SMOOTH"
);
},
{
closed = 1;
nodes = (
"328 76 OFFCURVE",
"400 33 OFFCURVE",
"475 8 CURVE",
"331 14 OFFCURVE",
"180 32 OFFCURVE",
"71 57 CURVE",
"85 268 LINE",
"256 133 LINE SMOOTH"
);
},
{
closed = 1;
nodes = (
"863 697 OFFCURVE",
"1022 674 OFFCURVE",
"1116 647 CURVE",
"1064 441 LINE",
"975 518 LINE SMOOTH",
"871 608 OFFCURVE",
"772 670 OFFCURVE",
"687 702 CURVE"
);
},
{
closed = 1;
nodes = (
"1160 79 OFFCURVE",
"966 29 OFFCURVE",
"763 12 CURVE",
"779 26 OFFCURVE",
"786 40 OFFCURVE",
"786 64 CURVE SMOOTH",
"786 109 OFFCURVE",
"743 130 OFFCURVE",
"438 246 CURVE SMOOTH",
"253 316 OFFCURVE",
"50 404 OFFCURVE",
"50 498 CURVE SMOOTH",
"50 585 OFFCURVE",
"171 657 OFFCURVE",
"378 688 CURVE",
"359 673 OFFCURVE",
"348 654 OFFCURVE",
"348 630 CURVE SMOOTH",
"348 562 OFFCURVE",
"523 513 OFFCURVE",
"701 453 CURVE SMOOTH",
"922 377 OFFCURVE",
"1160 292 OFFCURVE",
"1160 186 CURVE SMOOTH"
);
}
);
width = 1195;
},
{
layerId = "35A90D60-3AD4-435C-9F8B-D1CA483F6F66";
paths = (
{
closed = 1;
nodes = (
"811 -15 OFFCURVE",
"968 53 OFFCURVE",
"968 167 CURVE SMOOTH",
"968 299 OFFCURVE",
"755 336 OFFCURVE",
"545 373 CURVE SMOOTH",
"340 408 OFFCURVE",
"138 442 OFFCURVE",
"138 562 CURVE SMOOTH",
"138 654 OFFCURVE",
"288 708 OFFCURVE",
"524 708 CURVE SMOOTH",
"778 708 OFFCURVE",
"934 653 OFFCURVE",
"918 557 CURVE SMOOTH",
"900 451 LINE",
"915 451 LINE",
"948 630 LINE",
"835 692 OFFCURVE",
"695 723 OFFCURVE",
"524 723 CURVE SMOOTH",
"272 723 OFFCURVE",
"123 663 OFFCURVE",
"123 561 CURVE SMOOTH",
"123 433 OFFCURVE",
"334 396 OFFCURVE",
"544 360 CURVE SMOOTH",
"749 324 OFFCURVE",
"953 288 OFFCURVE",
"953 167 CURVE SMOOTH",
"953 62 OFFCURVE",
"795 0 OFFCURVE",
"544 0 CURVE SMOOTH",
"285 0 OFFCURVE",
"109 62 OFFCURVE",
"122 159 CURVE SMOOTH",
"138 280 LINE",
"123 280 LINE",
"90 81 LINE",
"244 14 OFFCURVE",
"383 -15 OFFCURVE",
"544 -15 CURVE SMOOTH"
);
},
{
closed = 1;
nodes = (
"110 98 OFFCURVE",
"166 52 OFFCURVE",
"285 21 CURVE",
"223 36 OFFCURVE",
"161 56 OFFCURVE",
"96 84 CURVE",
"129 275 LINE",
"117 160 LINE SMOOTH"
);
},
{
closed = 1;
nodes = (
"828 678 OFFCURVE",
"888 657 OFFCURVE",
"942 627 CURVE",
"909 456 LINE",
"923 556 LINE SMOOTH",
"932 620 OFFCURVE",
"873 666 OFFCURVE",
"760 693 CURVE"
);
},
{
closed = 1;
nodes = (
"963 90 OFFCURVE",
"890 36 OFFCURVE",
"749 10 CURVE",
"875 36 OFFCURVE",
"958 89 OFFCURVE",
"958 167 CURVE SMOOTH",
"958 292 OFFCURVE",
"750 329 OFFCURVE",
"545 365 CURVE SMOOTH",
"335 401 OFFCURVE",
"128 437 OFFCURVE",
"128 561 CURVE SMOOTH",
"128 626 OFFCURVE",
"190 674 OFFCURVE",
"316 698 CURVE",
"203 674 OFFCURVE",
"133 627 OFFCURVE",
"133 562 CURVE SMOOTH",
"133 438 OFFCURVE",
"339 403 OFFCURVE",
"544 368 CURVE SMOOTH",
"754 331 OFFCURVE",
"963 295 OFFCURVE",
"963 167 CURVE SMOOTH"
);
}
);
width = 1058;
},
{
layerId = "A5088515-37FF-452F-BD44-18A7A5EF88F0";
name = Thin;
paths = (
{
closed = 1;
nodes = (
"503 -15 OFFCURVE",
"598 53 OFFCURVE",
"598 167 CURVE SMOOTH",
"598 309 OFFCURVE",
"468 343 OFFCURVE",
"342 377 CURVE SMOOTH",
"222 408 OFFCURVE",
"105 439 OFFCURVE",
"105 561 CURVE SMOOTH",
"105 653 OFFCURVE",
"189 708 OFFCURVE",
"331 708 CURVE SMOOTH",
"483 708 OFFCURVE",
"563 652 OFFCURVE",
"559 539 CURVE SMOOTH",
"556 451 LINE",
"566 451 LINE",
"586 630 LINE",
"528 683 OFFCURVE",
"438 723 OFFCURVE",
"331 723 CURVE SMOOTH",
"180 723 OFFCURVE",
"90 663 OFFCURVE",
"90 561 CURVE SMOOTH",
"90 426 OFFCURVE",
"215 393 OFFCURVE",
"340 360 CURVE SMOOTH",
"462 327 OFFCURVE",
"583 295 OFFCURVE",
"583 167 CURVE SMOOTH",
"583 62 OFFCURVE",
"494 0 OFFCURVE",
"343 0 CURVE SMOOTH",
"191 0 OFFCURVE",
"89 63 OFFCURVE",
"94 164 CURVE SMOOTH",
"100 280 LINE",
"90 280 LINE",
"70 81 LINE",
"155 20 OFFCURVE",
"253 -15 OFFCURVE",
"343 -15 CURVE SMOOTH"
);
},
{
closed = 1;
nodes = (
"85 101 OFFCURVE",
"124 49 OFFCURVE",
"197 18 CURVE",
"156 34 OFFCURVE",
"114 56 OFFCURVE",
"75 83 CURVE",
"95 275 LINE",
"89 164 LINE SMOOTH"
);
},
{
closed = 1;
nodes = (
"507 681 OFFCURVE",
"548 657 OFFCURVE",
"581 628 CURVE",
"562 457 LINE",
"564 539 LINE SMOOTH",
"566 618 OFFCURVE",
"529 669 OFFCURVE",
"458 696 CURVE"
);
},
{
closed = 1;
nodes = (
"593 91 OFFCURVE",
"549 36 OFFCURVE",
"464 10 CURVE",
"541 36 OFFCURVE",
"588 90 OFFCURVE",
"588 167 CURVE SMOOTH",
"588 299 OFFCURVE",
"463 332 OFFCURVE",
"341 365 CURVE SMOOTH",
"216 398 OFFCURVE",
"95 430 OFFCURVE",
"95 561 CURVE SMOOTH",
"95 626 OFFCURVE",
"133 674 OFFCURVE",
"208 698 CURVE",
"142 674 OFFCURVE",
"100 627 OFFCURVE",
"100 561 CURVE SMOOTH",
"100 435 OFFCURVE",
"221 403 OFFCURVE",
"341 372 CURVE SMOOTH",
"467 338 OFFCURVE",
"593 305 OFFCURVE",
"593 167 CURVE SMOOTH"
);
}
);
width = 668;
}
);
leftKerningGroup = SS;
rightKerningGroup = S;
unicode = 0053;
},
{
color = 4;
glyphname = T;
lastChange = "2022-08-05 06:04:53 +0000";
layers = (
{
layerId = "2660E96A-9963-4076-AFCB-E451BC6EE103";
paths = (
{
closed = 1;
nodes = (
"547 0 LINE",
"547 10 LINE",
"497 20 LINE",
"497 693 LINE",
"507 693 LINE SMOOTH",
"547 693 OFFCURVE",
"591 643 OFFCURVE",
"629 554 CURVE SMOOTH",
"689 414 LINE",
"709 414 LINE",
"744 708 LINE",
"5 708 LINE",
"40 414 LINE",
"60 414 LINE",
"120 554 LINE SMOOTH",
"158 643 OFFCURVE",
"201 693 OFFCURVE",
"242 693 CURVE SMOOTH",
"252 693 LINE",
"252 20 LINE",
"202 10 LINE",
"202 0 LINE"
);
},
{
closed = 1;
nodes = (
"30 688 LINE",
"178 688 LINE",
"152 667 OFFCURVE",
"125 621 OFFCURVE",
"100 563 CURVE SMOOTH",
"55 458 LINE"
);
},
{
closed = 1;
nodes = (
"272 688 LINE",
"477 688 LINE",
"477 20 LINE",
"272 20 LINE"
);
},
{
closed = 1;
nodes = (
"649 563 LINE SMOOTH",
"625 620 OFFCURVE",
"597 666 OFFCURVE",
"571 688 CURVE",
"719 688 LINE",
"694 458 LINE"
);
}
);
width = 749;
},
{
layerId = "DF54607F-DD82-41E6-B2E3-81CA6D0E5C47";
paths = (
{
closed = 1;
nodes = (
"1123 0 LINE",
"1123 10 LINE",
"1017 20 LINE",
"1017 693 LINE",
"1038 693 LINE SMOOTH",
"1088 693 OFFCURVE",
"1170 642 OFFCURVE",
"1270 553 CURVE SMOOTH",
"1425 414 LINE",
"1435 414 LINE",
"1509 708 LINE",
"5 708 LINE",
"79 414 LINE",
"89 414 LINE",
"243 553 LINE SMOOTH",
"342 643 OFFCURVE",
"426 693 OFFCURVE",
"476 693 CURVE SMOOTH",
"497 693 LINE",
"497 20 LINE",
"391 10 LINE",
"391 0 LINE"
);
},
{
closed = 1;
nodes = (
"33 688 LINE",
"388 688 LINE",
"353 671 OFFCURVE",
"293 628 OFFCURVE",
"228 569 CURVE SMOOTH",
"93 447 LINE"
);
},
{
closed = 1;
nodes = (
"517 688 LINE",
"997 688 LINE",
"997 20 LINE",
"517 20 LINE"
);
},
{
closed = 1;
nodes = (
"1285 569 LINE SMOOTH",
"1220 627 OFFCURVE",
"1161 670 OFFCURVE",
"1124 688 CURVE",
"1481 688 LINE",
"1421 447 LINE"
);
}
);
width = 1514;
},
{
layerId = "A5088515-37FF-452F-BD44-18A7A5EF88F0";
paths = (
{
closed = 1;
nodes = (
"428 0 LINE",
"428 10 LINE",
"358 25 LINE",
"358 693 LINE",
"526 693 LINE SMOOTH",
"593 693 OFFCURVE",
"620 674 OFFCURVE",
"612 583 CURVE SMOOTH",
"602 464 LINE",
"617 464 LINE",
"641 708 LINE",
"60 708 LINE",
"84 464 LINE",
"99 464 LINE",
"90 589 LINE SMOOTH",
"84 675 OFFCURVE",
"110 693 OFFCURVE",
"175 693 CURVE SMOOTH",
"343 693 LINE",
"343 25 LINE",
"273 10 LINE",
"273 0 LINE"
);
},
{
closed = 1;
nodes = (
"68 701 LINE",
"155 701 LINE",
"97 695 OFFCURVE",
"79 667 OFFCURVE",
"83 589 CURVE SMOOTH",
"90 471 LINE"
);
},
{
closed = 1;
nodes = (
"348 703 LINE",
"353 703 LINE",
"353 5 LINE",
"348 5 LINE"
);
},
{
closed = 1;
nodes = (
"619 582 LINE SMOOTH",
"625 665 OFFCURVE",
"606 694 OFFCURVE",
"546 701 CURVE",
"633 701 LINE",
"611 471 LINE"
);
}
);
width = 701;
},
{
layerId = "35A90D60-3AD4-435C-9F8B-D1CA483F6F66";
paths = (
{
closed = 1;
nodes = (
"658 0 LINE",
"658 10 LINE",
"548 25 LINE",
"548 693 LINE",
"861 693 LINE SMOOTH",
"928 693 OFFCURVE",
"956 673 OFFCURVE",
"947 576 CURVE SMOOTH",
"937 464 LINE",
"952 464 LINE",
"976 708 LINE",
"105 708 LINE",
"129 464 LINE",
"144 464 LINE",
"136 578 LINE SMOOTH",
"129 674 OFFCURVE",
"154 693 OFFCURVE",
"220 693 CURVE SMOOTH",
"533 693 LINE",
"533 25 LINE",
"424 10 LINE",
"424 0 LINE"
);
},
{
closed = 1;
nodes = (
"113 701 LINE",
"200 701 LINE",
"142 695 OFFCURVE",
"124 664 OFFCURVE",
"129 578 CURVE SMOOTH",
"135 471 LINE"
);
},
{
closed = 1;
nodes = (
"538 703 LINE",
"543 703 LINE",
"543 5 LINE",
"538 5 LINE"
);
},
{
closed = 1;
nodes = (
"954 575 LINE SMOOTH",
"961 663 OFFCURVE",
"943 695 OFFCURVE",
"881 701 CURVE",
"968 701 LINE",
"946 471 LINE"
);
}
);
width = 1081;
}
);
leftKerningGroup = T;
rightKerningGroup = TT;
unicode = 0054;
},
{
color = 4;
glyphname = U;
lastChange = "2022-08-05 06:04:53 +0000";
layers = (
{
layerId = "2660E96A-9963-4076-AFCB-E451BC6EE103";
paths = (
{
closed = 1;
nodes = (
"565 0 OFFCURVE",
"653 113 OFFCURVE",
"653 315 CURVE SMOOTH",
"653 689 LINE",
"723 698 LINE",
"723 708 LINE",
"418 708 LINE",
"418 698 LINE",
"534 608 OFFCURVE",
"633 413 OFFCURVE",
"633 287 CURVE SMOOTH",
"633 271 LINE",
"633 149 OFFCURVE",
"578 81 OFFCURVE",
"479 81 CURVE SMOOTH",
"375 81 OFFCURVE",
"317 171 OFFCURVE",
"315 332 CURVE",
"315 689 LINE",
"375 698 LINE",
"375 708 LINE",
"20 708 LINE",
"20 698 LINE",
"70 689 LINE",
"70 303 LINE",
"71 108 OFFCURVE",
"181 0 OFFCURVE",
"387 0 CURVE SMOOTH"
);
},
{
closed = 1;
nodes = (
"189 20 OFFCURVE",
"90 116 OFFCURVE",
"90 303 CURVE SMOOTH",
"90 688 LINE",
"295 688 LINE",
"295 332 LINE SMOOTH",
"295 162 OFFCURVE",
"361 61 OFFCURVE",
"479 61 CURVE SMOOTH",
"508 61 OFFCURVE",
"534 66 OFFCURVE",
"557 77 CURVE",
"517 39 OFFCURVE",
"460 20 OFFCURVE",
"387 20 CURVE SMOOTH"
);
},
{
closed = 1;
nodes = (
"633 688 LINE",
"633 404 LINE",
"632 404 LINE",
"630 409 LINE",
"584 535 OFFCURVE",
"522 629 OFFCURVE",
"456 688 CURVE"
);
}
);
width = 733;
},
{
layerId = "DF54607F-DD82-41E6-B2E3-81CA6D0E5C47";
paths = (
{
closed = 1;
nodes = (
"1037 0 OFFCURVE",
"1198 113 OFFCURVE",
"1198 293 CURVE SMOOTH",
"1198 689 LINE",
"1247 698 LINE",
"1247 708 LINE",
"725 708 LINE",
"725 698 LINE",
"886 639 OFFCURVE",
"1181 477 OFFCURVE",
"1181 306 CURVE SMOOTH",
"1181 293 LINE",
"1181 160 OFFCURVE",
"1060 81 OFFCURVE",
"854 81 CURVE SMOOTH",
"689 81 OFFCURVE",
"590 174 OFFCURVE",
"586 332 CURVE",
"586 689 LINE",
"623 698 LINE",
"623 708 LINE",
"20 708 LINE",
"20 698 LINE",
"66 689 LINE",
"66 293 LINE",
"68 108 OFFCURVE",
"302 0 OFFCURVE",
"739 0 CURVE SMOOTH"
);
},
{
closed = 1;
nodes = (
"307 22 OFFCURVE",
"88 122 OFFCURVE",
"88 293 CURVE SMOOTH",
"88 686 LINE",
"564 686 LINE",
"564 332 LINE SMOOTH",
"564 161 OFFCURVE",
"677 59 OFFCURVE",
"854 59 CURVE SMOOTH",
"946 59 OFFCURVE",
"1023 75 OFFCURVE",
"1081 104 CURVE",
"1009 51 OFFCURVE",
"895 22 OFFCURVE",
"739 22 CURVE SMOOTH"
);
},
{
closed = 1;
nodes = (
"1176 688 LINE",
"1176 404 LINE",
"1175 404 LINE",
"1172 410 LINE",
"1115 504 OFFCURVE",
"949 627 OFFCURVE",
"796 688 CURVE"
);
}
);
width = 1257;
},
{
layerId = "A5088515-37FF-452F-BD44-18A7A5EF88F0";
paths = (
{
closed = 1;
nodes = (
"555 -15 OFFCURVE",
"635 90 OFFCURVE",
"635 304 CURVE SMOOTH",
"635 683 LINE",
"705 698 LINE",
"705 708 LINE",
"510 708 LINE",
"510 698 LINE",
"592 698 OFFCURVE",
"619 664 OFFCURVE",
"619 562 CURVE SMOOTH",
"619 304 LINE SMOOTH",
"619 100 OFFCURVE",
"544 0 OFFCURVE",
"391 0 CURVE SMOOTH",
"219 0 OFFCURVE",
"135 100 OFFCURVE",
"135 304 CURVE SMOOTH",
"135 683 LINE",
"205 698 LINE",
"205 708 LINE",
"50 708 LINE",
"50 698 LINE",
"120 683 LINE",
"120 304 LINE SMOOTH",
"120 90 OFFCURVE",
"209 -15 OFFCURVE",
"391 -15 CURVE SMOOTH"
);
},
{
closed = 1;
nodes = (
"213 -10 OFFCURVE",
"125 94 OFFCURVE",
"125 304 CURVE SMOOTH",
"125 703 LINE",
"130 703 LINE",
"130 304 LINE SMOOTH",
"130 97 OFFCURVE",
"217 -5 OFFCURVE",
"391 -5 CURVE SMOOTH",
"448 -5 OFFCURVE",
"495 7 OFFCURVE",
"533 32 CURVE",
"496 5 OFFCURVE",
"449 -10 OFFCURVE",
"391 -10 CURVE SMOOTH"
);
},
{
closed = 1;
nodes = (
"630 701 LINE",
"630 579 LINE",
"628 579 LINE",
"625 602 LINE SMOOTH",
"616 671 OFFCURVE",
"592 699 OFFCURVE",
"536 701 CURVE"
);
}
);
width = 740;
},
{
layerId = "35A90D60-3AD4-435C-9F8B-D1CA483F6F66";
paths = (
{
closed = 1;
nodes = (
"842 -15 OFFCURVE",
"965 90 OFFCURVE",
"965 304 CURVE SMOOTH",
"965 683 LINE",
"1074 698 LINE",
"1074 708 LINE",
"783 708 LINE",
"783 698 LINE",
"908 698 OFFCURVE",
"950 664 OFFCURVE",
"950 562 CURVE SMOOTH",
"950 304 LINE SMOOTH",
"950 100 OFFCURVE",
"832 0 OFFCURVE",
"590 0 CURVE SMOOTH",
"321 0 OFFCURVE",
"189 100 OFFCURVE",
"189 304 CURVE SMOOTH",
"189 683 LINE",
"299 698 LINE",
"299 708 LINE",
"65 708 LINE",
"65 698 LINE",
"174 683 LINE",
"174 304 LINE SMOOTH",
"174 90 OFFCURVE",
"311 -15 OFFCURVE",
"590 -15 CURVE SMOOTH"
);
},
{
closed = 1;
nodes = (
"315 -10 OFFCURVE",
"179 94 OFFCURVE",
"179 304 CURVE SMOOTH",
"179 703 LINE",
"184 703 LINE",
"184 304 LINE SMOOTH",
"184 97 OFFCURVE",
"319 -5 OFFCURVE",
"590 -5 CURVE SMOOTH",
"674 -5 OFFCURVE",
"747 7 OFFCURVE",
"805 32 CURVE",
"748 5 OFFCURVE",
"676 -10 OFFCURVE",
"590 -10 CURVE SMOOTH"
);
},
{
closed = 1;
nodes = (
"960 701 LINE",
"960 579 LINE",
"958 579 LINE",
"955 602 LINE SMOOTH",
"947 663 OFFCURVE",
"910 696 OFFCURVE",
"837 701 CURVE"
);
}
);
width = 1124;
}
);
leftKerningGroup = UU;
rightKerningGroup = U;
unicode = 0055;
},
{
color = 4;
glyphname = V;
lastChange = "2022-08-05 06:04:53 +0000";
layers = (
{
layerId = "2660E96A-9963-4076-AFCB-E451BC6EE103";
paths = (
{
closed = 1;
nodes = (
"481 0 LINE",
"757 688 LINE",
"808 698 LINE",
"808 708 LINE",
"444 708 LINE",
"444 698 LINE",
"548 663 OFFCURVE",
"593 541 OFFCURVE",
"593 431 CURVE SMOOTH",
"593 359 OFFCURVE",
"574 270 OFFCURVE",
"539 182 CURVE",
"537 177 LINE",
"524 177 LINE",
"318 689 LINE",
"390 698 LINE",
"390 708 LINE",
"5 708 LINE",
"5 698 LINE",
"53 688 LINE",
"329 0 LINE"
);
},
{
closed = 1;
nodes = (
"467 20 LINE",
"343 20 LINE",
"75 688 LINE",
"297 688 LINE",
"510 157 LINE",
"522 157 LINE"
);
},
{
closed = 1;
nodes = (
"612 399 OFFCURVE",
"613 419 OFFCURVE",
"612 437 CURVE SMOOTH",
"610 530 OFFCURVE",
"579 631 OFFCURVE",
"506 688 CURVE",
"735 688 LINE",
"610 376 LINE"
);
}
);
width = 813;
},
{
layerId = "DF54607F-DD82-41E6-B2E3-81CA6D0E5C47";
paths = (
{
closed = 1;
nodes = (
"737 0 LINE",
"1194 688 LINE",
"1246 698 LINE",
"1246 708 LINE",
"677 708 LINE",
"677 698 LINE",
"810 653 OFFCURVE",
"872 533 OFFCURVE",
"872 388 CURVE SMOOTH",
"872 324 OFFCURVE",
"859 247 OFFCURVE",
"835 173 CURVE",
"833 167 LINE",
"812 167 LINE",
"478 689 LINE",
"548 703 LINE",
"548 708 LINE",
"5 708 LINE",
"5 698 LINE",
"53 688 LINE",
"493 0 LINE"
);
},
{
closed = 1;
nodes = (
"725 22 LINE",
"505 22 LINE",
"81 686 LINE",
"454 686 LINE",
"800 145 LINE",
"807 145 LINE"
);
},
{
closed = 1;
nodes = (
"890 306 OFFCURVE",
"895 358 OFFCURVE",
"895 408 CURVE SMOOTH",
"895 507 OFFCURVE",
"851 621 OFFCURVE",
"751 686 CURVE",
"1166 686 LINE",
"879 253 LINE"
);
}
);
width = 1251;
},
{
layerId = "A5088515-37FF-452F-BD44-18A7A5EF88F0";
paths = (
{
closed = 1;
nodes = (
"354 0 LINE",
"609 683 LINE",
"679 698 LINE",
"679 708 LINE",
"482 708 LINE",
"482 698 LINE",
"553 698 OFFCURVE",
"577 688 OFFCURVE",
"577 656 CURVE SMOOTH",
"577 644 OFFCURVE",
"573 626 OFFCURVE",
"565 605 CURVE",
"349 28 LINE",
"340 28 LINE",
"95 684 LINE",
"166 698 LINE",
"166 708 LINE",
"10 708 LINE",
"10 698 LINE",
"80 683 LINE",
"336 0 LINE"
);
},
{
closed = 1;
nodes = (
"351 7 LINE",
"339 7 LINE",
"78 703 LINE",
"83 703 LINE",
"337 21 LINE",
"356 21 LINE"
);
},
{
closed = 1;
nodes = (
"579 626 OFFCURVE",
"584 646 OFFCURVE",
"584 656 CURVE SMOOTH",
"584 682 OFFCURVE",
"570 695 OFFCURVE",
"538 701 CURVE",
"609 701 LINE",
"569 597 LINE"
);
}
);
width = 689;
},
{
layerId = "35A90D60-3AD4-435C-9F8B-D1CA483F6F66";
paths = (
{
closed = 1;
nodes = (
"539 0 LINE",
"927 683 LINE",
"1034 698 LINE",
"1034 708 LINE",
"742 708 LINE",
"742 698 LINE",
"851 698 OFFCURVE",
"887 687 OFFCURVE",
"887 655 CURVE SMOOTH",
"887 643 OFFCURVE",
"881 625 OFFCURVE",
"869 605 CURVE",
"540 28 LINE",
"525 28 LINE",
"152 684 LINE",
"260 698 LINE",
"260 708 LINE",
"30 708 LINE",
"30 698 LINE",
"137 683 LINE",
"527 0 LINE"
);
},
{
closed = 1;
nodes = (
"537 7 LINE",
"528 7 LINE",
"131 703 LINE",
"136 703 LINE",
"524 21 LINE",
"545 21 LINE"
);
},
{
closed = 1;
nodes = (
"886 623 OFFCURVE",
"893 643 OFFCURVE",
"893 656 CURVE SMOOTH",
"893 682 OFFCURVE",
"872 695 OFFCURVE",
"825 701 CURVE",
"931 701 LINE",
"871 597 LINE"
);
}
);
width = 1064;
}
);
leftKerningGroup = VV;
rightKerningGroup = V;
unicode = 0056;
},
{
color = 4;
glyphname = W;
lastChange = "2022-08-05 06:04:53 +0000";
layers = (
{
layerId = "2660E96A-9963-4076-AFCB-E451BC6EE103";
paths = (
{
closed = 1;
nodes = (
"481 0 LINE",
"756 684 LINE",
"807 698 LINE",
"807 708 LINE",
"444 708 LINE",
"444 698 LINE",
"553 662 OFFCURVE",
"585 533 OFFCURVE",
"585 420 CURVE SMOOTH",
"585 344 OFFCURVE",
"569 262 OFFCURVE",
"541 187 CURVE",
"537 177 LINE",
"524 177 LINE",
"320 684 LINE",
"390 698 LINE",
"390 708 LINE",
"5 708 LINE",
"5 698 LINE",
"55 683 LINE",
"329 0 LINE"
);
},
{
closed = 1;
nodes = (
"75 688 LINE",
"297 688 LINE",
"510 157 LINE",
"522 157 LINE",
"467 20 LINE",
"343 20 LINE"
);
},
{
closed = 1;
nodes = (
"612 399 OFFCURVE",
"613 419 OFFCURVE",
"612 437 CURVE SMOOTH",
"610 530 OFFCURVE",
"579 631 OFFCURVE",
"506 688 CURVE",
"735 688 LINE",
"610 376 LINE"
);
},
{
closed = 1;
nodes = (
"615 352 LINE",
"726 631 LINE",
"916 157 LINE",
"928 157 LINE",
"873 20 LINE",
"749 20 LINE"
);
},
{
closed = 1;
nodes = (
"887 0 LINE",
"1160 683 LINE",
"1213 698 LINE",
"1213 708 LINE",
"850 708 LINE",
"850 698 LINE",
"959 659 OFFCURVE",
"1001 536 OFFCURVE",
"999 421 CURVE SMOOTH",
"997 355 OFFCURVE",
"981 277 OFFCURVE",
"947 188 CURVE",
"943 177 LINE",
"930 177 LINE",
"733 666 LINE",
"602 333 LINE",
"735 0 LINE"
);
},
{
closed = 1;
nodes = (
"1018 399 OFFCURVE",
"1019 419 OFFCURVE",
"1018 437 CURVE SMOOTH",
"1016 530 OFFCURVE",
"985 631 OFFCURVE",
"912 688 CURVE",
"1141 688 LINE",
"1016 376 LINE"
);
}
);
width = 1218;
},
{
layerId = "DF54607F-DD82-41E6-B2E3-81CA6D0E5C47";
paths = (
{
closed = 1;
nodes = (
"737 0 LINE",
"1194 688 LINE",
"1246 698 LINE",
"1246 708 LINE",
"677 708 LINE",
"677 698 LINE",
"814 651 OFFCURVE",
"872 528 OFFCURVE",
"872 391 CURVE SMOOTH",
"872 325 OFFCURVE",
"860 252 OFFCURVE",
"837 179 CURVE",
"833 167 LINE",
"812 167 LINE",
"478 689 LINE",
"548 703 LINE",
"548 708 LINE",
"5 708 LINE",
"5 698 LINE",
"53 688 LINE",
"493 0 LINE"
);
},
{
closed = 1;
nodes = (
"81 686 LINE",
"454 686 LINE",
"800 145 LINE",
"807 145 LINE",
"725 22 LINE",
"505 22 LINE"
);
},
{
closed = 1;
nodes = (
"890 306 OFFCURVE",
"895 358 OFFCURVE",
"895 408 CURVE SMOOTH",
"895 507 OFFCURVE",
"851 621 OFFCURVE",
"751 686 CURVE",
"1166 686 LINE",
"879 253 LINE"
);
},
{
closed = 1;
nodes = (
"937 313 LINE",
"1127 600 LINE",
"1418 145 LINE",
"1425 145 LINE",
"1343 22 LINE",
"1123 22 LINE"
);
},
{
closed = 1;
nodes = (
"1355 0 LINE",
"1812 688 LINE",
"1864 698 LINE",
"1864 708 LINE",
"1295 708 LINE",
"1295 698 LINE",
"1426 653 OFFCURVE",
"1490 532 OFFCURVE",
"1490 393 CURVE SMOOTH",
"1490 326 OFFCURVE",
"1479 254 OFFCURVE",
"1456 181 CURVE",
"1451 167 LINE",
"1430 167 LINE",
"1135 628 LINE",
"919 300 LINE",
"1111 0 LINE"
);
},
{
closed = 1;
nodes = (
"1508 306 OFFCURVE",
"1513 358 OFFCURVE",
"1513 408 CURVE SMOOTH",
"1513 507 OFFCURVE",
"1469 621 OFFCURVE",
"1369 686 CURVE",
"1784 686 LINE",
"1497 253 LINE"
);
}
);
width = 1869;
},
{
layerId = "A5088515-37FF-452F-BD44-18A7A5EF88F0";
paths = (
{
closed = 1;
nodes = (
"354 0 LINE",
"609 683 LINE",
"679 698 LINE",
"679 708 LINE",
"482 708 LINE",
"482 698 LINE",
"553 698 OFFCURVE",
"577 688 OFFCURVE",
"577 656 CURVE SMOOTH",
"577 643 OFFCURVE",
"573 627 OFFCURVE",
"565 605 CURVE",
"349 28 LINE",
"340 28 LINE",
"95 684 LINE",
"166 698 LINE",
"166 708 LINE",
"10 708 LINE",
"10 698 LINE",
"80 683 LINE",
"336 0 LINE"
);
},
{
closed = 1;
nodes = (
"78 703 LINE",
"83 703 LINE",
"337 21 LINE",
"356 21 LINE",
"351 7 LINE",
"339 7 LINE"
);
},
{
closed = 1;
nodes = (
"579 626 OFFCURVE",
"584 646 OFFCURVE",
"584 656 CURVE SMOOTH",
"584 682 OFFCURVE",
"570 695 OFFCURVE",
"538 701 CURVE",
"609 701 LINE",
"569 597 LINE"
);
},
{
closed = 1;
nodes = (
"555 556 LINE",
"558 560 LINE",
"759 21 LINE",
"778 21 LINE",
"773 7 LINE",
"761 7 LINE"
);
},
{
closed = 1;
nodes = (
"776 0 LINE",
"1031 683 LINE",
"1101 698 LINE",
"1101 708 LINE",
"904 708 LINE",
"904 698 LINE",
"975 698 OFFCURVE",
"999 688 OFFCURVE",
"999 656 CURVE SMOOTH",
"999 643 OFFCURVE",
"995 626 OFFCURVE",
"987 605 CURVE",
"771 28 LINE",
"762 28 LINE",
"558 573 LINE",
"550 554 LINE",
"758 0 LINE"
);
},
{
closed = 1;
nodes = (
"1001 626 OFFCURVE",
"1006 646 OFFCURVE",
"1006 656 CURVE SMOOTH",
"1006 682 OFFCURVE",
"992 695 OFFCURVE",
"960 701 CURVE",
"1031 701 LINE",
"991 597 LINE"
);
}
);
width = 1111;
},
{
layerId = "35A90D60-3AD4-435C-9F8B-D1CA483F6F66";
paths = (
{
closed = 1;
nodes = (
"539 0 LINE",
"927 683 LINE",
"1034 698 LINE",
"1034 708 LINE",
"742 708 LINE",
"742 698 LINE",
"851 698 OFFCURVE",
"887 687 OFFCURVE",
"887 655 CURVE SMOOTH",
"887 643 OFFCURVE",
"881 625 OFFCURVE",
"869 605 CURVE",
"540 28 LINE",
"525 28 LINE",
"152 684 LINE",
"260 698 LINE",
"260 708 LINE",
"30 708 LINE",
"30 698 LINE",
"137 683 LINE",
"527 0 LINE"
);
},
{
closed = 1;
nodes = (
"131 703 LINE",
"136 703 LINE",
"524 21 LINE",
"545 21 LINE",
"537 7 LINE",
"528 7 LINE"
);
},
{
closed = 1;
nodes = (
"886 623 OFFCURVE",
"893 643 OFFCURVE",
"893 656 CURVE SMOOTH",
"893 682 OFFCURVE",
"872 695 OFFCURVE",
"825 701 CURVE",
"931 701 LINE",
"871 597 LINE"
);
},
{
closed = 1;
nodes = (
"811 488 LINE",
"813 492 LINE",
"1081 21 LINE",
"1102 21 LINE",
"1094 7 LINE",
"1085 7 LINE"
);
},
{
closed = 1;
nodes = (
"1096 0 LINE",
"1484 683 LINE",
"1591 698 LINE",
"1591 708 LINE",
"1299 708 LINE",
"1299 698 LINE",
"1408 698 OFFCURVE",
"1444 688 OFFCURVE",
"1444 656 CURVE SMOOTH",
"1444 644 OFFCURVE",
"1438 626 OFFCURVE",
"1426 605 CURVE",
"1097 28 LINE",
"1082 28 LINE",
"813 501 LINE",
"807 486 LINE",
"1084 0 LINE"
);
},
{
closed = 1;
nodes = (
"1443 623 OFFCURVE",
"1450 643 OFFCURVE",
"1450 656 CURVE SMOOTH",
"1450 682 OFFCURVE",
"1429 695 OFFCURVE",
"1382 701 CURVE",
"1488 701 LINE",
"1428 597 LINE"
);
}
);
width = 1621;
}
);
leftKerningGroup = VV;
leftMetricsKey = V;
rightKerningGroup = V;
rightMetricsKey = V;
unicode = 0057;
},
{
color = 4;
glyphname = X;
lastChange = "2022-08-05 06:04:53 +0000";
layers = (
{
background = {
paths = (
{
closed = 1;
nodes = (
"245 209 LINE",
"241 193 OFFCURVE",
"239 177 OFFCURVE",
"239 161 CURVE SMOOTH",
"240 96 OFFCURVE",
"270 49 OFFCURVE",
"312 20 CURVE",
"98 20 LINE"
);
},
{
closed = 1;
nodes = (
"762 688 LINE",
"599 507 LINE",
"603 521 OFFCURVE",
"605 536 OFFCURVE",
"606 550 CURVE SMOOTH",
"607 598 OFFCURVE",
"583 653 OFFCURVE",
"541 688 CURVE"
);
}
);
};
layerId = "2660E96A-9963-4076-AFCB-E451BC6EE103";
paths = (
{
closed = 1;
nodes = (
"838 0 LINE",
"838 10 LINE",
"771 20 LINE",
"357 689 LINE",
"430 698 LINE",
"430 708 LINE",
"5 708 LINE",
"5 698 LINE",
"72 688 LINE",
"486 20 LINE",
"413 10 LINE",
"413 0 LINE"
);
},
{
closed = 1;
nodes = (
"527 397 LINE",
"789 689 LINE",
"838 698 LINE",
"838 708 LINE",
"477 708 LINE",
"477 698 LINE",
"545 682 OFFCURVE",
"587 609 OFFCURVE",
"586 550 CURVE SMOOTH",
"585 517 OFFCURVE",
"574 479 OFFCURVE",
"541 446 CURVE SMOOTH",
"535 440 LINE",
"501 440 LINE"
);
},
{
closed = 1;
nodes = (
"309 326 LINE",
"71 20 LINE",
"5 10 LINE",
"5 0 LINE",
"383 0 LINE",
"383 10 LINE",
"316 27 OFFCURVE",
"260 77 OFFCURVE",
"259 161 CURVE SMOOTH",
"259 199 OFFCURVE",
"270 239 OFFCURVE",
"299 278 CURVE SMOOTH",
"302 282 LINE",
"335 282 LINE"
);
},
{
closed = 1;
nodes = (
"95 688 LINE",
"335 688 LINE",
"748 20 LINE",
"509 20 LINE"
);
},
{
closed = 1;
nodes = (
"762 688 LINE",
"599 507 LINE",
"603 521 OFFCURVE",
"605 536 OFFCURVE",
"606 550 CURVE SMOOTH",
"607 598 OFFCURVE",
"583 653 OFFCURVE",
"541 688 CURVE"
);
},
{
closed = 1;
nodes = (
"245 209 LINE",
"241 193 OFFCURVE",
"239 177 OFFCURVE",
"239 161 CURVE SMOOTH",
"240 96 OFFCURVE",
"270 49 OFFCURVE",
"312 20 CURVE",
"98 20 LINE"
);
}
);
width = 843;
},
{
background = {
paths = (
{
closed = 1;
nodes = (
"445 263 LINE",
"430 238 OFFCURVE",
"423 212 OFFCURVE",
"423 188 CURVE SMOOTH",
"423 114 OFFCURVE",
"482 56 OFFCURVE",
"547 20 CURVE",
"130 20 LINE"
);
},
{
closed = 1;
nodes = (
"1260 688 LINE",
"916 460 LINE",
"932 484 OFFCURVE",
"939 510 OFFCURVE",
"939 534 CURVE SMOOTH",
"939 597 OFFCURVE",
"895 654 OFFCURVE",
"844 688 CURVE"
);
}
);
};
layerId = "DF54607F-DD82-41E6-B2E3-81CA6D0E5C47";
paths = (
{
closed = 1;
nodes = (
"1364 0 LINE",
"1364 10 LINE",
"1297 20 LINE",
"603 689 LINE",
"676 698 LINE",
"676 708 LINE",
"5 708 LINE",
"5 698 LINE",
"72 688 LINE",
"766 20 LINE",
"692 10 LINE",
"692 0 LINE"
);
},
{
closed = 1;
nodes = (
"878 410 LINE",
"1298 689 LINE",
"1347 698 LINE",
"1347 708 LINE",
"775 708 LINE",
"775 698 LINE",
"841 681 OFFCURVE",
"919 611 OFFCURVE",
"919 534 CURVE SMOOTH",
"919 505 OFFCURVE",
"907 474 OFFCURVE",
"879 446 CURVE SMOOTH",
"873 440 LINE",
"849 440 LINE"
);
},
{
closed = 1;
nodes = (
"478 313 LINE",
"96 20 LINE",
"30 10 LINE",
"30 0 LINE",
"618 0 LINE",
"618 10 LINE",
"537 37 OFFCURVE",
"443 102 OFFCURVE",
"443 188 CURVE SMOOTH",
"443 217 OFFCURVE",
"455 246 OFFCURVE",
"479 278 CURVE SMOOTH",
"482 282 LINE",
"505 282 LINE"
);
},
{
closed = 1;
nodes = (
"101 688 LINE",
"576 688 LINE",
"1268 20 LINE",
"795 20 LINE"
);
},
{
closed = 1;
nodes = (
"1260 688 LINE",
"916 460 LINE",
"932 484 OFFCURVE",
"939 510 OFFCURVE",
"939 534 CURVE SMOOTH",
"939 597 OFFCURVE",
"895 654 OFFCURVE",
"844 688 CURVE"
);
},
{
closed = 1;
nodes = (
"445 263 LINE",
"430 238 OFFCURVE",
"423 212 OFFCURVE",
"423 188 CURVE SMOOTH",
"423 114 OFFCURVE",
"482 56 OFFCURVE",
"547 20 CURVE",
"130 20 LINE"
);
}
);
width = 1369;
},
{
background = {
paths = (
{
closed = 1;
nodes = (
"252 233 LINE",
"160 108 LINE SMOOTH",
"141 82 OFFCURVE",
"128 59 OFFCURVE",
"128 44 CURVE SMOOTH",
"128 16 OFFCURVE",
"306 5 OFFCURVE",
"233 5 CURVE SMOOTH",
"25 5 LINE",
"25 6 LINE",
"93 19 LINE",
"250 234 LINE"
);
},
{
closed = 1;
nodes = (
"477 540 LINE",
"478 542 LINE SMOOTH",
"486 557 OFFCURVE",
"499 569 OFFCURVE",
"508 581 CURVE SMOOTH",
"537 619 OFFCURVE",
"559 647 OFFCURVE",
"559 667 CURVE SMOOTH",
"559 693 OFFCURVE",
"379 703 OFFCURVE",
"454 703 CURVE SMOOTH",
"656 703 LINE",
"656 702 LINE",
"588 689 LINE",
"478 539 LINE"
);
}
);
};
layerId = "A5088515-37FF-452F-BD44-18A7A5EF88F0";
paths = (
{
closed = 1;
nodes = (
"660 0 LINE",
"660 10 LINE",
"590 25 LINE",
"109 684 LINE",
"179 698 LINE",
"179 708 LINE",
"25 708 LINE",
"25 698 LINE",
"95 683 LINE",
"574 25 LINE",
"504 10 LINE",
"504 0 LINE"
);
},
{
closed = 1;
nodes = (
"348 353 LINE",
"591 684 LINE",
"661 698 LINE",
"661 708 LINE",
"449 708 LINE",
"449 698 LINE",
"526 698 OFFCURVE",
"554 689 OFFCURVE",
"554 667 CURVE SMOOTH",
"554 643 OFFCURVE",
"517 603 OFFCURVE",
"474 545 CURVE SMOOTH",
"351 378 LINE",
"329 378 LINE"
);
},
{
closed = 1;
nodes = (
"335 358 LINE",
"90 24 LINE",
"20 10 LINE",
"20 0 LINE",
"238 0 LINE",
"238 10 LINE",
"163 10 OFFCURVE",
"133 20 OFFCURVE",
"133 44 CURVE SMOOTH",
"133 58 OFFCURVE",
"145 79 OFFCURVE",
"164 105 CURVE SMOOTH",
"325 324 LINE",
"359 324 LINE"
);
},
{
closed = 1;
nodes = (
"86 703 LINE",
"90 703 LINE",
"598 5 LINE",
"594 5 LINE"
);
},
{
closed = 1;
nodes = (
"599 703 LINE",
"523 599 LINE",
"549 638 OFFCURVE",
"559 655 OFFCURVE",
"559 667 CURVE SMOOTH",
"559 694 OFFCURVE",
"537 703 OFFCURVE",
"469 703 CURVE"
);
},
{
closed = 1;
nodes = (
"162 112 LINE",
"136 73 OFFCURVE",
"126 56 OFFCURVE",
"126 44 CURVE SMOOTH",
"126 17 OFFCURVE",
"148 8 OFFCURVE",
"216 8 CURVE",
"86 8 LINE"
);
}
);
width = 681;
},
{
background = {
paths = (
{
closed = 1;
nodes = (
"917 455 OFFCURVE",
"924 475 OFFCURVE",
"924 488 CURVE SMOOTH",
"924 514 OFFCURVE",
"903 527 OFFCURVE",
"856 533 CURVE",
"962 533 LINE",
"902 429 LINE"
);
},
{
closed = 1;
nodes = (
"417 250 LINE",
"257 109 LINE SMOOTH",
"226 82 OFFCURVE",
"207 60 OFFCURVE",
"207 44 CURVE SMOOTH",
"207 15 OFFCURVE",
"485 5 OFFCURVE",
"370 5 CURVE SMOOTH",
"45 5 LINE",
"45 6 LINE",
"150 19 LINE",
"415 252 LINE"
);
},
{
closed = 1;
nodes = (
"787 582 LINE",
"787 582 OFFCURVE",
"788 583 OFFCURVE",
"788 583 CURVE SMOOTH",
"832 619 OFFCURVE",
"865 647 OFFCURVE",
"865 667 CURVE SMOOTH",
"865 694 OFFCURVE",
"586 703 OFFCURVE",
"703 703 CURVE SMOOTH",
"1018 703 LINE",
"1018 702 LINE",
"913 689 LINE",
"789 580 LINE"
);
}
);
};
layerId = "35A90D60-3AD4-435C-9F8B-D1CA483F6F66";
paths = (
{
closed = 1;
nodes = (
"978 0 LINE",
"978 10 LINE",
"870 25 LINE",
"171 684 LINE",
"279 698 LINE",
"279 708 LINE",
"44 708 LINE",
"44 698 LINE",
"152 683 LINE",
"848 25 LINE",
"739 10 LINE",
"739 0 LINE"
);
},
{
closed = 1;
nodes = (
"528 344 LINE",
"915 684 LINE",
"1023 698 LINE",
"1023 708 LINE",
"698 708 LINE",
"698 698 LINE",
"817 698 OFFCURVE",
"860 689 OFFCURVE",
"860 667 CURVE SMOOTH",
"860 643 OFFCURVE",
"802 603 OFFCURVE",
"736 545 CURVE SMOOTH",
"534 367 LINE",
"504 367 LINE"
);
},
{
closed = 1;
nodes = (
"513 345 LINE",
"148 24 LINE",
"40 10 LINE",
"40 0 LINE",
"375 0 LINE",
"375 10 LINE",
"258 10 OFFCURVE",
"212 20 OFFCURVE",
"212 44 CURVE SMOOTH",
"212 58 OFFCURVE",
"230 79 OFFCURVE",
"260 105 CURVE SMOOTH",
"509 324 LINE",
"535 324 LINE"
);
},
{
closed = 1;
nodes = (
"137 703 LINE",
"143 703 LINE",
"883 5 LINE",
"877 5 LINE"
);
},
{
closed = 1;
nodes = (
"928 703 LINE",
"812 599 LINE",
"852 636 OFFCURVE",
"865 653 OFFCURVE",
"865 667 CURVE SMOOTH",
"865 684 OFFCURVE",
"843 697 OFFCURVE",
"796 703 CURVE"
);
},
{
closed = 1;
nodes = (
"257 112 LINE",
"217 75 OFFCURVE",
"204 58 OFFCURVE",
"204 44 CURVE SMOOTH",
"204 27 OFFCURVE",
"226 14 OFFCURVE",
"273 8 CURVE",
"141 8 LINE"
);
}
);
width = 1063;
}
);
leftKerningGroup = X;
rightKerningGroup = XX;
unicode = 0058;
},
{
color = 4;
glyphname = Y;
lastChange = "2022-08-05 06:04:53 +0000";
layers = (
{
background = {
paths = (
{
closed = 1;
nodes = (
"566 0 LINE",
"566 10 LINE",
"516 25 LINE",
"515 346 LINE",
"508 305 LINE",
"709 688 LINE",
"757 698 LINE",
"757 708 LINE",
"473 708 LINE",
"473 698 LINE",
"528 656 OFFCURVE",
"579 604 OFFCURVE",
"579 529 CURVE SMOOTH",
"579 489 OFFCURVE",
"560 429 OFFCURVE",
"523 364 CURVE SMOOTH",
"519 357 LINE",
"499 357 LINE",
"326 689 LINE",
"408 698 LINE",
"408 708 LINE",
"5 708 LINE",
"5 698 LINE",
"53 688 LINE",
"290 236 LINE",
"271 313 LINE",
"271 25 LINE",
"221 10 LINE",
"221 0 LINE"
);
}
);
};
layerId = "2660E96A-9963-4076-AFCB-E451BC6EE103";
paths = (
{
closed = 1;
nodes = (
"566 0 LINE",
"566 10 LINE",
"516 25 LINE",
"515 319 LINE",
"709 688 LINE",
"757 698 LINE",
"757 708 LINE",
"473 708 LINE",
"473 698 LINE",
"528 656 OFFCURVE",
"579 604 OFFCURVE",
"579 529 CURVE SMOOTH",
"579 489 OFFCURVE",
"560 429 OFFCURVE",
"523 364 CURVE SMOOTH",
"519 357 LINE",
"499 357 LINE",
"326 689 LINE",
"408 698 LINE",
"408 708 LINE",
"5 708 LINE",
"5 698 LINE",
"53 688 LINE",
"271 272 LINE",
"271 25 LINE",
"221 10 LINE",
"221 0 LINE"
);
},
{
closed = 1;
nodes = (
"304 688 LINE",
"487 337 LINE",
"495 337 LINE",
"495 277 LINE",
"496 20 LINE",
"291 20 LINE",
"291 277 LINE",
"75 688 LINE"
);
},
{
closed = 1;
nodes = (
"687 688 LINE",
"599 521 LINE",
"597 521 LINE",
"598 529 LINE SMOOTH",
"599 536 OFFCURVE",
"599 543 OFFCURVE",
"599 550 CURVE SMOOTH",
"599 591 OFFCURVE",
"569 640 OFFCURVE",
"517 688 CURVE"
);
}
);
width = 762;
},
{
layerId = "DF54607F-DD82-41E6-B2E3-81CA6D0E5C47";
paths = (
{
closed = 1;
nodes = (
"1057 0 LINE",
"1057 10 LINE",
"1007 25 LINE",
"1007 320 LINE",
"1392 688 LINE",
"1440 698 LINE",
"1440 708 LINE",
"923 708 LINE",
"923 698 LINE",
"988 643 OFFCURVE",
"1055 589 OFFCURVE",
"1055 500 CURVE SMOOTH",
"1055 463 OFFCURVE",
"1043 408 OFFCURVE",
"1010 355 CURVE SMOOTH",
"1005 347 LINE",
"993 347 LINE",
"635 689 LINE",
"719 698 LINE",
"719 708 LINE",
"5 708 LINE",
"5 698 LINE",
"53 688 LINE",
"487 273 LINE",
"487 25 LINE",
"437 10 LINE",
"437 0 LINE"
);
},
{
closed = 1;
nodes = (
"607 688 LINE",
"985 327 LINE",
"987 327 LINE",
"987 281 LINE",
"987 20 LINE",
"507 20 LINE",
"507 281 LINE",
"82 688 LINE"
);
},
{
closed = 1;
nodes = (
"1363 688 LINE",
"1050 389 LINE",
"1049 390 LINE",
"1055 403 LINE SMOOTH",
"1068 430 OFFCURVE",
"1075 465 OFFCURVE",
"1075 500 CURVE SMOOTH",
"1075 584 OFFCURVE",
"1021 640 OFFCURVE",
"965 688 CURVE"
);
}
);
width = 1445;
},
{
layerId = "A5088515-37FF-452F-BD44-18A7A5EF88F0";
paths = (
{
closed = 1;
nodes = (
"392 0 LINE",
"392 10 LINE",
"322 25 LINE",
"322 303 LINE",
"549 683 LINE",
"616 698 LINE",
"616 708 LINE",
"425 708 LINE",
"425 698 LINE",
"492 698 OFFCURVE",
"514 689 OFFCURVE",
"514 662 CURVE SMOOTH",
"514 655 OFFCURVE",
"511 646 OFFCURVE",
"506 637 CURVE SMOOTH",
"323 331 LINE",
"306 331 LINE",
"95 684 LINE",
"165 698 LINE",
"165 708 LINE",
"10 708 LINE",
"10 698 LINE",
"80 683 LINE",
"307 303 LINE",
"307 25 LINE",
"237 10 LINE",
"237 0 LINE"
);
},
{
closed = 1;
nodes = (
"78 703 LINE",
"303 326 LINE",
"330 326 LINE",
"317 305 LINE",
"317 5 LINE",
"312 5 LINE",
"312 304 LINE",
"74 703 LINE"
);
},
{
closed = 1;
nodes = (
"555 703 LINE",
"514 635 LINE",
"512 636 LINE",
"517 647 LINE SMOOTH",
"518 650 OFFCURVE",
"519 655 OFFCURVE",
"519 662 CURVE SMOOTH",
"519 692 OFFCURVE",
"494 703 OFFCURVE",
"430 703 CURVE"
);
}
);
width = 626;
},
{
background = {
paths = (
{
closed = 1;
nodes = (
"831 625 OFFCURVE",
"838 645 OFFCURVE",
"838 658 CURVE SMOOTH",
"838 684 OFFCURVE",
"817 697 OFFCURVE",
"770 703 CURVE",
"876 703 LINE",
"816 599 LINE"
);
}
);
};
layerId = "35A90D60-3AD4-435C-9F8B-D1CA483F6F66";
name = "Thin Extended";
paths = (
{
closed = 1;
nodes = (
"624 0 LINE",
"624 10 LINE",
"513 25 LINE",
"513 305 LINE",
"869 683 LINE",
"975 698 LINE",
"975 708 LINE",
"680 708 LINE",
"680 698 LINE",
"786 698 OFFCURVE",
"821 689 OFFCURVE",
"821 663 CURVE SMOOTH",
"821 656 OFFCURVE",
"816 646 OFFCURVE",
"808 637 CURVE SMOOTH",
"519 331 LINE",
"490 331 LINE",
"157 684 LINE",
"267 698 LINE",
"267 708 LINE",
"30 708 LINE",
"30 698 LINE",
"140 683 LINE",
"498 303 LINE",
"498 25 LINE",
"387 10 LINE",
"387 0 LINE"
);
},
{
closed = 1;
nodes = (
"133 703 LINE",
"488 326 LINE",
"525 326 LINE",
"508 307 LINE",
"508 5 LINE",
"503 5 LINE",
"503 305 LINE",
"128 703 LINE"
);
},
{
closed = 1;
nodes = (
"880 703 LINE",
"817 635 LINE",
"816 635 LINE",
"821 643 LINE SMOOTH",
"824 647 OFFCURVE",
"826 655 OFFCURVE",
"826 663 CURVE SMOOTH",
"826 691 OFFCURVE",
"791 701 OFFCURVE",
"685 703 CURVE"
);
}
);
width = 1005;
}
);
leftKerningGroup = VV;
leftMetricsKey = V;
rightKerningGroup = V;
rightMetricsKey = V;
unicode = 0059;
},
{
color = 4;
glyphname = Z;
lastChange = "2022-08-05 06:04:53 +0000";
layers = (
{
layerId = "2660E96A-9963-4076-AFCB-E451BC6EE103";
paths = (
{
closed = 1;
nodes = (
"664 0 LINE",
"629 304 LINE",
"609 304 LINE",
"561 193 LINE SMOOTH",
"509 75 OFFCURVE",
"452 16 OFFCURVE",
"389 16 CURVE SMOOTH",
"283 16 LINE",
"682 708 LINE",
"48 708 LINE",
"83 403 LINE",
"103 403 LINE",
"165 537 LINE SMOOTH",
"213 640 OFFCURVE",
"266 691 OFFCURVE",
"323 691 CURVE SMOOTH",
"419 692 LINE",
"20 0 LINE"
);
},
{
closed = 1;
nodes = (
"70 688 LINE",
"252 688 LINE",
"213 661 OFFCURVE",
"178 614 OFFCURVE",
"147 545 CURVE SMOOTH",
"99 442 LINE"
);
},
{
closed = 1;
nodes = (
"440 688 LINE",
"647 688 LINE",
"261 20 LINE",
"55 20 LINE"
);
},
{
closed = 1;
nodes = (
"505 49 OFFCURVE",
"543 103 OFFCURVE",
"579 185 CURVE SMOOTH",
"613 264 LINE",
"642 20 LINE",
"462 20 LINE"
);
}
);
width = 702;
},
{
layerId = "DF54607F-DD82-41E6-B2E3-81CA6D0E5C47";
paths = (
{
closed = 1;
nodes = (
"1318 0 LINE",
"1226 304 LINE",
"1216 304 LINE",
"1102 188 LINE SMOOTH",
"975 59 OFFCURVE",
"864 16 OFFCURVE",
"658 16 CURVE SMOOTH",
"609 16 LINE",
"1300 708 LINE",
"50 707 LINE",
"112 403 LINE",
"122 403 LINE",
"267 519 LINE SMOOTH",
"411 634 OFFCURVE",
"538 691 OFFCURVE",
"650 691 CURVE SMOOTH",
"691 692 LINE",
"20 0 LINE"
);
},
{
closed = 1;
nodes = (
"74 687 LINE",
"513 687 LINE",
"434 659 OFFCURVE",
"348 609 OFFCURVE",
"255 535 CURVE SMOOTH",
"126 432 LINE"
);
},
{
closed = 1;
nodes = (
"713 687 LINE",
"1252 688 LINE",
"585 20 LINE",
"67 20 LINE"
);
},
{
closed = 1;
nodes = (
"959 44 OFFCURVE",
"1039 96 OFFCURVE",
"1116 174 CURVE SMOOTH",
"1214 274 LINE",
"1291 20 LINE",
"872 20 LINE"
);
}
);
width = 1338;
},
{
layerId = "A5088515-37FF-452F-BD44-18A7A5EF88F0";
paths = (
{
closed = 1;
nodes = (
"602 0 LINE",
"572 260 LINE",
"562 260 LINE",
"568 168 LINE SMOOTH",
"576 39 OFFCURVE",
"558 15 OFFCURVE",
"520 15 CURVE SMOOTH",
"81 15 LINE",
"616 708 LINE",
"80 708 LINE",
"106 464 LINE",
"116 464 LINE",
"114 570 LINE SMOOTH",
"112 671 OFFCURVE",
"125 693 OFFCURVE",
"161 693 CURVE SMOOTH",
"584 693 LINE",
"50 0 LINE"
);
},
{
closed = 1;
nodes = (
"86 703 LINE",
"161 703 LINE",
"120 698 OFFCURVE",
"107 667 OFFCURVE",
"109 580 CURVE SMOOTH",
"111 469 LINE"
);
},
{
closed = 1;
nodes = (
"599 703 LINE",
"605 703 LINE",
"67 5 LINE",
"61 5 LINE"
);
},
{
closed = 1;
nodes = (
"567 11 OFFCURVE",
"580 49 OFFCURVE",
"574 158 CURVE SMOOTH",
"568 255 LINE",
"596 5 LINE",
"520 5 LINE"
);
}
);
width = 666;
},
{
layerId = "35A90D60-3AD4-435C-9F8B-D1CA483F6F66";
paths = (
{
closed = 1;
nodes = (
"962 0 LINE",
"932 260 LINE",
"922 260 LINE",
"928 159 LINE SMOOTH",
"935 37 OFFCURVE",
"918 15 OFFCURVE",
"880 15 CURVE SMOOTH",
"119 15 LINE",
"985 708 LINE",
"118 708 LINE",
"144 464 LINE",
"154 464 LINE",
"151 564 LINE SMOOTH",
"148 667 OFFCURVE",
"160 693 OFFCURVE",
"189 693 CURVE SMOOTH",
"944 693 LINE",
"80 0 LINE"
);
},
{
closed = 1;
nodes = (
"124 703 LINE",
"189 703 LINE",
"154 698 OFFCURVE",
"143 665 OFFCURVE",
"146 574 CURVE SMOOTH",
"149 469 LINE"
);
},
{
closed = 1;
nodes = (
"964 703 LINE",
"970 703 LINE",
"99 5 LINE",
"93 5 LINE"
);
},
{
closed = 1;
nodes = (
"926 10 OFFCURVE",
"939 46 OFFCURVE",
"934 149 CURVE SMOOTH",
"928 255 LINE",
"956 5 LINE",
"880 5 LINE"
);
}
);
width = 1065;
}
);
leftKerningGroup = ZZ;
rightKerningGroup = Z;
unicode = 005A;
},
{
color = 4;
glyphname = a;
lastChange = "2022-08-05 06:04:53 +0000";
layers = (
{
layerId = "2660E96A-9963-4076-AFCB-E451BC6EE103";
paths = (
{
closed = 1;
nodes = (
"174 515 OFFCURVE",
"33 439 OFFCURVE",
"33 364 CURVE SMOOTH",
"33 306 OFFCURVE",
"89 275 OFFCURVE",
"166 275 CURVE SMOOTH",
"245 275 OFFCURVE",
"302 306 OFFCURVE",
"302 364 CURVE SMOOTH",
"302 397 OFFCURVE",
"278 421 OFFCURVE",
"229 437 CURVE SMOOTH",
"180 453 OFFCURVE",
"164 461 OFFCURVE",
"164 469 CURVE SMOOTH",
"164 477 OFFCURVE",
"197 494 OFFCURVE",
"246 494 CURVE SMOOTH",
"342 494 OFFCURVE",
"356 453 OFFCURVE",
"356 279 CURVE",
"139 279 OFFCURVE",
"10 213 OFFCURVE",
"10 101 CURVE SMOOTH",
"10 33 OFFCURVE",
"66 -15 OFFCURVE",
"144 -15 CURVE SMOOTH",
"226 -15 OFFCURVE",
"302 50 OFFCURVE",
"349 160 CURVE",
"356 154 LINE",
"356 146 OFFCURVE",
"356 143 OFFCURVE",
"356 140 CURVE SMOOTH",
"356 28 OFFCURVE",
"420 -15 OFFCURVE",
"516 -15 CURVE SMOOTH",
"562 -15 OFFCURVE",
"615 -1 OFFCURVE",
"643 20 CURVE",
"643 30 LINE",
"624 19 OFFCURVE",
"611 14 OFFCURVE",
"603 14 CURVE SMOOTH",
"594 14 OFFCURVE",
"591 22 OFFCURVE",
"591 32 CURVE SMOOTH",
"591 325 LINE SMOOTH",
"591 453 OFFCURVE",
"512 515 OFFCURVE",
"331 515 CURVE SMOOTH"
);
},
{
closed = 1;
nodes = (
"356 198 LINE",
"320 100 OFFCURVE",
"281 65 OFFCURVE",
"254 65 CURVE SMOOTH",
"234 65 OFFCURVE",
"224 83 OFFCURVE",
"224 119 CURVE SMOOTH",
"224 179 OFFCURVE",
"260 259 OFFCURVE",
"356 269 CURVE"
);
},
{
closed = 1;
nodes = (
"96 297 OFFCURVE",
"55 323 OFFCURVE",
"55 364 CURVE SMOOTH",
"55 396 OFFCURVE",
"92 436 OFFCURVE",
"146 460 CURVE",
"146 454 OFFCURVE",
"153 445 OFFCURVE",
"162 440 CURVE SMOOTH",
"171 436 OFFCURVE",
"189 428 OFFCURVE",
"208 422 CURVE SMOOTH",
"243 411 OFFCURVE",
"280 398 OFFCURVE",
"280 364 CURVE SMOOTH",
"280 323 OFFCURVE",
"238 297 OFFCURVE",
"166 297 CURVE SMOOTH"
);
},
{
closed = 1;
nodes = (
"78 7 OFFCURVE",
"32 46 OFFCURVE",
"32 101 CURVE SMOOTH",
"32 185 OFFCURVE",
"128 247 OFFCURVE",
"270 258 CURVE",
"235 231 OFFCURVE",
"202 180 OFFCURVE",
"202 119 CURVE SMOOTH",
"202 86 OFFCURVE",
"209 49 OFFCURVE",
"243 49 CURVE SMOOTH",
"249 49 OFFCURVE",
"256 50 OFFCURVE",
"264 54 CURVE",
"229 26 OFFCURVE",
"187 7 OFFCURVE",
"144 7 CURVE SMOOTH"
);
},
{
closed = 1;
nodes = (
"350 502 OFFCURVE",
"420 501 OFFCURVE",
"475 476 CURVE SMOOTH",
"536 449 OFFCURVE",
"569 398 OFFCURVE",
"569 325 CURVE SMOOTH",
"569 37 LINE SMOOTH",
"569 29 OFFCURVE",
"569 15 OFFCURVE",
"571 11 CURVE",
"556 6 OFFCURVE",
"537 4 OFFCURVE",
"517 4 CURVE SMOOTH",
"454 4 OFFCURVE",
"378 37 OFFCURVE",
"378 130 CURVE SMOOTH",
"378 325 LINE SMOOTH",
"378 378 OFFCURVE",
"374 417 OFFCURVE",
"363 446 CURVE SMOOTH",
"353 472 OFFCURVE",
"336 492 OFFCURVE",
"311 501 CURVE"
);
}
);
width = 648;
},
{
layerId = "DF54607F-DD82-41E6-B2E3-81CA6D0E5C47";
paths = (
{
closed = 1;
nodes = (
"287 515 OFFCURVE",
"30 455 OFFCURVE",
"30 370 CURVE SMOOTH",
"30 316 OFFCURVE",
"131 282 OFFCURVE",
"293 282 CURVE SMOOTH",
"489 282 OFFCURVE",
"594 322 OFFCURVE",
"594 391 CURVE SMOOTH",
"594 420 OFFCURVE",
"576 444 OFFCURVE",
"539 462 CURVE SMOOTH",
"507 477 OFFCURVE",
"496 484 OFFCURVE",
"496 490 CURVE SMOOTH",
"496 500 OFFCURVE",
"514 505 OFFCURVE",
"549 505 CURVE SMOOTH",
"657 505 OFFCURVE",
"678 440 OFFCURVE",
"678 279 CURVE",
"240 279 OFFCURVE",
"10 224 OFFCURVE",
"10 111 CURVE SMOOTH",
"10 32 OFFCURVE",
"111 -15 OFFCURVE",
"281 -15 CURVE SMOOTH",
"522 -15 OFFCURVE",
"611 29 OFFCURVE",
"671 166 CURVE",
"678 159 LINE",
"678 146 OFFCURVE",
"678 143 OFFCURVE",
"678 140 CURVE SMOOTH",
"678 36 OFFCURVE",
"786 -15 OFFCURVE",
"1007 -15 CURVE SMOOTH",
"1105 -15 OFFCURVE",
"1206 -1 OFFCURVE",
"1250 20 CURVE",
"1250 30 LINE",
"1230 23 OFFCURVE",
"1217 20 OFFCURVE",
"1209 20 CURVE SMOOTH",
"1201 20 OFFCURVE",
"1198 25 OFFCURVE",
"1198 35 CURVE SMOOTH",
"1198 295 LINE SMOOTH",
"1198 471 OFFCURVE",
"1101 515 OFFCURVE",
"653 515 CURVE SMOOTH"
);
},
{
closed = 1;
nodes = (
"678 208 LINE",
"650 124 OFFCURVE",
"604 66 OFFCURVE",
"574 66 CURVE SMOOTH",
"549 66 OFFCURVE",
"536 91 OFFCURVE",
"536 124 CURVE SMOOTH",
"536 184 OFFCURVE",
"582 269 OFFCURVE",
"678 269 CURVE"
);
},
{
closed = 1;
nodes = (
"135 304 OFFCURVE",
"52 332 OFFCURVE",
"52 370 CURVE SMOOTH",
"52 426 OFFCURVE",
"214 477 OFFCURVE",
"474 492 CURVE",
"474 482 OFFCURVE",
"478 472 OFFCURVE",
"488 465 CURVE SMOOTH",
"497 458 OFFCURVE",
"510 451 OFFCURVE",
"530 442 CURVE SMOOTH",
"562 427 OFFCURVE",
"572 413 OFFCURVE",
"572 391 CURVE SMOOTH",
"572 337 OFFCURVE",
"485 304 OFFCURVE",
"293 304 CURVE SMOOTH"
);
},
{
closed = 1;
nodes = (
"128 7 OFFCURVE",
"32 47 OFFCURVE",
"32 111 CURVE SMOOTH",
"32 198 OFFCURVE",
"208 248 OFFCURVE",
"576 255 CURVE",
"534 221 OFFCURVE",
"514 167 OFFCURVE",
"514 124 CURVE SMOOTH",
"514 90 OFFCURVE",
"524 53 OFFCURVE",
"558 53 CURVE SMOOTH",
"564 53 OFFCURVE",
"571 54 OFFCURVE",
"578 58 CURVE",
"527 24 OFFCURVE",
"429 7 OFFCURVE",
"281 7 CURVE SMOOTH"
);
},
{
closed = 1;
nodes = (
"739 500 OFFCURVE",
"952 497 OFFCURVE",
"1054 464 CURVE SMOOTH",
"1141 435 OFFCURVE",
"1176 383 OFFCURVE",
"1176 295 CURVE SMOOTH",
"1176 50 LINE SMOOTH",
"1176 38 OFFCURVE",
"1176 32 OFFCURVE",
"1176 19 CURVE",
"1140 11 OFFCURVE",
"1076 5 OFFCURVE",
"1006 5 CURVE SMOOTH",
"801 5 OFFCURVE",
"700 50 OFFCURVE",
"700 140 CURVE SMOOTH",
"700 295 LINE SMOOTH",
"700 331 OFFCURVE",
"699 383 OFFCURVE",
"688 426 CURVE SMOOTH",
"682 453 OFFCURVE",
"671 478 OFFCURVE",
"655 493 CURVE"
);
}
);
width = 1255;
},
{
layerId = "A5088515-37FF-452F-BD44-18A7A5EF88F0";
paths = (
{
closed = 1;
nodes = (
"195 515 OFFCURVE",
"93 454 OFFCURVE",
"93 398 CURVE SMOOTH",
"93 370 OFFCURVE",
"119 357 OFFCURVE",
"145 357 CURVE SMOOTH",
"171 357 OFFCURVE",
"197 370 OFFCURVE",
"197 395 CURVE SMOOTH",
"197 410 OFFCURVE",
"189 421 OFFCURVE",
"172 430 CURVE SMOOTH",
"151 440 OFFCURVE",
"144 445 OFFCURVE",
"144 451 CURVE SMOOTH",
"144 470 OFFCURVE",
"209 500 OFFCURVE",
"302 500 CURVE SMOOTH",
"427 500 OFFCURVE",
"477 425 OFFCURVE",
"477 262 CURVE",
"203 262 OFFCURVE",
"68 205 OFFCURVE",
"70 91 CURVE SMOOTH",
"71 15 OFFCURVE",
"129 -16 OFFCURVE",
"203 -15 CURVE SMOOTH",
"297 -15 OFFCURVE",
"416 40 OFFCURVE",
"467 136 CURVE",
"477 130 LINE",
"477 113 OFFCURVE",
"477 109 OFFCURVE",
"477 43 CURVE SMOOTH",
"477 4 OFFCURVE",
"490 -15 OFFCURVE",
"519 -15 CURVE SMOOTH",
"545 -15 OFFCURVE",
"574 -2 OFFCURVE",
"596 20 CURVE",
"596 31 LINE",
"573 13 OFFCURVE",
"545 0 OFFCURVE",
"523 0 CURVE SMOOTH",
"505 0 OFFCURVE",
"491 10 OFFCURVE",
"491 37 CURVE SMOOTH",
"491 262 LINE SMOOTH",
"491 436 OFFCURVE",
"437 515 OFFCURVE",
"302 515 CURVE SMOOTH"
);
},
{
closed = 1;
nodes = (
"477 183 LINE",
"433 63 OFFCURVE",
"302 -2 OFFCURVE",
"203 -3 CURVE SMOOTH",
"136 -3 OFFCURVE",
"84 25 OFFCURVE",
"84 91 CURVE SMOOTH",
"84 196 OFFCURVE",
"214 248 OFFCURVE",
"477 248 CURVE"
);
},
{
closed = 1;
nodes = (
"118 362 OFFCURVE",
"98 378 OFFCURVE",
"98 398 CURVE SMOOTH",
"98 419 OFFCURVE",
"115 444 OFFCURVE",
"143 462 CURVE",
"139 458 OFFCURVE",
"138 454 OFFCURVE",
"138 451 CURVE SMOOTH",
"138 440 OFFCURVE",
"150 434 OFFCURVE",
"160 430 CURVE SMOOTH",
"176 422 OFFCURVE",
"192 414 OFFCURVE",
"192 395 CURVE SMOOTH",
"192 377 OFFCURVE",
"172 362 OFFCURVE",
"145 362 CURVE SMOOTH"
);
},
{
closed = 1;
nodes = (
"122 -11 OFFCURVE",
"76 25 OFFCURVE",
"75 91 CURVE SMOOTH",
"73 179 OFFCURVE",
"167 235 OFFCURVE",
"337 249 CURVE",
"172 236 OFFCURVE",
"79 179 OFFCURVE",
"79 91 CURVE SMOOTH",
"79 28 OFFCURVE",
"123 -8 OFFCURVE",
"203 -7 CURVE SMOOTH",
"251 -7 OFFCURVE",
"307 8 OFFCURVE",
"358 36 CURVE",
"312 6 OFFCURVE",
"257 -11 OFFCURVE",
"203 -11 CURVE SMOOTH"
);
},
{
closed = 1;
nodes = (
"385 498 OFFCURVE",
"413 484 OFFCURVE",
"435 460 CURVE SMOOTH",
"470 420 OFFCURVE",
"486 355 OFFCURVE",
"486 262 CURVE SMOOTH",
"486 37 LINE SMOOTH",
"486 13 OFFCURVE",
"492 1 OFFCURVE",
"512 -8 CURVE",
"507 -7 OFFCURVE",
"503 -5 OFFCURVE",
"500 -2 CURVE SMOOTH",
"488 5 OFFCURVE",
"482 18 OFFCURVE",
"482 37 CURVE SMOOTH",
"482 262 LINE",
"482 354 OFFCURVE",
"466 420 OFFCURVE",
"433 459 CURVE SMOOTH",
"412 484 OFFCURVE",
"383 497 OFFCURVE",
"349 504 CURVE"
);
}
);
width = 626;
},
{
layerId = "35A90D60-3AD4-435C-9F8B-D1CA483F6F66";
paths = (
{
closed = 1;
nodes = (
"292 515 OFFCURVE",
"129 454 OFFCURVE",
"129 398 CURVE SMOOTH",
"129 370 OFFCURVE",
"172 357 OFFCURVE",
"215 357 CURVE SMOOTH",
"258 357 OFFCURVE",
"302 370 OFFCURVE",
"302 395 CURVE SMOOTH",
"302 411 OFFCURVE",
"288 422 OFFCURVE",
"259 430 CURVE SMOOTH",
"225 439 OFFCURVE",
"213 444 OFFCURVE",
"213 451 CURVE SMOOTH",
"213 470 OFFCURVE",
"321 500 OFFCURVE",
"476 500 CURVE SMOOTH",
"684 500 OFFCURVE",
"767 425 OFFCURVE",
"767 262 CURVE",
"311 262 OFFCURVE",
"87 205 OFFCURVE",
"90 91 CURVE SMOOTH",
"92 15 OFFCURVE",
"188 -16 OFFCURVE",
"311 -15 CURVE SMOOTH",
"468 -15 OFFCURVE",
"658 37 OFFCURVE",
"755 143 CURVE",
"767 135 LINE",
"767 118 OFFCURVE",
"767 109 OFFCURVE",
"767 43 CURVE SMOOTH",
"767 4 OFFCURVE",
"787 -15 OFFCURVE",
"828 -15 CURVE SMOOTH",
"871 -15 OFFCURVE",
"919 -2 OFFCURVE",
"956 20 CURVE",
"956 31 LINE",
"917 13 OFFCURVE",
"869 0 OFFCURVE",
"833 0 CURVE SMOOTH",
"803 0 OFFCURVE",
"781 9 OFFCURVE",
"781 37 CURVE SMOOTH",
"781 262 LINE SMOOTH",
"781 436 OFFCURVE",
"701 515 OFFCURVE",
"476 515 CURVE SMOOTH"
);
},
{
closed = 1;
nodes = (
"767 183 LINE",
"694 63 OFFCURVE",
"476 -2 OFFCURVE",
"311 -3 CURVE SMOOTH",
"200 -3 OFFCURVE",
"104 25 OFFCURVE",
"104 91 CURVE SMOOTH",
"104 196 OFFCURVE",
"324 248 OFFCURVE",
"767 248 CURVE"
);
},
{
closed = 1;
nodes = (
"173 362 OFFCURVE",
"134 374 OFFCURVE",
"134 398 CURVE SMOOTH",
"134 424 OFFCURVE",
"172 451 OFFCURVE",
"231 472 CURVE",
"216 465 OFFCURVE",
"208 458 OFFCURVE",
"208 451 CURVE SMOOTH",
"208 440 OFFCURVE",
"221 435 OFFCURVE",
"258 425 CURVE SMOOTH",
"286 417 OFFCURVE",
"297 409 OFFCURVE",
"297 395 CURVE SMOOTH",
"297 374 OFFCURVE",
"257 362 OFFCURVE",
"215 362 CURVE SMOOTH"
);
},
{
closed = 1;
nodes = (
"189 -11 OFFCURVE",
"97 19 OFFCURVE",
"95 91 CURVE SMOOTH",
"93 180 OFFCURVE",
"238 232 OFFCURVE",
"534 249 CURVE",
"243 232 OFFCURVE",
"99 180 OFFCURVE",
"99 91 CURVE SMOOTH",
"99 21 OFFCURVE",
"199 -7 OFFCURVE",
"311 -7 CURVE SMOOTH",
"391 -7 OFFCURVE",
"488 8 OFFCURVE",
"574 39 CURVE",
"495 6 OFFCURVE",
"398 -11 OFFCURVE",
"311 -11 CURVE SMOOTH"
);
},
{
closed = 1;
nodes = (
"633 496 OFFCURVE",
"689 473 OFFCURVE",
"725 431 CURVE SMOOTH",
"760 391 OFFCURVE",
"776 335 OFFCURVE",
"776 262 CURVE SMOOTH",
"776 37 LINE SMOOTH",
"776 15 OFFCURVE",
"791 -2 OFFCURVE",
"816 -7 CURVE",
"811 -7 OFFCURVE",
"806 -6 OFFCURVE",
"802 -5 CURVE SMOOTH",
"784 1 OFFCURVE",
"772 18 OFFCURVE",
"772 40 CURVE SMOOTH",
"772 262 LINE",
"773 335 OFFCURVE",
"757 391 OFFCURVE",
"721 431 CURVE SMOOTH",
"685 470 OFFCURVE",
"631 493 OFFCURVE",
"556 504 CURVE"
);
}
);
width = 996;
}
);
leftKerningGroup = a;
rightKerningGroup = a;
unicode = 0061;
},
